<mxfile host="app.diagrams.net" agent="Mozilla/5.0 (Windows NT 10.0; Win64; x64) AppleWebKit/537.36 (KHTML, like Gecko) Chrome/140.0.0.0 Safari/537.36" version="28.1.2">
  <diagram name="Page-1" id="JEjgt8Y7Z-vk6pv3K9CY">
    <mxGraphModel dx="786" dy="397" grid="1" gridSize="10" guides="1" tooltips="1" connect="1" arrows="1" fold="1" page="1" pageScale="1" pageWidth="1100" pageHeight="850" math="0" shadow="0">
      <root>
        <mxCell id="0" />
        <mxCell id="1" parent="0" />
        <mxCell id="H2DMha2lDXCGfiCha4f5-26" value="&lt;font style=&quot;font-size: 14px;&quot;&gt;Manages data specification&lt;/font&gt;" style="edgeStyle=orthogonalEdgeStyle;rounded=0;orthogonalLoop=1;jettySize=auto;html=1;entryX=0.5;entryY=0;entryDx=0;entryDy=0;exitX=0.5;exitY=1;exitDx=0;exitDy=0;" parent="1" source="H2DMha2lDXCGfiCha4f5-23" target="H2DMha2lDXCGfiCha4f5-25" edge="1">
          <mxGeometry x="-0.1667" relative="1" as="geometry">
            <mxPoint as="offset" />
          </mxGeometry>
        </mxCell>
        <mxCell id="H2DMha2lDXCGfiCha4f5-23" value="&lt;div&gt;&lt;font style=&quot;font-size: 20px;&quot;&gt;&lt;br&gt;&lt;/font&gt;&lt;/div&gt;&lt;div&gt;&lt;font style=&quot;font-size: 20px;&quot;&gt;&lt;br&gt;&lt;/font&gt;&lt;/div&gt;&lt;div&gt;&lt;br&gt;&lt;/div&gt;&lt;div&gt;&lt;font style=&quot;font-size: 20px;&quot;&gt;Specification&lt;/font&gt;&lt;/div&gt;&lt;div&gt;&lt;font style=&quot;font-size: 20px;&quot;&gt;editor&lt;/font&gt;&lt;/div&gt;" style="shape=actor;whiteSpace=wrap;html=1;" parent="1" vertex="1">
          <mxGeometry x="560" y="10" width="160" height="150" as="geometry" />
        </mxCell>
        <mxCell id="H2DMha2lDXCGfiCha4f5-28" value="&lt;font style=&quot;font-size: 14px;&quot;&gt;Asks for&amp;nbsp;&lt;/font&gt;&lt;span style=&quot;font-size: 14px; background-color: light-dark(#ffffff, var(--ge-dark-color, #121212)); color: light-dark(rgb(0, 0, 0), rgb(255, 255, 255));&quot;&gt;data specification&lt;/span&gt;" style="edgeStyle=orthogonalEdgeStyle;rounded=0;orthogonalLoop=1;jettySize=auto;html=1;exitX=1;exitY=0.25;exitDx=0;exitDy=0;entryX=0;entryY=0.25;entryDx=0;entryDy=0;" parent="1" source="H2DMha2lDXCGfiCha4f5-24" target="H2DMha2lDXCGfiCha4f5-25" edge="1">
          <mxGeometry relative="1" as="geometry">
            <mxPoint as="offset" />
          </mxGeometry>
        </mxCell>
        <mxCell id="H2DMha2lDXCGfiCha4f5-24" value="&lt;font style=&quot;font-size: 20px;&quot;&gt;Data specification navigator&lt;/font&gt;" style="rounded=0;whiteSpace=wrap;html=1;fillColor=#3399FF;" parent="1" vertex="1">
          <mxGeometry x="160" y="280" width="160" height="120" as="geometry" />
        </mxCell>
        <mxCell id="H2DMha2lDXCGfiCha4f5-29" value="&lt;font style=&quot;font-size: 14px;&quot;&gt;Provides data specification&lt;/font&gt;" style="edgeStyle=orthogonalEdgeStyle;rounded=0;orthogonalLoop=1;jettySize=auto;html=1;entryX=1;entryY=0.75;entryDx=0;entryDy=0;exitX=0;exitY=0.75;exitDx=0;exitDy=0;" parent="1" source="H2DMha2lDXCGfiCha4f5-25" target="H2DMha2lDXCGfiCha4f5-24" edge="1">
          <mxGeometry relative="1" as="geometry" />
        </mxCell>
        <mxCell id="H2DMha2lDXCGfiCha4f5-25" value="&lt;font style=&quot;font-size: 20px;&quot;&gt;Dataspecer&lt;/font&gt;" style="rounded=0;whiteSpace=wrap;html=1;fillColor=#FF9933;" parent="1" vertex="1">
          <mxGeometry x="560" y="280" width="160" height="120" as="geometry" />
        </mxCell>
        <mxCell id="LIWL7TPcpc5fThkSt5Q0-4" value="&lt;span style=&quot;font-size: 14px;&quot;&gt;Provides information&lt;/span&gt;&lt;div&gt;&lt;span style=&quot;font-size: 14px;&quot;&gt;about data specification&lt;/span&gt;&lt;/div&gt;" style="edgeStyle=orthogonalEdgeStyle;rounded=0;orthogonalLoop=1;jettySize=auto;html=1;entryX=0.5;entryY=0;entryDx=0;entryDy=0;exitX=0.363;exitY=1;exitDx=0;exitDy=0;exitPerimeter=0;" edge="1" parent="1" source="LIWL7TPcpc5fThkSt5Q0-2" target="H2DMha2lDXCGfiCha4f5-24">
          <mxGeometry relative="1" as="geometry">
            <mxPoint x="240" y="180" as="sourcePoint" />
          </mxGeometry>
        </mxCell>
        <mxCell id="LIWL7TPcpc5fThkSt5Q0-2" value="" style="shape=image;verticalLabelPosition=bottom;labelBackgroundColor=default;verticalAlign=top;aspect=fixed;imageAspect=0;image=data:image/png,iVBORw0KGgoAAAANSUhEUgAAAVYAAADoCAIAAAA7eltlAAAQAElEQVR4Aey9B6BkRbE/XFXd58zMjXvv5kiO5oSKEXPC9EQMiCSJksSMOWJACSJRRAmiCGJOGAAFQSRLXJZlc94bZ+ac0131/XruLuB7//e+f3hP4e727dOnQ3V1VU/9qsNZUWxr2DoD/10zoGCkpkhtU2r/VdAJygmS+OjCRNXW9J8xA0Jbw9YZ+P+bAUsE1klT7t8//9DAxJ32iTRlJ5ofndIEL56gMVKQyUQBuUSJZyKivDX+j87AVhfwPzq9j3/mACIlUBttAiw9KthE/mHwPpyZqJ9IDbUg5AT0lKdUSHXJDyBPTLDClNGUGMqUHpAgEkIiJNPUsfOgamv8b5sBTP5/G6+tjB7/M2D/XoWEQns08B6m+I+Z1Be1iCmXnrS8Jw7pSUBnwtY2NaTnYZ+ymaqzEUik4IBIIMZDNkEoyS8QJ2HQiJh4bH5QtORjNpe3vv/LGXh0ozy6sDW/xc2AEcCTnk2ZCQAmTKbKTdMB2KUSFmMQJ4pOPWon8hMp6tCaYDpRTgz1P5oXIyQ6SpSdxCZytClYetumus4YE/xSdXpSCQ9icg+pJj0ocvIx9HAw5NKD19b4X83Af/yN/ivqrW2TYgYeRoYBaViYkUIvoGgCVPyoMupTRBVoEVMBrgCEnYKlMgrYwpspAIuKzoYdb0Qs4ymF/+i8QNih50766KTT3EkmxkZbckMPExrppjyINuVA80gOhcQdrRM5S9sF8LJOcWvyX8zAVhfwX0zO478JCEiATS/AcbM+DyMnZQxAQUPKEvHEiyaCTbyI4CZSS8dYDCUiSmUyNFAK2MIzC3V645VomNkECRmBLBHh6RDgvTkm4QhoRX3qQ5sCip0lfaIZlZyKySmkIYxSQArOhAe5BH9CGzp2SvQfQ6f3f6zeWiNbp2DyzcAmFMDoAQkg0diAQkZhAipJ4000BNwARv+unjUSehNCTE0WO0s7ipToVSmGSBH5oFR26mgidMZAfaeEArhwKmKD0BmGwLcqCjCMm0mY4AMoggLEhIDviUhTgdFiFFAi9N5sq9wpI2VwxsOdMpKOTtzpiLqOewJXNGDQ5EOQ65DgvQXG/0zlzdP6n7VvrX/8zQAQnxAD1E/IDuwDEcgbdgIdYCA/UYMMIupAPIGOifpoHSCBjYM3IHYCtJVVvOlvN1140cVf+vyXDz7o4O122rkuXb2uzv8hTOnr2WbO7H3e9Pojj3zPGd845ea//mVsbAgcMBauB7JaTVkcQE0MbxI0WoyO2CbGJsbmgUAHakKdCRwQTfSm/zSkvnigBNJNVNCr081INtWAHXTqxE01W1+b52brTEyeGehggDvG/49KAWRMqR5AoRQ2v4kn6lFnnTrxyTCUaHxk6Funn/LsZzw5y1wt98991rMOedd+J37iQ9+58DuLH7y/sKqFawB0m4hCjD+ikdHxJStX/fDKn5557nnvPfr4Z+zx3N6+AWauZdmCeXOPPvaYy394yQOL7lFTEfLimIUMPoAmwmaWkTiQKTueqO+kBgmtk0PycAb5DrBBifhwNfJowSYIaWpnqESoROzUbE3oYfe4dS4eDzMA609iYjXHq5NuMvaJF1JEmHpa/vBKFJ0KSmafQEYTgSdeCXSWNsmbMYdq7rSFVvWRE45rdGW9/VMPO/b4G2++MwR1kgVL+34iB0rqMKUUAH2f3iYTw02kqJEEObw3xSqE5ctXfOO00/fd95077rC781lPd9erXvGyY4496q/XXR2K8U5HEyYYphr2CJ7EQWsFn/QQHAAk5CS0TShkaOp0I8iTClCc0UQpdBoMDamQ1JVOBiSb3ltfmOmtk/C4mYHNtszJpo0fkXsib7DszZUAAZCE+s0VIGYQ4PWPkWECClQROuOhRQ/cM3VKX70n//LXTi1bgckLCzknzI1aNq2n/qKn7LLf6196+Jte9tXD33LBhw//9gcPRjzvQwd99ai3n/zed331qHd+8fB9P3/Q6086dJ+P7Pf6E9/x6g++87X7vXzPVzx9511nDQx0d9dy94hIquPN1q9/+7vTzzhzj+e/OOvqwSgDUwf33+/gv1z3p6pdiiRaYRYs35LgaySKY0MIcAJxAuipOkkOT0GcCtCaUj9oNPGiVEPQfnOROu0GHqmWJm/439EsTdn/Dt1Wmn/tDMB+qWO3tDnAnIFzRFQgn1J+NAVvRgC6IqIdrSmTns2WDyJkJb1o49CGZ+/5gh123G3D8GgCB1HGNKs/e/cr9/jK0e84+yMHf/7QvU87ev/DXr3nW56+y25zp/tcxprDK4dHN46MFa1WTSz3RXfDBqc0Bqd099bctrN6tp8zc9d5s176jN3f8fIXfObIfc/84AFnHPPuU45+65eP2v+DB7zlyQtm9NWzXu8740O8JOTQhqELLz7/uc97Qb2rUa93Peu5e5575rkPLVmKDYASMQPOjtjhrkCgoaE64q2GeuSTcoxK6oTNfDvvNFWW2qmTI7zAodNEW3LAJGzJ6j+mde+YK8waFp72sP9e1o45Y7f8H+ph26mOH35vyqCSNz2P1BCy4HTet741ODj1xuv/hDIT777ttPe85gVnfuCAM95/wEue9sTp9Vq7LB35tc2xpRuH71m1Yt3o6GhJhXLdaSU2UrRG2rjX86PD1ehQu92mpkmzTUs3jq7YMLR4zbpVo+MPLF/3wPK1a0dGVHyXtLbt9+9/9xsv+MThX/nQgV85Yf/j9335G178zB1mDNYcbQpMRdm+6S/XH3rkodtuuy2L1Lryt7/9rT+64gdLly0LIRYxbV8EpxJmYeAaLgLuIPXmlGx+HvYIRKCiTpiY2052S0+2uoDHqAUAlh07NlitIYdIHUew2aANDQTTp02hY9RIjJFsqvtfvP6xESU1evs73vGeQw4BM1jDi562y2kfPviLRx3wmuc9Y3S0un/F6IaxctXw6Ph4OVaEdlFt3DgixKSOijYFs0gay2azPW3qAC4MC60gZclWNstmu20a86yee9wUWBkNHxqYJSgPBVnfiivXjNyzZP2GtcO1Kj5h23lveeEeX3rfwWd/7MgvHLX/Ia97xQuessv0hhciRCjinMMNxfcv/eE+b9l3u223bdTqM6dNfclLX3bhRRc2m01cApjAD2AgIiYENUwh3il2KmiivlObKqA7dcLDmU5pi0smpneLU/uxrzDDSpNtpheejsAGI+54gJRsrtzU0mlCgiJjKTS8ySqN+KheAYjIpVpLFFgs0dqBwsp1I295/eu+f+n3ULH7gjknH/32o/Z95bSu2t33P3T/8hUVoXcotCzaLUfkvati9HmuJFO6u+u1WqsKpUEQ75xfvWbdyMhIrV5vFUU1XnR11+r48y6WZVWVnqWrlte8K0NBVcjVGi7Lc6+xrTGOF3Ht0Piy1evuf+DBlStW9db02bvNPW6fV533sSO//bH3nPa+/Q542fOe/+SdZvX3sOMJ8VXjyPDwH37/u/3337+7u9vl8rwXPv+U009dPzQEXeARhNIUJg0gIOFko6RwdwoPBQJi/KU3WcoYspjUzpygJkXUPD7j/6nU8n/aYSv9//gMwBbTGJbAlTKdZT0ZKcM0mblTlxJCeeLNhvvyiI6WDBpwTXhXzkQ8WcbiMnGOYmytXbf6j3/43Q8uvvArX/niB074yNzp0370s58P9NU/f8RbTjri9UJx8eI1y1auc94zrhPFRY2jQ2NZ7nyeCbuuWr2vZ4oZkWgg9Ym11PK8p7srz0FSbzZb463maLtojrfaIZRRLHkkroKWRcneZwBr5okRqVW2u+pdWe5UqwYqSRvdDe99c7xcPzx27+Kldy1atn79SC758560w0GvfO6nDnrzN4/d78vvfet7Xv/KPZ6wU0YuaduZEIt2/Z//fPwxx00bGJg7b+6l37sYm5M0N5sNPJooo4DIqE8PXmTggGlLRSbGTQMqmQjxkcmlyR0wI5NbwcefdsYdC0zGuUn45AO4k09O4FE7fZB2qolYhDxTghtRWqsJTOAHePHCe4875rhdFiwQFp91z5g+a6+XvWzfd+3/wQ+d+NWvnURUPXPn+Z86cJ/+LL9n8YYN423y1NPb5USaRRtuBSDr7evxnDWbY1WscMovqnYVQ9QqFlEcPhPG5ljTi4+VjYwNh7JodHVNG+iXDE5Ea3XHLF2NWuYdkIZO4p2QmMbxNpxEO8SY+SyvYXcQQtDWWIucmLF3Hkt2FbVdlmuGN+JOYf1oMVpVwyNNCe5Zu8w/+o17fftTh3/2sHe+7vnPnN7fTUxY6KkTVixf8Y799hPvX/C8PVeuWtqp04xJQKGPTBlt7oGuhkInIo83REWa8g83oDxJo0xSvR6Ham22tmR5sE5OcN+kRqfKOgQpy9zJ0qPNWdEF218s+jicq51xzhm77LRrJrzdTrudevqp9y1d6lInJuaay7YfGDzo1S/4yjEHXPLZo47d55WqYbhdqIX+7p6yKNcPbcQIMQbWYOjgJKrV6g2kgHe9Uc+wOzCJgj21NnzdAcBVxaz1vD5lYKCW5WaGZR+f73CEALCZXVUWWe6FsBMJOBioVb2NWk+jqyiKsfF2VcQQzWdYqC1UVmkoy3Yu2F9kLoMSruZlHAf+KnjvK9aV69c+sGT56rVrZk/J3/aSp53+gXdf+P6DTjvm3e967Qu2mdZXwzDwMkR/uu76OXMXzJgx/c/XXWeE6WIWJsP2BbNFqBFiQn0nRQYRlUjp4ZrUTpM7yORW73GkXcIzDBCxI7TARJP9bS4TwSfQ5pBaiDop4GZYtcSIWf70u9/OXTCvnmfvPey99y1aCAQTYfWjab3d288cfPPzn/TpA15/xnFv/+Shb3r6TnO6ODy0dNWqkZZIlrF32JBbulMj8oSr/rxexGgGjxKjUqyqzPHY2Fgoyp6eHhHfndeqEEKMFiyEgC0DlnqFO6lQXYmGMv3bYoinMWgIMZbY+VdlO7TKAnuBaNK5K3AxYl9RCjhy7oVjqAhMohGxc1KUFRFFi8bSCpWyZqpdkLfWCOpWD7UWLV+z5KF1S4dGgpc9d9/x44fue9Lx7zrstc+bPqUbHRHXrl33/Oe9YLB3ym+u/DGKZo5ENEZO4EcFXpvmvlNAgiJGR+ZxE/9fBJX/l85b+/53zcAmi4NVInaYGk3kJtJO1abkH2qMiBGIr/nTNVP6ul/wslesXLFc0q+ayAa6/DFvefnXP3DAl4/Z71MH7/vGF+/R21NvlbZ2rFi6oblqqJnlwH3gXDgTUms3x00js4y0Wixcq7k8y4C7WubLEiC3nr5+1Tg+NtZqjitxQIhlXquZsfMewC7KMs8bWa2W5Y0cp3yHDThlzmVZFjU06vXuni5HlvmsKIOVmuc+Q0/nhcACyjhGRkDg2UmEMAQnQo5co15j44glXBR9c5wXonbXvfc557mohlZzaLS5bv2GWqXPe+pOpx9/4Ffed8ALn7CTyxwRDY0Nv+pNb+rr6b36D7+PBE+HSktzKLXnRQAAEABJREFUZMSc3niMCGkn6bxRpskfZPKr+JjXEJYGi2O8KD0T8naKWKAmSv8hxbKM9Zlgsnzt1X/o7mm86IUvGhltUifkkr/gydt/6Yh3nnHC4c/cZTtvceO6NUs3rF26dmS04I3NdnNsbKC/t6+rHrH/VhvZOAycO59leQ2Lc4xVVx1rrVXtWIQAjFYaa3lNYxzasL5erwE6tTwjrNveZ9632+2ibGOlL4tgqq32eHNs3IsCvCycZ3kkLYoiOSaOZVkwu2KsDagXoYDH8bUcemPHUYYKlXkN7qIGwVrtCux7u3vgHYhj5nytVqeMzHG9kaOykeU9tbyr5kPVVsbIWpalYx/ErR9uLV2+dmqND9j7RWccf8BBr3jx1K46Jnl0fGyvl71s+pRpGzeuJeI03ailFIysU055PI9uQnESx60u4F//48IIYX8dg0R2M+yRhRki/V8JaELC7u677u4bGHjhi1/SxDVehywj/+aX7IF7sve+4RWDPdmKjeuWrRkeHinKyDXy3rhec7imy2pZKIrxst0qqsq8dzUslVUwYnbm8izzkufOoyFj7yTXEKJaLWu4LCeHFZvYCXYNQHWr1faZNDLnhKui2d/XPaW/l50rYuUF7RIsxrLq7u2u17qqSmuNepY5qXmcAnKXNhehbGMk5GGLEdQmZVmRZ/H4jlDBLyiUdVkRqmZzFI4lFOaIgvBtix+6/tY7x9o2Z+Zgb63eakVfww4gFq12q6K2xjUbm+vHm63W+HOeOOsbJx5x7LvePNhdwzwNjW4YnDrjtK9/ndMOg4wUlQzH9qjZflQWjZM5Ytons3qPJ91gggn+wCGkxhKKlAgHYetkCIhLGZypYbFjreLNb/633Z/whNGhIeZkrkz8zr2e+73PHPFvL3jqmtVrH1yzbsXaobKqhEqjCotkC9CKlRZtgBUbcxaq5XlPdxfQFIGa0ZaWBdAg3mo+x3G9XZbEPF60lCqfZ1XEEl/VM1e20pEcohRFi3ABwFyGwtVzV8uzvD463i7aoa+34Z1r4lQQYs1LlmdM1KrGxWJrvN0uogaFWxkviyyrO5eLc1CYJYMvaniZPtDbXeuC3lVbLeBrHrERYF+vNYjx5iJol/e7bTNnxcbxj539vZO+84uW8U7bz7KisoqKWGYWIhxJ0bagVRU3jJZLlizbcVrvNz/6nre94tnwI5D/2Pe97yUvfgkEY5MqVIQchkQkbF/Sy1ICwsdo/O8Sa6sL+O+ayf9rPkYG82M8mzKJU+d3YaJMUa/RUIfLbKSeZc3KlTj2X/mjK2CrqDGzPZ+y07c+dvjrXvLMB5atfmjNcKuIZJxnmTNvkmeS11wDUGcSrHtpT84ABvDMGqNWMa/V6/VMHGArZMB6AObqjVod/TwByBSx7XAOohhVIQCGmZdGIzfizHnsRzSqg8cQIJkr02a7XYCH+EwIoC2KMN5ueS/Ya2RC3nERK7a0/SAwFQI5IhRZPzJ27V33/+WuJRvHRmf0982c1V2vOxJfxQgsE4Wi1a55n2X4SFn01Or7vGyPA1/1gruXLPvgWZdc/Ms/z5kzvXdKN7xWEQMcC/tMzSJBJK40jjVHFy1f/drnPfMbHz34CQtmE9Efrv3j4NTBdgHZMo3QBnWGhxhTT9RJJiaZJm+Qyava40ezTaZGsLlkgBNPpxILERZacXhPmGL41nnnz503R0OkTpjR2/WVo/Y/8g0v27hheOny1TjO5g72a06c8z4CuxqVsTBWtcyjqcJZoLsBB1GrNdpliBrJy+jIWIjY6auIF1cLuLEnGh0dHR4d7q535+wSzMWIkcvyBi77ahg/xHTyV6Lc5cRSEvxJlTEN9vbuMmfe7tvN3XHO4NwZ06YNTpk7Y3Cge0ot646kLXw+NPEuC9CJnZB552pZ1tXVcBwHGtk2g4PX3nnfZ77z4/efdsk3rvz9mnZzwZwZ03obpKrGzKRizRJbG1kzPLJuqHzJ03f98nvf1hD/yxtu+9J5P2rU8hnTe5jSPy7AI0YOghtlnJE6dfUlK9dyWX7s0De/7cVPxzxs3LCxt6d71fKl4jDjGgjzDMnwStFSgvr0mqzPVhfwL/5ljZjSPgCWp0kUSwnZJrNj7NeNInV+JqYPfOBjhxx2SOiQoO7f9nzyKe8/YLAvW7NuPRGbELMwcZ5npQYlQEZIgALKvLNggTlzUlVVuyrKdhGKWIXoiLN63tvV1d3dE0IVQmkG/+GyPEdzqEps14mc41oIVVVWsQjYRwCKgi0GMbEjCKhuzmDPDnOmTentufP+B87+6e9O/NYPPnH+j8786W8v/tWfr797YbM5NmOgb+7A1FkzpmcNTyGyY2wEyirEiGhlURlxLW/sMnfmZw7Y+zNHvG3+glm337fs8+f++NPnXto2mzV1ioNQtVosohMvnqFvGdpL149Mr/Wcfvz+3TV/77rVJ577w5683luH+xOfZ+yo1LLWqAXMhljN2JODx1u4ZOUbn//0j+//WkyjRpszb8HG9asJrelcw0IpcOz8DJbyk/iZUHYSK/hYV40hYHpgfum3SLCAN0DlZstTrGIxAs+77bb7V7/6JQAOjYDt+97y6je/7sVrh0Y3bmy1sUA6UXMgrKoQLGZealmtu57Xah6swbJVYNGPzjmKnLmsUfP1rjrIWKSrVhsv2sMjw+2qyHzWaPjxZrur1ujr78dAmUoo2sahUjNsJfI6M07LJE5y+I5aNnv69LnT+v72wLL3ffOyI06+4Iwf//E3N915zwMr7l++5rrbFv32ljvOvvL3Hzr3h0d//TsX/eZP64fGtp85Y/aMAe98jNEsMjGEyTwLHIpzSzeO3L90zZyuxvve+qpP7PcGKHvfsrUnnPa9JWtHtpnW610sQ9AQnFrN4fIADi6sGNowPF6cetwBXT5fs37jVy//w5zpU3q7POGUYwZvoRo1lIy7zlCKEDYgjhvLhlo7zZ359cPe4n2a1MFpszYMDYEyz5J2ZEqOMTp1kpR5DDz/EyLI/wTTrTz/d2fALFFaMrMJSzNjZkIknmghjgm3T33qHvfcc3eXyyJLRnTaMe985hO2X75kTasVVchJfXx8nELIE5DIyIVKW82RdrtVFSGG0HERXPeeCQd0F2IsKy3bZcZZiRAqxnhmGedFhWDAOAs328VIa8TXvOSOSJxjtlAE3OaZKcjKmY3umYP9v77xzsO+eNbpP/j1irUbwAYmVXNZT63Wh8vGRo4hqBM2DI/++q9//9g53z/hjAvuXbZ8Vn/3drOnd9W7VWMrRDipUGnVbtcce+Y1Q0PrNm58wo7bnPWhA9BbzT7xrctvun/prGnTnJPuel1EgGtyWSauXsuHm2Pwkh9+97+R0N8fePDXN90ze6Cvwj2lkReGvhDfKiWcRAoMpsQKFR5aPzJ1+oxPv+dNjDGIpg4OrhsaMgqpyEJmnepJnuD3muQaPobVM+JkbITENokJ7G3KwVoptTjx+++/3523/c05X1icO23wy8ce3NvgpavWkOdazXkvA93Z3Ol9s2ZMrWWewFNVWF2e+xqgwqaRVXEfRqKC6712WW/Uo0bCuIA2UbtZpHsC5hBKiwEX+I1GrSrbQqygi5pnNTAJZSDhqowUdXpv/7wZU6++f+HbPnfGRb++tqmEsOuC2e9908vPeN8B3/7wwd/68IHnf/jAb33okJOPefsnDnzjfq/ac5dtZguIiBavGvryJb8+8CvfvfaexXOn98+bPtDfyJkd/kojJ53Te+aLsnpw1aqeWtdnD31Tpx+d/INf37t41cxpU+DBzKmZ4yKUVVWqNbryNWs3bjttyoGv2QvE3/rZ1auHm7OmTYNXqQzzJHkG5U0EF4TRQlTFQciIaeX69bP7+4/e7zWYDBTnTJumVUSGVBUzCV7wqNR5Un4SPhM/yiRU7PGgUrK6JCdWG8YzYWidSkvV+G0i0fkXXnzJJZegHGNoOP3Mse8czGW8siwDbF13I5s7daAM1W//+vcr/3BtEaS7u9vgAlwWVS0AtqGW56UCxjkZj4yOmVBVlrV6rQyh3W739fXV61m7GWpZXpZVBgfAEiM5l5PjnkaDs6xd4qihMahVNnNwyvbzZixes/64b37/W1f+0UWaN633qDe97IKPHvqZg9+8y4JZo81y4eq1968cufWBlavWbnRK86ZOeeETdvroAW+4+DPHfubQtzxz53mOkgxnXvart3/yrEuvvS3PspkDfbVG5pQDWa0rS7NgJCaLV6/cfkrfR/Z7HWaAjD7znSuhQqPmtQTsa5aLOMcWhV1R0brhDXs9Zaf5c6cpEZhnzA3JvWTwLmPjJZuYRpd7fP9wkmd5AweHvHLrm60nzR14y17PIaNotM02OyEDb2GxSoMS49fo/Dyd0qRLYGaTTqfHnUJptUk2j8XHGNYLQ7T0MhoaKw5+935RYYTU01U/5cOHVUPjD6xcXWmY2tM3Z3DK+o2t9536nfd+/aIr/vBXyrIYi5HmmOBbQIjNsSLLaqEqcOvXRhIDEC7EjcwLSYgxc2KOLIZare6c4Vze3d8HOapYATTtspUT7tKUKbbaZbMoBqf2bjdvlvjsC+f/5LPf/cn6jcN7PGmn045918lHvOPpO84dHR1ftHTl+FiLOWLvUXexJ+MqxuGxsbUjo8Pj7eVLVy96cAk+DBzzpleeeuw7D937xbMG+oKGn13z1yO++u0fXX/rYO+UOTOmmKtVhhkRgpBlrApetH7kKdvPe8Uzn0SdcPLlf+jp6VayUFVeuZZ5Fgntolb3Fqzdbh33hpd7ovtXrL/5viUD/d34fBAsdNUyqcGvsYcbCFUmHMomsWldyrH2xpHy3a99yW7zZ2GE5SuXnnDCcVSBOMO8I8IHyKO3ZyD6J8b/6aEw0f/TQ2zl/781A9yhYhLS6NKLWmVrWn8fIRj1ZrWvnXDg8Lqx9aNjO+8wf9Zg//V33PfuL5z1kbO/hx3ve1691/kfPXLv5z1LJFatyjmpcGHmWGOlEf3dwJQBj11DntfrDXISNQI5eY5VV5pl1WwVBfbTVSEajaldBRN0hoOw3GVMPGugZ8fZM3pzd9kfrj/8K9+6c/mq3baZe+p733Hs61+E9XfRmvVL1wxtaLbKSOwyLKHMFLCamxVlIU4cuSrGWiOXTMaKYumGoUiEvcCXjtj3q+/d72k7L0Dxx1ff9N6vnL16w8btBmqqVc6ut6dRWVXz5LxbvXF835c+Fy4SyqxYs/Yv9y2dNTAAns0YqrIqyhKDZrgZZBkeqwb7Gq95/lNB+Z3fXive5V5aVRDnQjsWVSUuq6pYlJAvtlrjY+NjPX29VaA7Fy06fr839ebwHvS1r596yx23Avxgy2DUwX/KID/pokw6jR4vCiUDe7Ssm8qBCOd45qh0xJFHkpZMlIv7zGH7SNHKMrdg1pRrbr//4M+ecdZP/1CW4ag3vvyijx7+nN3mrRkdWrV6Q+YbvX09rWaT2RpdjWCxqz/9MdQAABAASURBVNHALWCsqqLV9o69B+eIoEpwCh4cASxnGfvc5xnMwTShyggtmffT+3u2mzOriPL72+858rTvXP7Hm3aZP/vjB735A297qZkuXrNhbKxZ81m9nmMjwcwhtkOAIzHxTAwfpJ5EwBabdTXG589ImZPRZrVmpFi9frg34/e/9VUf3OcVmIrhVvXR8694aO3wQCMPMRStVj33jN7sh5pjOCW87aXPBhlgeekv/9jTU68lZUolYXbsM/GurBLM4dD23uOJGHPjaOveh5Y4gaTYVTGAnGU5RU1nJYavg1vAcSm020FFdByucPyYd74hDUH0jOc8j5FDH8KAlPKT9DCAiYKiW+M/fwaSUT08qlEyMpgqOYpG+FXKsvWd8y+gjv0d/uaX46vb8Mj4SFl88LTvnfOj3zRLev5TnnTJxw57ys5zl21Ysy5dxznJfaUayjLLalmeF+2S1GHdr+UZUXTi2ATLfahCXsvLGNttJFq0256868owbrvCSip9PX3ALzCcm1x7210nfPN7x3/jkouuuvHJC7b/4lH74nJuu6lTNoxVrarMzDliD5SqCYsTznxOnPRQ07KsvM/aMRBzzs4x8OzgBFTN0BZC1DDULFas2/iUXbY5+Zj9BrsboYxfuOg3ja7enp6acznYKaYmVM5s7cjoi5+8G3MaZuNYcd/yVY16JlnNCXwMQYYS2kSoKZX57t7uV+/5FMzeL268q7e3u4vJjNpRowWcaMqyxUZq2l2r5a42PDbU8IzPjOPN4mnbz3rq9nOImKrmscccR4QcInoj9w8/GU2WAGObLKo8XvWAjXeATsScfg7XsbTnP3dP6oTn7LoDtrUjzfElw62Pn3PZypFRyemgvV982GuevXxoeOWGcXE+aFG2x6syrFm3gZ2UZaEKsGBNDsiXFYAfARBYf1brEvFlu2RVX0urd95VzwHPshrsbcyZ1lt3WVG2128cHdo49pf7H/jtLQuftuO8U456x/dOPPSEd79+Wr228MFlKzduEDUWV1goNRRlyPIMuM8yx/AzZpL5ooguqzEZ/hQBKmrEiHktZ6a8gZO7oIgDS0W2ZN1Iv3dfee/bG941i9YZl/9isKsL3zOxY8+zmoBRLbNYAcvP3X2+RiXiP915/yAcRXcX0GlRwccJu1qGZHh0dOW60Vc98wlCdOcDS71k8AJAfM6uLELusQtxMZpWsYgmqmBTxEjOwamtWL3+2He+Mf3LB6LTTj/VVPHzwFngN0EeutA/JfwzB8Es/TOH2zrWo2cA1oUiFiQDKpBDxEJFJuvXb7j51ltRdHl24sH7jLWaP736llO/9zMjzYhPOnifVz5ld5yoS5Z6LhzMiQgez86zsceyzxQy5+p5Bh8AmOb1DHiLAUfnQsQcls8sj1U5OjZuGshJ7vjnV9/827/ezjXecea0JyyYvuO2s57/pCeceew73/WK57nMHlq94f5Fy5dvGOI6cCoj7QKfEgtwNAsMHvA5AFWZOXy0z4JWPV1Z3VOW5z73ylJqqIrYbLaIsc0xR+Z9TsTeeRfhKHRjazzzctgbX05EN96z9Lp7Htx+1nRJ+3eKBCW03S5aRfv1L34uCJj8dX+7qwoW2s2qCjEGAduonrETynAkKVvF1N6eGf29gPadCxfnuQSLtRpk8Vmem5lzVqs3iqIsgqlh48K58xartePt7sy/4+XPwSiIH3z/+yEc3ApoKDloQ+Uki1tdwL/wB8XSQmQARSfTEcQ5h/Jhhx/eKdHrn//UGb1dX/vez358w+2o8Sqnvv9d06fPWLhmlYRAVZX5ejtENqm5Lo7W391TFRUz1jYW74h4rFk0uuq1rJ57Z6rNos2EH52rssgdQJpuANElRJo2re/3f7v/+FMuPvhr5/3or/esWdfkjMfLVqU6u39g3tS+bWZM2XX+vF3nzNh5/rzdt529+w4Lnrb9gh1mzdx2xrRZ0/unT+mbPnVw9kBPnvmpjfq8mdO2mzV9wcypMwfSuSLPMqqLkxxwgrSMAN/VjlUMWNMpBCzta9aP7vHE7Z+8APtwOvfnvwkV9gc8NjpWtFuOyWX5xtHxvq46pzmrRopq5bqhBtiyCnt2TkRiFcabrUaje7xqk/Czn7QLEf35lntwU6HGRYjYClWxIowOPIt2dTVqtVooK8WvwK6nuztW1T2LHnzVnk/PmPB38tdPSbsMMyZlJsMDjpMryuRS53GijSUrRpLE5ZQ8+lGlK6+4HDVoedtez7jomr9dd/siFOtOvnzMO6fWG+s3rMvESy0PakVRBLwYptt2LGwxhHZRld4nSLTLduZlbLzZbrWIpAZw1LrYJJQgUxEmR1W7Yk/Ybjxv9+2+ccJbj33LK9pt+tHvrvvgOd879Ivfeuenzz30pPOOOuU7Hzrzhx8464fHnnrR2z915qFf/tb7z/neMd/47rFnXHLUad896KRzD/3Ktw/+0rcP+tJ39v30OUd8/aJjTr/0vSd/5/BTL/zSRT++7paFLdN50wZ2njV1Rl+jLApfw5qs8EEQwEFkgyPLHHO7Hcbb1QFveAkRYbtw7d2L5+Nyv1ZT7Fqcw7Sgvr/R9czddkAG8YFVa6f0dVcqtSx1NzWltKNoxbYIPGTcZcF0kK1cPSziath4mGKa4BdDgS+mzbKqoloN5xLhPMdVCESiRlcjRA4W37rX043wE9k5557HCHAI4JVq0msyPVtdwL/i12SCRSGhTQGH2c05oj9e9fMIe3eyx5N2WT3cOv2SH0+0ffKQN2JFxSV8rEIZKiHs6Kkom1jdDewyVLCadNW7HPsYtMLXb5f19Pfg/o+ZArAnLlT4Ct5q1HOsmu2qima1Rr3Vbm8cHhsuwoo1Y8/cdbuLP37w1496xwufthuARWRj7XLNxtHlGzeu2jC8eni0HcK6kfFlKzauWjuybM3G4fF2C2AqKlCKTys69Co1rh0dXTc0cvPCZef+8poPnPGDAz9z1kfOufyhNUM7zZ27w2B/d1cdMkeLwGwrxChcVDjCVMtXrRns75o90A+Vf33D7Xm9u2WxnmfNqmBn8G0hxBc9dWe0It68eJkp52KVRTg7eMLI4jM/NtpkLyPt9tSu9J8PXNNERbO3p66qWa1eVUUZ2jNmz8TRqNkax0mARcoWRsCxpowh9tZrqzaM7LXHs7LcEclnP/t5jKXGUBAjIf8/FP9VbLe6gH/VzD96XHZiKMOImfS0b56NPEV99ctf/Kkzf5DyRO941Qt3mjtn6dp1whbZ53lWFlW9ltcbdSEWmGfUjLkKUdEuFGIVYyUCxk6EsClgMsV3gZrv6+nNazUREwu5896Tc1xrZK0ybhhrPrhiFe7ScseHvf4lZ5945DdOOODAVz3/qdvP6294EmwcTCjJqkbwHTvvuGDGYL2/m7t6sdf2PWx7PnXng/Z73bve8JIXPGM3Tg6BJkIpdN/yNZ/97pXv/sLpl954++j46PYzZ/Q2uqKnRq2hWHi1dJLXc1xm2Kue80QiWrNhw/qxMU+axiNutcuocXi0tf2caWhFXLV2OK+JcxkUI/JOJGOJpI281lWrqdqUKb0gq6IGdoFMHNe9b3Rh+9/Ad5CMHOZEnHjPWZbX6h63AVWp5POiamWkg1P6iHT5sqVm1HEAJPCz4Di5okwudR5X2sCyHpGXgRcvXAb90/V/gcU1av6GW27fMN4CyW4LZr322U9Ysmp9Jhnut2IoVR2JaKT2WEHiyNhnnhxlGW4BtKrKHCZdq5vB8tXXaszCkrVa7bGRseHhobKsUGyH2K5Kdq6Wd+UeG4fQqLnMZ0XQNaPjDy1dObZxWCw8/6k7f+jtrzr7I4d/9yMHXfjJI0/5wNvPO/HgH37hPed95OCudmvN+tbwuPl6duU3P7Fh/e1/vvlX513wpe9e9vVrbvxpbN2z9vZfXfGNE1+x51OSetCErBntB7/6y0fOvvJTl/w4y7O506fgIwRW+Nw3TGNVxY1Do8/abXvQVhBjeLS/qzsy1er1PM99lo2121Pq2bS+bmJatXL1WLNNTvLciZCSNbobXjzmQ4NiPfcObFIcHRlzEdWuDcdZBWbBPWBl6Zuld5gzHzUyWMCDePK1rNUs1fjp281NnUl/dMVlBP7MneJkS2SyKfT40cceZVFG1AGJsfHG9evZaHD61F/+4XrqhENe/4KRkbHSqAqWQgRZJEuHX6x3MH3xUpUx8/UqxKICvDlUsTlewDWoaVe9MZ7W0BILYH9Pf17PsAHGeFVZddd7xPm0N04f9pwTqTQ2i3H4GnF5UbY2jI4tXbNhybp1q9auXztUjDSrufWu3pqcev5P3vWJM25duhZK/P5bn1m78Nev3ucVbnRxuOevxV23t+/5e3nvzdWKe6Zt0/2mQ97y6z9fUo7/7daffPMFT9/JRSL0Ibpn0fLDv37+1y68Unw2b7C/kQtnrru7ux3KrszvOG8qEd1yz5Ip/d1lFVrNlqqWALAWWV5/5u7bQzVMYLNZAf5mzhF7ptZ4C2chUBKnCVHl7twT85qh4VrdETZB3jvmEEPm6+DgxJnEZrtFIhqq3XfY9k8333vXA0tmTpu2YWzkaU/cETIgnnL6aWQk+JFQmHRxqwv4l/2kTPzwPoCx4xSFKIYDQFTnudm5wEPN21/6vFn9A0PjLZFIoj533uVlpVi8VIECFobHICbD5t8xLN5qtTphNfMy3gZyaLw5KpLIBF6DYu6yOna97GreFWWTq4jlNc8zi3AfEXuJrkYvG3YbAXL01ntreU6ctVpFoyvLLd68bP2+nzzv2sXrMeTzdlugQ7e+YP99aWQ4LlkahyvPNedqua+LsrXMVq8qH7g33HGnrln+lJc+4+rrrmhvvP4bnz5sxrRuqMaR7lq+7uiTL7746ltwEpk+2N8uxspg68eLVz77mVjzr77jbo/bCi9Z7p1wljvY68hYc/dtsD7DA1Irhq5aA7jOG3WHz4vGXHMhVKpRiaWjNpk1i1ADyIUrtFURzT6TVtEeGx3NfBbUapnr7eq6d8mKP91176KlKzPMdQhTfIOJIeetf00faOFckhPQlKDyvyU+FphgSh8LYmyhMnAyMOhuZOqAb+I8y1DWYMXIWJZzf0/Xq56167qRsaICpNAiIVie+xCKooztog2P4UQYJg9jZclrvgcAZi5LXLN7n8EjqBnO2zUvWOFDhNsQynJXharR3QVgFSEAKwH3hGVZlBWROWZf86oKmla75VEjcdb0waFm8c2fXPP5b+N60jiEa6884093XR1G14aHHorDI9G5pIYBhQ67avCE1wnBOcmo3uNbVbnwQVt8j2+OHfX+Q1cv/8ulp5/Y051rJKX4yz/99ZhTLrxv2ertZs2eOdA/3h7fde7Ai565Wy4Ed9DdqBXtEpLDvzA7OKNpAz0CtkQaQlmV7apojo8bY52O7WbhXY6Weo5ln8fbgRzDhTB5i9pVyxvd9a5anaNOmdLf1dU93my7PAOXmQO93/uByLEdAAAQAElEQVTp7ykYhqtnrlW0untwZ5kAP9ocS25W4GaJkNKkCjKptHncKQMDM2CAYctEuGmDAkwoERUBGNTXPWd3yXwVSiCpjGQWHTtjwz1/d1ejlmegbhYtU8NVeVWVuPIq2kUoi5pzTjj33pTAYaQ5rgmchMUdfM0My2RVxBDUicMpAXy6u/qEyVQF9o4Nh2PFcmkmzhWVu/XBlSd+83t/u+cBopjX8tFl1zz/1S+J9/49jLTqMaqpBAX6A0OdAMeEggco4T+AzFCWGi2vxUA6vDEseqBYuWzf9x44MnT7Zz94uGMgliD/Vy7+2YfO+eHClet3nTu7p7vrKfNnPmv3HRzFEOCtarnLPavP8sgSy8hU9XfVMHBZVGVZEksb3kogrBBcmHho0SxweMK+ylCIFtBQKOYG+ykqYtVsNoMqs9S9B8HG0db9qzfgB5g1OKWIMc/qPfWaoEzEjDdmiMwIISXpQXYyROg2GdR43OpgxITfwCS3CvAEfuAK2HsSn2FFetVzn7VuuBnF13KfJfP2MQYj8srNEt/JxDyLZDBkNiVVLNycsQMtdgbiyqqyGL3zjSxjMjiZWg04kvFmO6/l7Ki73ihDVbabWa3mc0cY1mfjRbMMbYsmWTbY3Zg12P/V7/3k1Et/rhiYbMaM3vEHruoenEYL74mVZRTb1Zi4LEpyTp6IVcmiEHSBShoUBxtz4IzxnWOXU6bSHmvfc3vYuOFjXzq+Gv3Li/d4EiEYLVmz8SsX//Qr3/9Vxvnuc+fsvs2cjWPNKmrVCiEGZq8x5JlXeAGinbadM2vKlKIq6nnODO1NmDz2ALVcMSPKQyNNcGWivp4GK5OphSREu6jyLIO7ELYQq1iVM6b03P7gkqIKoN9521nYXom5kH4QVHBecx3VkVc8YIhfDZnJEWVyqPH40gJmmEwKQsNykSKyAfeOCL/H/PnbaKCqqmCLWHZGx8YUhbL0pO1WO8sTTVFFr0LKMNNG7kKw7rzLSImtKgI76ao3gGxSBviKdpNYyLlWWWExLMpWljmfZ1UZoxmQUO/uN9WyiOzAKjqPxoaIzRvoHhgcPPLrF24Ya0PGGX31/r7uW374TRlw1YN3l5BZKmNwYHY1DB3ZEBk3BgzEGWdeMDADr6oeuAWtVjGo1sgccwirH6ruvY1Hh/9ww0/uuuq7MwZ6ku/w/Nd7Fh/4pfOuWbh8923mTe3u6Z/ST8yS5fADuauZxRInIKVpPdnqoujt6/bGAHNvd6Mdq2iK2cLnPa7JQ6vXQGxM9RTvxzUkP4vRPTSzqiwrhnBwguljYK2r98JfXUuOMse9PRnOHYMzB667/R5Ff7LtttkBTJRJUtdOHf3fh8daT3msCbQlyMPETASrSsp2Xgx0pEJEcvhRh3fq6LlP363VbhpxgF1HAqIs6qr1Y9j+q2Nyhq1x3WfpJxQLTqsCRFyv+/GxsfF2OyociGYur9dxZPCefcN7Uenp7vUEf0JZxiwsQj6j8Va7llFfb5flYuRqGe8wf0GI7oRTLhgeaxLRYXu/8JXPemqswtT5A7JhBHjwzNEM2wwhCRFbcWcWxThqTM7IWKMqMSvcCxggZ8xYih1jw0LRmavldVbXXr26uvumnZ+9y6oV11908vu9OfJSafjuT69671e/e9+qDb2NbGZfr4VC2JUElm58vBSmrnrvnXcv4li0QzkOp2ixkee58+12MMkGe3v/+vd7MXAm0tXbVbbL7pp3WQ5Z2TGzbxChXGicM7Xvz3fcPzxWUuSX7vGk7lpXO8SeWuOPt9yF7oj/9pY3iJEghxkljobc5IlJr8mjzeNHE1gR4zEygCKJbQjUMbOjjzwir2eZuKfusn0B9BPolL0BXJT5hUtWhkqn9XZ5553aOJb4ElRYF4us5sUxEddrjbTMi+/KalnmgEkFSi1670WEnQSNRYUlM1Shcrj9rkJ3+ufGoWhV/bUaVuPZM2Zcfev9h3z1W8s2jgjLMfu84m0vecEti5ePtYpWsyB4CJUKXyWYHIkFEoE0wgyAEhP7rM4CqGCDIOzxISKmHYtCRTOKxAQPAF0rqMZcwzZGXFy8KK5Z/Pb3vqu18boPHbQ3WohoPLS//v2fve/U749QnNU3ZVqfy4gqfBv13jlmJz/449+6+6aI81151mwXON2Pt1rinJgyy8I1w2Ay0NXoaTRCCKqmBGFNhXydarW8XbYXDPYsW7vhjMt+RUQs9MKn7jo0Otbf37N0zboH16SrASL6yIkfJybVaMzGcFGomzxRJo8qjx9NjGBReIAHZAyIIGYWpk72ih/+qGhXed1P7WsAq5nL0ejIN9s6raeRefr6lb9ftWF4sK+7p7tez+t1AJ4ACK65Gu7JgGryEmDnjlRsDOeIGFqtcVyzR7IyhgrnAnEWYdMAU2xXpXjfaNT7e7q2mzMwpbfr5jsXHfe187/5o18QEZN87KA37Lnz/LFWe+HytURU63YUAbDomdQgmhBcEZkiGBPqUiZEbLRRFwE7g2oKZyeCduccOZe6RqMKpBoDxICPyxldHrifW2MnfeOkcsNf37L3XqaMOVozOvL+Uy/+7Pd/Nh7c7Gm9vS430YGuWhWsKAsx39+FzbxM7e3PGhkp99R8vebuXb58vJn+YdWuO84zC2qaDghszglkLJthrNnaac7sa29f9MFzLw8YhujQvV80o7d7/fD49KnTfnz1TQoJicT57ka3IiMQm9gEk0KE3xCTMRmiTAYlHm868CaBuWNMjJLBcvFKWfrYJz9LxE/bbae6uLLUVtX05EjY43tYEV/0jCf31mqfOO/yc3529Xipc6b2Tu/vHejr7smyUBVkOIyTFcFjcfdZK2gVo3OZc+LBgHAucEp5UeEbI9Vrten9XbP7+uZM7e+b0rN43cgZP/r9QV8474yf/G7V0BiM/InbbXPK8e8Y6OlZNdxcvGZ1u90eANoGZ4XRdMqIrMoJWQQ/ABcQohPHImQWg7FzzntOSEEz3AUrYGTpXo2VVFDJxmLYLEBbR85nUbFD0Lh2KD5wl1Sty358Vnv179/52mc7Y3LywNLV7zv1u58468fLhpvbzpr+omfuWmvUiLCYZ5XGZlk12+3YLh3cXywH+6fcdt9ytGJG93zi9mNN7JRKjK+Qzxyb9E/t32HBnB9ee8tZP/kDoYHp5U/d6SVPf9LIeHPm4JS7ly677s57cgED+uYZZ0CslE26QFfqvFPT//7zWKZMqj2W5ZvcssFAk4JGTJt+iHUb1i9b9gCTLZg5ZTz9M1Vz4gDhDKu/YC2rYgwffPtr3rLXM6+/477jT7ngiK9994prbxkar+bOmjNv9sAOc2ZtO2fG3GlTpvb19HfnA135nGn9ODXMnDKww+wZqBzsrS2Y2bvj7Km7bzt35vQpqzeOXb9oyVe+95uDP3nmF87/0R9vuQcLMxHN6u397KFv/cQBr8uEhjaOT+3v+91fF0LKvffak7tyqoqaALTkmMSJJDXEuwybZMPKyeSIRESDkmMhBgXQDcoqAK0AnIKVMOOIICbicJaQUFWEoKLojHTdxuK2m2tcu+hn3y2G//zJA/8N2Eb7orVrPnHOD7543g933WbbGdMGe7vq282dMTAwJXO1Oi4xsbtR5SwPkX95/U0YBVOx6zYLmqMtx1mIISfOvN9m5rRM40fO/N7lf/wLeCLu9/LnvO21L162YX1PrdbdlZ91+e+MKOAhd9DBB5BT+DWQTUROr06SMo/7Rx73GkwCBR5lTmeediYbTJeestM2o2Nt7E+ZBVBqNrHjBToYy9S6daNvfsGzPv2eN82bO22s2b7ymhs/es6lb/nEyYec9O1Tvv/zH/zxxqvuuAcO4m93L1031GxVsmT92Ei7XLRy7Q13LPrdzfdeed2tp37/V8d+/dsHfP6cT53/o3Ov+N3t9y+qMCqxE/fsXbf72mFvO+nofWf01R5Yvm71urGuboHj+cWNf8Py97bX72Vj41i9K8FaL0okylEtQcSUKf0R1nbGThnltOAaKxQykJI6hwY1ZuI8GsfIoDX0RzQD5pB4YNiRy8k38nLNQ9U9t7iy+NS5Xyo23HD254/sr9fxg28Yb3/22z8545Kf1rP6yRddsWLVuh3nT3M+RMfe5V1Z7bc33NKuFAK/8cXPyzOHI0c9d13d3YM9tXkz+q+7d+HhX7lw0Yp1YIV42Bte9upn7l6021Mb3dbTdeJZ31+9Lt0CqNGZ3zrLc04kxEwMfiCHap10siQyWRR5HOph/yAzSojfvfgiY8pzmT+trwplw7PTGEIkDVUZgqqFGCU8uHzN7CnTPn/wmz918Jtf9tTdnSRg4AP69fcuufKaWy746TXn/vyaM39y1acu+NH7Tr/oU+dddtyp3/3UBT8+5xd//P4fbrz8DzfdeP+SFevHzDrAJOqu+adsN/d9b3vVeR894LC9X9RV1+Vr128cw4YAe/Nq7tRp2BWXnVX6Za9/STqxB6EyQhAzroAMuA62qEGBc3aORcRrNCGAHPVEUQUIMnJIxaFecWlBJJ5BZuKUlQ1OhdhJICPs2QtNx27fMM6KtWtH7ruhGhs/9H1HDQ3fePdvz9vrWU+ugQ3R2uGhH/7xlo+ec9nXLvklPF7uXVdXY/aU3kuv+jMm13ue199YumIteRyM/PZzpo22y8+ff+U3fvCb2FF9sL/384e/9Wk7zRluVQN9/fesWn3sSd9asmZY0Nlo1qwZhx94IGNX0ini10FMWSayiSxKj/uYlH3cK/G4U2DCfmBJmyWPBsMnHNwXPvAAcnP6ezOpjY6Mt4F+4LuWZ3nN+SyQRpKyrMRn69evXbl6w7xpUw5+w4su/djBF574nk8c+KbX7fnU5zxxh+1nTYX1Y12vZ37CgDePQ/AhqJk2te9JO23/rF22f9srX3Diu990+vsO/PC7XrfrnGnr1o3ft3jl/avHPGBZFeJcDeM6f8lv/upJ+gZqfuo2OKs7fIpsdGU+J1AQiTAABVrnnWqIGIyBayJmNWFGwZz3BN8mDuUYzTtBJ7ggvBxxamUlYUQWZ7lEUVUxDanKfK3IaN3aYuHttGrZrns+63c3/rQ1dvMNV5x8zNtes83MqUR0wz2LLv7ln35yze33rll9x/JVAQ6kxh8+4LX7vuWFu+6280BfV9vCaRf+9NgzLr1tcbojQJfd5s88+Zh3PXG7mbPmTHlg7cgxZ1540gU/aZcVmrD+z1+wzUOLFxlvBggTE+GeA62MJ5XS6794Hi9NmzV8vMg7OeTsGNFmVQwZ7FkBlxtu+gvhoxXRc566SwzpH/DVshy/UIwh886ZZuJ7uhtZllsIWb0B6KwaHn5gxeqFK1euGx6dN33grS/a46jXv+SLR7zj7PcdfObx+59y9Du/euQ7Tj9+v1Pe+86zT3j3dz52+CUnHnHeBw85+T37fuQdrzzm317y+mftPKcvW7N27ZLV69ePFGah3shnDQ4AeXlXHSNuN3fuFdf9LP2ciwAAEABJREFUtVmW8D5nnHg0t4fHxsdCVQVs3QnrtLEHcM2w3WfTqEkzUxQNyCdLCIJ3Qzu0ZCakpqhEpESFCkA/oQ7M0K6oVI0xvcGAGcwJbkI9M2bA1YrR9ui9fy9u+zOvX7zHq1781Uu++uCDfwxDf3nwrxf+/JLPfuaDBz5h5x0/ec5lHz3kjeWS6z576ue2eebTX//mF7znQ+/54Cfe+/ZD9umr1+Fx9njCDt87+X0fPvgN191667d+cc1hnz775It+vHHVMFSB/C7jr59y6kMPLs5r3ZCKUoDcWPmRm1ABmckTYWCTR5nHkSYdm6JOCqsjQJqFL/7uxUweWkzt7R5vjuN2H8jDimsx4ja+iLEK1ej4WFUUtVqm2F6H0qqyJlRVNNosl61efe+KVfetXPPg8pVrNgxjQRsdb1UUYrvKxIp2uWr98ENr1q4eHkK6cPmaxWs3PrBqtGl5XushdoxjPXO9Oy9aY7D0dlunTmksXbP6it/eQJIk3e+gd9iqJV2NOiQGRiPkY9Ooxh18kqKXGTY02AdoehOJg5sSJxmRxphO54lRxDZczUDGToRJNJqROfBBCbh3jI6gjDH5A0yTZwE+g5oXgxN0eRbWlcXChdUtN4TFN7uRDdtut+B5L9zjxa973iGHvKFY9sfPnfZxDkNhyQPVyuWh1azWr6Ni7LCD3jS86Ffrbr/szK+ccPBHTz3wU+ec+9PrfnL1bRvGCoJ8ROD/3vcc0G61jjv2GO4gg9GQYnobQxAiZBE7WZoUoaPopNDk8aQErLsjbrKlTsZluAWjK3/yI6LATNOmdLXbWC5LllgaNtVAQI2dN5Weej2r10IIgs01oJA3SHLf4Lp3XY2u3nq9O8tdLSPPAWYt3BwvKpWxdjHWLq0M5FytVkdgi1mGYa1GsYz4msgAIzvSinDqsEAZh4qyUy75VYSESvu94pnkc87EN2rknYjgARDM1GK0gNESOlDjnMcKD9UE67hSDCUE0Y7KQiIAezoDJMOzmDoz6Bm1pqp4UWohMjaNBjfBhK6or0whiDGHwMSZevI1n3X1k3XHVlmtWG1rRquVK2l0WEIzLnowDo8KseTYMSmVWo0W5eplxq5/5512fepTmoHAbm5PbefZg0/eccF28wZf/aKnXvLlj55w+HuYa2kgShoh83CEIPxI4ZHsw3WP04w8TuV+XIttnNCSLHuzGqhgoVVr1qZKoyndXQWstozOSZ7Vxfk8k0buK6sYwaxdlWWZ9s/oGKtKcABX3KgRxdhsF1U75HkW1RqNuq/XCi0znwmwblVVFmVZtcoiAsPsqqoaK4uhkdGy3YqqBXYaqi5zNaczpg9899fXrRoaEXLPe8KC3RbM+cgnvkL9g7iNUCWgOwkisB8hxokBt4OoJnFO1ZSZhAlANgV6mZlwRhBHjix1QYuCksEF1FEd41s9qaqpCpMZHACxsbBngqBCrIxch4oMq7WiGi5CIsGPVEVTBaq0FV6yCLHZtMx7ckGjaiVpe6PYhXhwa7XjyvW1qQPdlHZbF37lA5874h1HvvHVnzroHS972hPuuO3WQw898NMfOlYJwXdSZCaipVcnSZn/5Hk8VsvjUejJITMggjihC34GBgRiWnFRM2PaQNDQ1Z3DhlmDiZShDWjXazXOG5L5nq4GrNGces8Om2PJC0cN77EwdtVg3NoeL1ht/foNVdHubjRCDKyOgJDI4tJWwgOKhr23F+K+rgZl4Jp5yhIKVXsHB6++feF1t90NYfq7s88df/Dvb7nzlHMujT29bJVL1/ZRjQBLRBFWJhYiNWa82YtjxuoNZDvnnZqRoBlVrIoWMSU2wcOCM0YkJu+FhVlII/xAcgbGRM4gALoLu9Rohs7oAk+SMuxwYwiAU+bEOcpIQhDMiEVmrtiIHRurRcfOCdyjVu22r9VQqFxa5H9/0/0jI2PrR9evWbNqrNkcGJjy3Cft9uOf/Gja4HSFUCAxjD8RmYjxR5MuyKTT6HGgEBN1TKuTbJbXAItOhfdZvauraBdKWVGUlQbBGdj5EIqAxb85UrTaIWijnmlBqa4qylBec9u9A/29RatUou6u7lodZs81X8uI28024ZqdGfDI6lmsSmSJqVm089yZict8w+fOu1LjtL6e+dMHfvvXO7770z9CtN5G/plD9+3z7i93L69iEWJulHHwBnQpsWrirFGIWU0YTsCMIrmkYYzBDHgWBVnSOWoMzB3dHTOAaKQaVU2ZFNUCfyBAuQDlcCtGxB1nogbPAI6RRLGBR5cIcku+glDtvEJLFwnMLZAaw8WYiyqCZjHIgyieCINXVTFEkg00uojp2tvuq3c1QjB2Wca+bDV7fHboG1/F7Q0HH3UEpR7gT5M7pEma3Bo+hrUDLGD4MDIYO41tHJoQtUbEMHEuy6IATFgVfqBdxDxrNBo9DVxTGzdbZRmx7QUgeaB3oKvhf/uXO2Mt7x/sB0yHx8eKQst25fO80dOLtR4D5BlJLDMwF1eUbWCpq5YVoTAOI+NtMyqa7Ya3/u7Gpb+/8YdX3ahEXV35ifu9cZf5U3/ztzvHm4V3NbFx5yrsPtiImTpQBY4pS/cKGICgDLYyFtSMhZxq0BBgZKJM4ohImMWlnMYAz+Aky3xmyEci9BQTYpCZEbBskJLZ2JTSY5gtl/wDOQYVEs9EWactKi400qhoMBwPyBz8RmLDuOInMlWwUMVFQYmBnjh/NgjveOhBTKTP60Fjxh6XJKW2fDnyshc86ztnn7V+wxpIArKU4oFISFNMbNN7UjwyKbR4/CkB050QGpmYbCv++aYbuPNrzJzRixsvsQZWNICFRTJxNWYlyxwOvyHPXV73XfUsz7isKjOb1Ze+jX/1W1fMn9ojMH0mcQE0SoUaDsPqREJJ+I7YKkJZFZn4EKsxHP+Dd8731HIvOnuwp6ve+Oi3Lr/yT7eQUO5rH3vn3nOm9jXH2t+57HdMflZv3fsuC2LJQ5ExEAdkRWKuQhWwmJqxucw7i8GwrqPgvEcRCAQeY2QDPbY10JiTG0j3hjHE6MT7rEbilOAinBECNieODR87SgJXS3UAvGkUDAB14LyAfSdY9KMYieQZtgyZZCwMPsHSdkIEPCCmYI+ACST25OEqxF74ivR/GdYeHe3uTVoxWREqI1fLu4z4aTtvBwlO/MBHkJoa0hQ5JZ2HH8kSdWoex0nH6B7H8k8G0WGzRK41Xk7YWm9vb1VVUvdZIxNmSfvdSLkzs6JoV1UoysphG1/ivN9s1GrriwLO4KVP3uXOJSvOv+qmBTOn7jh33ozB6V213KK1qqqIDgyxcjbbbaTs6q2gNdwrZM58gb3AzKn9nHf99vYHjjv9e0tXb8Sc9nQ1PnvYWwan9K4bGV20Zt09q9YZhUMO3IfjmJJCYCEhBvKYlBj3Ec6ZAmqGakDGhEW8CCBvRqlEzCTMzjGoxYKpKXNSmL0DYk2T14hMDK6gZXQmEgcuGeg6UGZDo4d/UdXofc1w0oCzpCSDERDOGKvjLxIDIo4xqhLmD2cfxyTOe1Rg5GC777gtJG+24+LVq6cN9GR53ddc7sTYjeNDqgkRfeu7FxL4CiM/iWNSdRKr97hQDatpJKqKAkYJgRu1ejuUVgVhx8yEdUwYlwJ1HFeJa4LPh7Gs1Jkn4lZVSFUMjY6/fq89ao5//Lu/vOek88698tcLl61hyubOnrHjrOnbTO2e3t/Tk/uePJszpWdaX2NOb8/cvp55A30zeqdgh/+bG+84/pTvXPSrP5WG9Zmetv02Xzp038Gu+sah0UZ3z00Ll3dWcf7gMYfQ2LCWCmRFBYohtZJwNNOozJIiwaISZswS2khQKwRXgOs1ADcGgkYknowRmU1TZzMs9OlqD2VVY0YXtIHEKAW4C2SM0IbB2FBAP3KCPYCAgAXY9egVgsaITb+Qoco5YsegSgUmIbgJi6RSNedO76VO2LBhlGIsiwoqYCPgvKtl3ueOoVeoyhJfNDt0kzeRyavaY1ozGPEm+ZBjkqgPLFwI6HhH3ZlDKDSwaAxRUEBkKWOAgZexEqxmDkautVrWXWuQ0brR4Z56dtw+r+rtyUKkP9x67xcvvPLYU88//usXffSCK35x411/u2/xyvUb146Mr9gw9vdlq351693n/fa6L/7wlx/45mUfPufyS3//V3GE0JPJEW942YcP2BsOad3wkDjpr/ufXvsXNM3sruUD3WH1WofNBXeQmw7XrIrjNQHDIqJBiQClCs0EsQhqRSDbiFlBEz2xAYNshCZi6viNoCbMxJAArUoMYnCNgKwxoA1OoDQCU0sVphBHIJuIgEY1UGLaaXKJEzhYGogT8iPYU+bhH0Qpskjmuq3dmj4NR6dk/KPj43A5IeLkQlG1qHCjUivahccgRIsfegjDm3UKkzRJszBJVXsMq2XED0vHBJtnkXrebYQFiVutZllqZaFqlwn2MajGLPMaTbyTLGvkOW4FiyrZ7VirKd5359nQaGubmdM/d9A7jtznpTvNhn1TpbR+ZOyhJWt/8McbzvzxHz/73Z9//rs//cT5l59+6a8u+/1frrn5nrseWDHaahMnUXL2b9rraV87/l3P3XXekuUrh9otR9Y7pf+amx4YHcdqT1/9/LFkCtrIKEJkIjFVgIqVlVDBQh6YNw9kAjec0OiIgTsDGZv3Oa7osDkHogD61CyUMMtAPlQ3YgE5CuodE5im4ZjT2g8OBC9lFEMEx0SnFgJmhoiBbVCrAcqMifTOeWYiUvQkwggdQSPuTxUyMyqiTpk2BQTMvHHjiMXIuItwknkXDRcTunzlmpAGp9Wr14CtGbj9Q5xMBZlMyjxudOF/JylWxhA6ADMyE8prea1Wz2quu17PfQ12HWGnodSyGh0ZaxX49mdKCWw170Fo6mKsxqpCMnvS/Hkn7PuGLxy672FvedmTd1xQ76oBTP9uvImi927nOdNf9YzdPnbA68790AF7P+dpo81y1eg4Fkp2jplqEi759dUgbrDf96C36vpVwDwGJsBDnBg7FiZnqg7YIqTopMhONDBZwmXCuVMGHtFKDMBHFRw4FBpoCBFV2N0bE1PS3QA4dCMjBEMliRfIoxqFxTkh8pgiZoKjEAcJMA8OTZEI/oU7bWDEOFsQM9qVwI8VObgXMK3MmvXuOnLO8eqh8WCOtCLmsihNtbu750+33GOkINh22/kEwQTZSRsntXKP8V/NHpYP5iq93biLTjXYBPQ0xBkzSXTWxve9GNrtMiGBuY6QZbDZ3Es6v5qVRYhWCeOOQMfGWhvHhjY2R6f2dT13tx0++q69zzl6v29/9ODPH/HW4/d97TH77PX+d7z2owe84Svvfft5Hzr4Wx8+6MSD3/i2vV+43cxp60fHhzaMxhhCESiByfoGp1x726IRrYjokm8cC3mkPcJYg82AcCYzLL1O1IIA1ZKKQB+qDdhRtBOzCOzLDCUhEMWo0QN2aBRG984bOQNzC1HhFCIYKHLDNB0AABAASURBVODHRKaEDPoROISIARRYxrkCZMpRiTEj5FCChOQERyNAXDWogRhRNQL7OFBgKrFTAFuIC2ciDOfXgAuQEHSsqDLPOAPECNmywd7e9eMjdzy0Cjwxw/PmzYMQSRiUDc8kjDIJdXpsqzRhSCmFZW0WlUme8IQnT1SsHx4h4nYojWPZDIGsVsu7610wbJg9M5cBn+AK2DKsH10cFjiiaAAHd+fYNXQ5cUPj44uWrVu4fNXq4dbYeHswc0/absZTtpv/pO1m7TB7Wl/uR1vF6HixYuPwkhXrVw2PjzbbTYppETSwCwtmDt6/Yt0FP78G/F/z7Ce98aB36vrl7SqyYzB3yd0A34QNAKAsCcUEfANzRkyWkMhCijYiJYKfSNQCY0tV4nAbCFhCZsFx3Tknng39UmcAFUhHJGbCGQeoB2ch806YxVjFiQh7h8HVwBLekjAIp96kAtJoRhaJnThmwZ+aOp8hZ1oFbKgoK8YxyUaEsxL8GhyPFGVkpr7exq/+eDNRugp48XP2QHdiIktJ50GPyRZlsin02NbHiGCqKaVHB3MUfA2WliqXrx8HMro8Kb6Ia+zK8hiprNrdPb2O0F299+RcdFSWFeARmIPCxJmSgQezGFmjhq6M64KdQtEO1bjJ+o3jq9aNrlw/umr1hlXrh6pQjI23rahwG04anJc8uti2vu7aDgu2/ct9y0/9zk+IaEp375W/OLNqjlurEPOAGpZfXAdgE05qZgpAKjGTZmQUAB3HjrFzZ1PcZ6A6I88CvDKT91KDaoAhScYG22MXA0BfBXzmVOJAznsHhOcioJeYArxE2pdgKwEwM3xAiFFjBMZJDNLYxHTCPZhzdWjOznHqL0ZskBIJNCFRrVgwJc5VVoxjd2Oodo4kd7VudAyzpvWPtFo/vekegiZE3/7+ZaCAB6D0EIg7EXWd92RJZLIo8vjQY8KWJtJHSYwKNxd7zk4VoLBk7fruRkNNM+9L4NOxEwFoiRnfq8QJOmSV9nTVABmJ7IVwX+hzLwiw+wpbB44aizJkWa4qoSiMuNbI0NHnmW/UE4IAQ/iTPLMorXGVRjbY3zvQ33Xxz68+4we/BESIaNGt3/MZ6+o1BM4esCQWEiWA38CLEShlgGfnQMISATpTilF8w/mcCytCVZQxhlgU6bQdyVPQZlWMh6oVxTgGb9jKYJnONBrFDBpEOAYSDaacIO6AaYA/BsMUiGOk2IlgzXdOgH3QWKerBXgKIk7yaaUaMCMcwQ8VEUwMUsTKajy0YQhUiI5dMLOimD6QlP/IGRdTBxPHHHX0nDnzmNIWAMmjYqp7VPFxn+2o+7jX4nGjgMGi8HTk3fxOBSOeNnNOyhHMUlev3djf0+WcIxELUQiYIayPtXomwnANPvNGBpCHGAESImC4igqyWKiil4fTYAcyQK9s49RAUvOJk3EGaFUVgyooIJoBwaCsWaORi9Mzfvj7y6/9mwmxo9W3fL935lRbvsaJC2pAmWo0BcoMkGKIyqKds3ZSSyOTqQHRKnn6//CMVamO61Nm5tvt7LbfpbbTE7p22rG+8+7Z9jvXdnlK/sSn1nZ9kluwq8yZ7WdPl4Ga5Z4FPKqqrDC+aYkrD5QTrpEDbzNmwpQwM4QhUlUDYsXnRuTgDCS5D2JIws55cS5EOBWBuKSYN4LqqlFrXbUsI/QxsIBXcJjWqbNnnXzxz0ewOzDqntJ16imnUqIg/B4Tb5qkQSapXo9JtQzmZCybLIofJSMMPc/Sb8HIEV93933d9QZLphZc5tR0sLfe12g4dlVVFa12WRbBTBiYwXKurVa7rYVz3CoLTpggqXEtuQlqtQts2pl8szleFM1SgUvwE3TOOv9b+qII/d1+25nTVm9Y/8HTfviXex4kooGe3o23XTZjpx14xdISKMJizOIlM4SEjAQ9S6IqVm3gyAF2mgBqZB77+RizeTOyHXaTOfPH16+78Re/+fInv3bkuz/w5pcd8qwnvPpZT379a1/xnne86eiPfeBLF37zwpv/dPuyB1ZG3+emTc923M1ts01j2gzTSuDSBEgW5zKMj2GZxYmoMf40RjJmjAeMx4h5Y4cJVBKxCnsQFVQR5poJf86BlphF6gzNffbgg8ugJmLD5YNT8r5pU3559U1/+tvfUUPCC+++jzwTIVIK6W0pQxNpJztZEszaZFHlsa9HsqTNz783Jhiwm7/tdtaxsZsXLs241l3zfY36/OkDU/t7RWSsaIt3fd3dT9h+hx3nzpk9pb81PuRdTUsjX8tJEibSGlc54CBwrZ4zsfec+TwE3BhQvVave08MeGAYbVdlVudps/vF8bk/u+4z5/10PLQwizvPHdiw9Ce9C+bE5ctDJXkGzirRKlXJMu+EWcCZicTBB3lTU2IvztXyrLfL7fhE2fkpKx9cvv8+x/X2PL3niW9+9r4f+ehXvn3W93/+o+tuvunexTfds/i3f/zTZb/8/UmnX3TAh05+1t5HzN/j7fVZe+2w+977vO49P/rez2O9kT3xyX67uTibUFVZLJVUIBmTUkK8wZEaCTF8AZxCgD8IMYZSmOGMnGO0QSitIos4l7YQwlCZiJXJ4BhWrk7/DpqYtt9phylTB8664vff+fkfiMjn9RtvvGHWrLmEoUg7aaejMVoNHQzvSRVlUmnz2FYGxmN4aAL9yaQekTftounDHz4RNbBRaul4COrk2r8/cNKFP3nvKRce8bWLjj/1kqO/9t0jT754/8+d8dkLfvTA8tVzZs6cNYjzgta8V3EZqctyHBwcTtbOjY4D44X3tTKWWc4NX4tmnoAR9j7vrtfmTRuY1jtz5Yrhj533o2tvm/j/z+NTP3zQvXf/QtuqDy2zdiFC+DThIZYD+iL238iaCQnkR0kBDQWoahlb5NnzadbO555+0fSpT5v79LdddOXvxyrDYtzjZLBR78qRTfr3deW9tUbuIAp1CXXljp1FC4tWrL/819e++T2f8gPP3nnmC37/4xvilBlu+52yhmQERLIA4HAFSmRgK9wBZLDAJHBMQl4jEbMydkdeyIEt3FMIFRvmnM0UxPgCSeRXDbdISBwNN0f3+9CpN/59IXXCL37xg2c+9ZmdLDQXAhFxKj6cdDKpZrI8UHKyqPIY18MUxgMQwH4fljQBIhUMxggrPXD/d6DU6O0djeGEr537wdMv+f5VN9yxeBXAjHpELF+w8PGivPPBFZ+76BdHffWiy67+64KZM6ZMAb6MNCurMs/rQlzhGx+r845g+Y6qVmDhEENlruFk1ozeOdOn/33hkk+cfcFJF/9040gTzGcONNb8/bJjPvGeau3asGYDO881rPDRDAtsBNYZuGMXVSmdoFUBLzOf6MSyuuz2xL9fc8O0aU889ANfGto4AmUzsUbd5+RZpB2M1dc8PlLgLBPGms0YyDknnqPFzKiWuUYuA/W8TuTI7l+z/qXvev/g3JcOLV2s87bB9aYTYTJCIuRY2GNvT3jjiO+goxG0U7gDJ6YQEU5CUQ1RMWOGeoaK5swxalnXrx0mZXzh+Nutdy5ZtQ5tT9h9l5GRDS9/6d7gaVFRQx7Jpp+o8+okqJtcUSaXOo9hbVjMkg0ZgLRZzGSWKQ8zNiZuNLDaURgdU42rRotWUXJqTU9XPcs8AdEJBSTJOInKWP38ujuPOvWiOxcunTuYDguNtBq6VlniZjwGeB1Ohs5ZvbvRqGezBvp2nD84bXDw+r8vOeSkc0+69FcPrR8LUTHqGR89fNXiq6bPXKBrhmIJP5IHZqCdXSbC4nKGKA4eQRkQEccEMDmD2ylL39Nw8+a9/93vf+Irj1o/3PZMzgOlFEzaRSwsjBZFuyzHqyooKjVEUhKwIdNQAboimYPKrVJbUavc1zPX66lGNN5sTt3lzSN3P5j1D0AYS2M7EVaKEVwIbsWMvdGmABktgsoMToAwRDoGEDIEGnbiIrmMcgz9pxv/QmI4YIyOV31dtW+e+c07/n5PT+/AoxiFTp47KTHGsE35iZpJk251Af/EnzLBiJDAnB4eFdaKoqCW6IT3HeeJSzJAhJi66rWPHfiy5t9/aEN/GR+5tT10azF068gDv/vltz/9khc+Q7IMcASfkbHWaVf89oZ7l+y4YGD61IHBhhfJ6vX6lO7G/GnTd9t+zhO2m7Hd/Flc67l58dAJp19y4OfOPPtHv9kwNk7CJPSWlz59w8JfHvbp99KGobh6KbXGhQT4F2KWjHC75hyLAU9YP0HPgJcGlFUDll/Nc5o977snn3vyhT8jqogAcipCSp1nzgQ3EUxO0ZMybAWCGe4UomlZaRmtjc0AGEUzQaCAO4sQxqvYDEzs+vHxkuSa62/jKX0CITQC9JSOI5FwOWHBhBz2DEwGBk44CaTo6cU5hbyuM65wniaLNLmLKm9YIX++eVGaZOJvnfut4fH24YceAR5MKeBhgfYemU40Anu0IXbKkyyRSabPY1mdh03o4UwH7PgJYGT00ue/+GunnYkdL1Ro5LUfnv2xkWV//uT5p9XmbRtaG+PShbbsIdqwrHtAX7HPq3519Q+rkdvO/+Qx9Y6hsvA3f/b7j5992dcuvLLenT1tpwU7zh7s725gJ3H1Lfd88ZLfHfTxM4754tlnXfbjZWs3lBgNyJH8FS985sobL/r+L7/V1WXx7/eFVsuwGgtjeeQIIiUDNAMhmClrVDXskNNiaIIKoAyf/wYHz//iuYd84hvQ5Wm7LPjaJw656zffHF38u2rVtdWG66vi3lbrzrK6VavbqqFr4rpr1t/34+t+9JXzvvi+T33w3S960u7Ou0gU4AXgGAwZyrzHfocF+I7Nqk2ky9auNcA5BshEUZFawqhTg6yoYEMOWca8wkWgSOAZWdngTA2CcawiviQ4jpL73GvVjpQmrp75171mb+g30RWZh6NtyuHNicOm4iR8wf4moVaPXZVgUR3hNFknKRMTbNre+a6Df//XqykBj57z5B02Lrr6DQfv56yUv99lOAyvbcYQ8DEQW+rRZRuKJcuqB27h1cv3+/hRy279OfgluFT0t4Ur71qx/mNnX/6eL537ri+cs98Xzj3q5O987dJf/enWu0aLqgNlqqLW6/m/PffJS68551e/OnfG/Dm6cJGNllQnhwW/UsggyoEjwa9MbH+ZNY2hAmMxNBC2xaZwFIRvBVqMve1tL1/yl+/p+r/87a8/OOYDB+/27Kf04EA/tqG9cmW4+6bqvpv9ksX80CI3sp5HhwZ7up774ucffNS+n/ziB6+65bKqure97tZrLz/jtc99UsMSLFs4xERymXTVsWPHkLT9/GnBYjTIRyTCjEkTVU1t5DCBLHAHrJhIFL2woAXys3lOqLc0rUbGiNrieheVNLFhaYdqcEZn888EpkRY7vHD4JVKlsrohBeakU7OiMmanIo9drSC8T0izGZbSvMuloyT5Wc//+UlF11ApYPpvfvlz/nzjVfmPaQL763Wr+Au72ZNzfvquctcr1ceAAAQAElEQVRzsehCncXHKJG1GPd3/33KjnOa9/2GnIO9CmHtpAfXDC1dPzTWTPcIm0cjJc2Ytpk9db83vWj9wt/+8E8/mr3r9sU9d+u6NYxbu6r0ZiFCTAsM3JuQpIIh78DEYmCDvxIT6ey7nQkqNJLE4ZG6yKxp3TS6vlq1Ijz0YLlsVbFuQyxU8JVOXebrsShj2QqjLVwDttdvKJctaT/4UPuOO8o777T776gVa57/yj1/et2l49Vdd//h/I+9Z58Fc2YVhY7i/qCE85EF8+f50VGGRN4n7wMkkwoTM5EGZAiyWZKVYlQ1UOacGeY9RsLtIDoqeUyREYO8kT14z/2EvoQbAvbgmVTFkyJzaogp6ZAggzlAmhon5yOTU63HjFZGsKRkQcjQw8GiJlNj52Cu9obXva6z1sRn7LzdBb85X9atDKuX5j0+W7ADzV4wvHJsaMxi7zTZ7Qn5lJlc64oZu0BaEnAZ7r8nmz3zliu+Ct5KFoi6atkO82ctmDVz5vTB2QMDO8+e9ernPu34t736nA8fcsoxb19835L3f/AUKri5emXe6HWubkHRC8u/CUQFppWNk8RAHzMDUkbCooSVFiRKIDNy+OCWiNDFxbKtw2NxvCWVeaoJ6sHDKomSMFpWpgrMOgc/gzUa+3zsxl3WVa/VfRWsWLuxveju8o47+KF7d33Okz/zzU/e/+CvFl///TO/9P6een78/m/afc+nUbt0mTONHM3UVDp7J+KAPDNWfYVfwLgeDdFUgwVPqCLsnsg5ybjCxaNSMKWs/6o/pv8IimfiLMe8kVFKNz8M7ZA3PBORJ16TNcWPNFlVe0zoBXuakAN21DGqTsIORVgvmt65/wFIjamvu37T9RfTqnVhbCzrGojTtr3y0iue9MTXTnni3gNPfMOUbfY68vBPb2i1/PY7+HpvQdHnGeFTGtd56cKnvvylF331A+ADu8+y7KPvfv1Z73/X6Ue/7Svv3efjh7z+Xa94zrZTp1TN4r6V666/98ELr/gFuapmaRMSMTCTFy9MwoLVDxdoBPBQWkTNqkgGgLksA9ASsiw1JAI2YibVRIuMeBYygBTtKuDnXSYArXPoS84pRlNlwk7DwFNDNLiGQA6dajWR3Hkfy6K654Hizlvd0ge22XXeYe8/cHTFdV876WhbtyHgglHVMTySGoQOxJCYGWs4q0EMYRFmj2pBTlBPzrxjbtTY1KoA0RKBhZC53/35RjK4A3r9a15uUIYJ04B3yhulFAX8Qkg3l1J2kj5bXcD/8A+7yZKSKXWynYQIL8FDdMmF3yVK29trL/si9faNP7RQsrrOmP+1j37hTQd99s5F6X+4ThTH2u0zz7989i6v/cQHv6hz5udTpoRqzHGIXkIo46oH33nCe2YOTA1Ew2PNU3/w83tWrPrbfUtWrNuwdNWG+5etGStLzmzjxvEYSLocYdMfcPBQ0sqwkhoJQKDAiWkNohoCd8CMK/YQVM0coOxzJdClhwEUVHPSAZTIUoKzkDB2AGRRcXigxIKCWcRBntQUuE1jcCDHgqO9oYXgi5gNjaoU69739hLn5dKHWnf+rbVySTG0novSIARI0rQxZDUGawyLqAimhEHVcI9hThyxi/2zeNY8m7VApm4rs7fhXXfnWdMDuvX0e5Pb7llECEyHH3104kSJLxF+BTyI0I02BXTZlJu0r60u4H/2p33YmmDkEyN1arST533evl8nQy9/2o5PfvWr9f4Hubub5+108sc+98GTL0bTnCndvZlHJkWlKujnTr/wDS96I0+d6rsy49IxY1MQ2xWNjvztd2cnMqLb71m+aPHK+TOnFCFWAQcGAFKDyg1/vw8E8waBscr15EELVcbKnyAkkMsxEwcBEglVYsxG4mEiMeAbXhHUWJwBL9Eo/QnyDKKogGUHlEAidv/BHCkAFTVxdEpORJmIY4ypDwlFDKDiDWi1QJo2+ErGORu3tGpV7Gu17v4s98lzmKTOSsgzchBAQWxsYGPEmNq0/mMwEqdCvM2Cohh6+Yv3d33P931PyQafe+Tbj7bS8u22FUjWbD2wJDlWJnnqbjtTCoYkKZSYE+MP5YnIE6/JnMpkVu4xoNsjJtQxXjIgA2KJIkf84ysvRwHxvHNOovHRZjHemDGj+eADH/zKhY5o8V++vXzl9SPtv+uaGy47+SODPWmBlkp/cf29xx55os3flpQ1lFq2c+eKFQ/NffJT5s8eBDfK3c13/b3eKxarvKuvu6/e19PTDMV1t9yL1qPe/kYi395YRJzbc3Y41Xv4AcayHLHoOyyteLEBUmgUlxrMUCvobEQm5HEvoALdGCBMRRYH4Cg5Za/kBRt7RogGddWAfKPU22U1ZwzAi3dGLrJHLxESx3ku8DsRGjkMBjyaRtWqYodqQm/DeI4jEfgKO/aStg/k2UFwYzP4kwojz9nmygt/2r3glb+7+R6iNhNHrc7+wR/8rJdU4+Myf/exsTG1jIRq3k2bvS0hGB4CZeeN/OY3pR8J5ckd0w8zuTX8F2sHY360BEywNSIV0ubIaGynz1M93Y15T34CLVtaqylPnfHJL59HRPf+/qx5ezyzWnRHeOgujuNvOXK/9aN3vGeflyo4EJ12/i+G7lrO82aGoOmqLmooKiqHLz3rC+jry3jrolUaG121nrI5VrRHBwZ7r7z61iLZtjv0kH1o3WLXVRdXwcYZCDRAGv4kSnIFJAKYG8M0mE2VGIgT57yhBh1IUemE1fCOICF2qtGYUhWZcyyCAlocwdexEohJCX0oJHZoZnBjR8oYmtBVcVxQB1GE2Bw7jGnYdJARytgxYNaUCM4Bo4IdqAhF9V4ZEgqDhViodddHV6988yGf6+w1qFbPao4aTB7EQlPmvtRalfTMIFL87bL7E9ELeYakGAc0myJvehNGpUkfZNJr+C9WkP+9GcGGsZSpum+ee1ayROJ9X/ciljK021l3F8XWyef/8NV77bnDXq8JdywyqseWtlava99/O61YeMYPTjv4Ha+a0Ojprz6Y+qbWunKTWjDJvStWr9zzNS/t687Av1nS+HgpGTDkuhvddy5+6Jo70ingHW96oZ83sxgZhVgaJeELK2gIRlh1KRWjmamIQwWqTIE8JcZaqsCZiJADGa71GC9mFIiikgiSaBE0hJ64ficC8ix1RR/UGbwBJccSyEIawtQiGSiIVCeADHAzizO4IoYfIhKAO+GekcOyDzFIuNMSkpyGNiz8oAOM25VK75TjPnIqUeFr6EmhSP91EJIsq9XgiJpFa+ddn/Xb3/4REhPRq1+5l5Ihg8iMhHhTKeW3nEe2HFUfI5oKATcJSp/52KeTSGz7vG5Pao1TPYtca69cm5H84gdfog0PBBczh1s8Uqe5NXRoVJYtO+87p+y2zfTc00Mr16y/6yGbObsqgrIBGRE3ArH9pY+8Z8KS14+MTB0cmNLV1dfVf9b3f0sx1ogu/s5XaPlywUKLDlj91IgjYTfNWBFNVTtruAO0WISdc5mPih25kikxEsXR3YiZyTkh/IlLeWJBqwUWIkKOkQiDAnljBleGlzF8qMdgqCAl+ELHKZCRsCPsZsxME01kFRZ8tQOVMpODlzDIpNhiGKOn4rYfnsAphANyLZogGEV70dOfSERloYIzTi6Y0yriyjNkmQeXB1at+bd9DgRH0Bx73HGQiYipE8B/cxZlw7OFxPSLbSGq/svU3GxOeCPCzhTAMxptj0MkcfKCvZ5HxThX5vp6rr/ujk8f9Vbq72qtWFnLMmIBODLyZWaRs2L9Wm2P/fisTwP0AM4hx3+auvuFAjMWVqVYheGhQ47c38HYiX557d+m1BpT+urf/OHPhsbTieOev15sGeuGjY6kDFiC8aWONcESMHCAElOnBosyA01J2FipYxbnkYCIJEnEZIBqSPhjizEoeISolXjvhAgSu8ywuYDXEAE4U0cjB96S4a6vgLAAnyNRYF0Nw0EZ4ghiMkPG4NNwQ0hKyo6pMx6yasZEIgIxzEwcgTzGIMwa8KkhKzesf9cR78T2H1RVgZsQbUfK0rdJM3Qmss4/QzY0Oz9r9nx0pIcD86YsmjFkEmlTxeR+yeRW7zGhHUwrWVUyq4msCKdCRzhjbdTrVDH5SM2wfuXqd+/zKh0e8tHhO7kZ1jcjdtg8K1me1WTNQzu99BXdOaP3b666oQpFvYZr84KjAqZxaIPv6Xn27tsTZ43cz9lh6unnX37TwpU552v+dsm2T3yCPbgQ13Ux4xoQSZGdkXhYO5PiOI5xQgzwBWQayzIZR2ogDYFTxiiYakS9MDOxUCRh5wS7ckeZmI9R1YKGysDOUhbEEBWKlBUQbLXp07um9fr+Qeczcrn5vNNKSiTEEbpywjlp4mlRpdMs4iAbMxkzhkjQJ1bMDXyOeDZUKHuSsVEqx8dX/+G2X3xz57mD6B0stKoYgnWLuSwTZgMx0ZOflDYLUJM6vwTqmBDwpk4F0cSrU0GTOqQZntQK/uuVS1bUsa8kilGyV1hsKqTHKm++FptNDp7C2Cv2enbvjCkyPCpOySgCcsExA7PiATjc/1eOfM9ee+2Bzm3ytSLGnATHXVAJ6fgwjW78wdmfcZ5vfPChl771xJuHy/3f8ML22F+nbzutWPhgKC1gmx8MIriEUkfGhI5mzntUCrFQ4uV8rmoC0BDQgCyojFAmUmYClsgM0QgaibEJGammJArKBL4MF8OpwVh81tfIttux7OpedN+KNWtW05xZru4ZDMU5BsTBlxyBC4NJxN4EvsZ7jIGxgfaAGoxPwoTtBOOSAF0ToE01uQfC6MaxXLPK1q998otecO9D16+77Qevfs6TIW5UG6q0ChUzezAwet3ebwZPgmyUAqfEiDpvelT4DxWPapskWZkkejyG1cDS9Yh0MClVIqvCpjqXOWn0UrvQeqatmNezbo9ltLIsz+vOCW77RJN1W6wqV++VOfNteNVDDy0jYsCFqjK0nGILYUxRGl19YfWqubssuOKrH9imr+8zn9xPl//sO+d/WpcvrlYOW6bs2LDUasDCaOyZFIBicBKvaDBkMZwBgSKkAKM4ck4BYXbsshgCocE4ApqILBCNGVqBKfDIAoil/89fFnQkwjBRI5G4Wk6z51501ve7B1+6wwvfM/Mpb//YCV+yBdsnhlXqy5gWASMQR3ZCTJx5ISKDdyGGWxJxjpnVeYfInKSKxESRCVOKJmGuSUWEyV1+T/XQbQM7bPuLay6No7ddfubH937ZHgNd9agazMD1uOOOEGYwR35TNLDqZFN7J7NlJGmStwxN/4VabratjgiRYWK8alXCMJGjWCSgOBHClbmJxlBVMXqLYsqAHmmZO+zVYbCO+6ffd8fd2dRn3HYXutsznrId1QC2yhiUODpQBft2ma7ZsPfbX/73B391zHGH6Mh4c8nqqiwky10knOzhZdg5Eew+0r4doyrgh8EIQCMGKyMmRMckrIFR8E7YopYkQqZ4ZIVCawAAEABJREFUvLAQY+vtAMWEU8J2QrC/iMpYbIWIxAziZ+bEd3veZtf3vOdT+x/3BXFFowubf/7CmVfc8KOrsgXbJnYxKJMKNifYr+cOipMxAeCcXAx8EBN8hIYAn6NRSZxI9E4VwnHaKRi5EC2aYkLMS1WxVL5avKi85x7asOrNb3/dT377q3PO+QzEIqN5s2cODkzFAOQYNTbxpCxyBM1pSwrpt9qS9P3n65oMLI1qsL20Wgk5FIt2k1CBgy0s0Rnuqy0YG7GIYGNg0bEaHjbPPpTBCfmddrv77rufsOe7YOrUCb/47he13aZKs9AWjqwxsVCNauW6jXrvomrpSm236j3dWDYBq0A4xgvwQ8qRA2xdAHghtJphpTeDTCbiAVEC5mAcEXgjJdUI+ZQYUpmqpQAK0DOIzNLoZGIMbGKgTrMygbXEYHHeDld9/4rzv/NjsEdlqEIGfYSO//ipXIeza3MsAV6rIoZhRcBkgUfKgmuwQFphcGNnQUzTv4ai0kXcaOLmgsxhxoSReEo4VngKZjBkKAI30RyLG9dQ3HjAez5GnXD00ccxM7TCMKhIfdKD7KYIvTbltoAXfsAtQMt/pYrJuCZMCjlMNzCjRL7Rm8wV+Ed0So4riqpYYoG1wMQxZZWqpuaeM5UF2y+99bZnvPRQ1MN1QKGfnf2JqTvtFHH0Jax+gBQ6MQPAxECKwzKZZwAze69aoZ4r9YyRLIZKAVZl1LBzaCJ4BmMF2gVeAEIEgNeIoqkwYCssQsrEArAZBCbgEzHiCTiisxF7+IVgaow6lI1UI6QsY9ZVk3b1mnd/mOAQHAVoGTRQJKV7H1rDZdS8C3t+wB1ys2N0Io+sg4yoBB1YcqpKA5dlQcKSNyCO1vIsF0DZUh8y1ZhGdpxlROzMa8BMu6jmfI2q4fFm2eFO7/vg+42Sw0IRfZEnvOiRgPp/V/NI26TLyaTT6LGq0GazUlJM+vSBaS6ZnZFoNdSSWmYhmIjzIhNWzelOTWC7oXSD06qxsMOe71SKiY3QRSef8NoDXx+XLTLAGftv7wO6RUeMxT0a0hgTOGHnaXPBZJYaSbA2kqlj5zKvMHNVAhZxGBC0mWI5Jwq4dGBH6BJTUA2OhJ0IozegxxgFUVlYiJVSWRwzdSgMHVGjzELmQDBj/u9/+psQKGcixmDkvM+RI3K5t3QlmEXy6ilJQsZEbIRpMBZ2Pssy5/AlE41KZEQ4k+R++tSrb7pZxJPkEQPHCp2SUgw11AcVJ9FKL4aXw5hzZvzme5cT5ej/hF12FOeZGLSJH3oSSuCNRnok8CPZyZ2Tya3eY0E7WNZmc2JDIWLOtSvHN8BOtfLQmnWUd5sxFj1RUc+SwATZWUrsiomnztln/+OwpAUFCOmCzx71ziP3iQ8s5bY674G0DrKCE9hyRDf0cZT8iQrGYyzNMHdg1Ui99y7DVT8plnCIgzYTrJPMTCICIBCgZ1W6jwgOwUMarPBR0585OAoCTwzEhDtBFNkwHORSrNfRpMOHiFwCslRaukbjA586HbuDLMudQVpmYzAGzZ5P2kElhGaLPKQTIF6I1VKIkClapMQ9DegEcMYMcWYyffql3/vlz393ezZ1phaVKCtY4ihhQbM8lrFSgnKWHIeVIXCekfSe+PWLiUoMevo3zxEiCEtgDmmJ4FoIoZOnNBgKW1DEbGxB2v5rVE2Q2TQyG4lDXhjI2mxtv/zVVdRVrwE2DidcswA7NBCYhpBZNntWa/n6H//2z4x+RC/ZY7d3f+goWr4yxCoAfZLB1iPYGhmMWPCDMpZrgIIUVcQMHKmZAkOq4EyqaIhMkRmUTBIdi2I/LygLwXUIiwdWwYujBgISCV7JObAg81mWvBUzekIkxx19COMSMWFcVkCSiNSJ1rv7QmvkvvtXkBEGI9MM5MIUCeXDD9pbomUCeQgLujFKEDGSJcnBkpPHY3xjhK7kmMX5mreerncc/ZVtd51PQgzNRH1X5rfbzu+wk5syrb7Ttm5qg2Mb31JYM8/OYfvRbv/tjiXERD7f6yUvNiI4FNoUTDZlJl488dpy0n9Uf8vR+5+oKT/aqDp5g4kTDQ5OhRTC/Mc/3BBclxKLcy50IJtwZYQfh0vt7/3yaedIMltQ0JUXftE2rtOKRNg7oB5+IuIdy6CSIIERgEHDWTghCccB4jRcxy1g/wtQKRGIwD0quhh4MJPBDbDido2VojAxRGAiwQsYMU0UDIKocBYxBnxiMNThsq9Cb4wBDkzoDB+SBgTbiIHymq5bO44uoIUKEEkp89aMgU1f/rqXlBvW+K66K5VYwJ5VKTkEhnaKPCFMyBiMjMqWTJ1erBgiDQe+/ZVUFlVsZ719NHv7H1zy07znWW7qc/Z+8f6ud5b09VIRo4/QigZmP3DzzUYKBocd9G5wZSKMRUQpkxK0oZG2zCBbptr/dK2T+adBYXREFoEeetoznomSmvzkDzdFL1mjFnA35wjLOkWsbmxOjBk75dPOu1LRS+kjB7+pZ5vtiyWLcHfO7ACLGLAVMINL8JlFikaWIswdXc2AXma8UKfMTBIBRYoTMGOH4wIBbAFX64RGViMnLBgX+4uIqztsqAmiozsxY3POzMRG2Ctgmy2uQ58Jvi9qYEYTuDOCsYgXxtmgnpUxEDGWYxOFU4iEUcCSnv/M3aRvUMZGFN5KKKARJ3oyODZKlMqkkCINHSsWh5ZSMubs/At+aBp6Zs3R0fGsXqcpA7/47qX7HvKZWJYZ0c/+cs/XTjpLpswx+B2fcVVR1+AHPn0OUwonfuyTQgy2RIKyGSYK704hvbfEJ03Elqj3P0/nZMNETJtCsn7yEskOP+qwTiGsHy+bK1ZSf18cHteIhVSZVZhwIsh8n1U8PDYy0fvgg99Iw6tjVgfAIn4651kc5xl25yyMfbpw8gAepk+MQzIxAeEq2HyDncD4mZHBXZtTFqCOiBQ4puhcyghYAHcdYQWXdbhaRx494JsUUlGE1yFm54UI1cJsGhQ4Ym+CGtaoFiC8pX5iWmK7koMWSIz45kFG7NqFEdEPz/i0lkM4hSgO70IZOKFVhEiIhYkojaLETCLOnEqVsXJX7Xs//QMhlHWNwU2b3dow8pbDTiIh8ZT3dgvRh790LrWbvq/LhyZ1N8iaP7vqeojnHc2fO9vEGGqCA4G3EBMCBOq8kd3iomxxGv+zFeYJI8OwsDNCwYBEgh2++Q1vgnlTJ1x+wQ/ilOkGbHkVUqy3EUDCcl1zHKsImyX0pG13e6JVlcNiSMlViBljCcVSRkTM2BCQgtQZUGgxMjl2wGcig9Fz1FABo8bKLI4V/oOB4cSE1VAJKMcQA3dqjFRDmdhAVmMiVJPDUd7IgGY2vLHlQB9mYhYCBzFxQt5FDBVCxIpflo1p0xs9DWwshEKfzwa6coy1957PnLrHU+JDKxxDnIDPGEQeskAuMrOoJERkjG6arvvgIUhrkueYjBv/di/aqKchWTf1T9nzZe9ua5UpeaL2+LgRVaWGUBE5itEPTtu4aHmlgZTe/NrXKAlDEUpPkp82Bd703vyyzZkt4J1megtQ8zGhIuwsmRYTMAOBNK1wm+b/c6d8T7B2NyjZqhHWQmPG6R74r4ZHKIoCEC6TXGOI7DigTMRCRrgIEHDEkwGfWO8FNKhgMCEmx1jlTTWCgbAzOB9CVpkoQc5ITY1NwIs9KtHOaCAji8SO4DtiSKRkLHgLAqOewZeJ0c+REDOLcxTVwA1jwR2AP1lotV0j+8gBb4xErdJGYlw71prS133l787mlcu8GtQxycXBEwQwoTQpJM4lR2CKMQkBPitIemcsVRkIzAggljxb+vfbb71vSfJGQp25lZQSeecJktcaNHXORz93phAR0+lnnsMphywhQHqkiBNdHsmgzChtKbEzJVuKsv96PRnmtUkKxXr0+c9/HiUR99D6keF7H+Tps4NVHaglCHjvy3Yzm9ogABt0WHvVE7toeKFKSWHSjMcRR8WGurKINZNw8GYAgCRiMWSYs2BcBzpkCcdyQC9BTbG7ZuZICWsJQRBOHD7RG0ZQ1IoDNOELBHAHxMyw649owJCC8z+bmToSDaAPFiKxMNyL4Y1qglMjM1u94eOff+9zn7ojCdr0+U/ace3Cq6hd8fCQ814dq+J0wYo9Q8RVhlInAQ8gPXEkhwlR7CzKyFl3E1ehmArCOESN3pO+/B1ifP43fGRVZfiy1Eikgzm1CqZApt//8VVK1O3y6XPmsk200wQDoqQ2TjTIIHaYKpoepkLlpI/4WSa9jo8VBZNhdawMAilgx3T88e9PeSyb4j76ydO4b2Ym5LHk44PaBHUrUtZ33DtfSZJ6Llv4gO/uzwqs29jmYwXGotcBf4Ctm4iPAlySAkcVrtBYHNBuxFhGUWeWeJDGijkts0QRL3Yuczg7EDGZARLM5IgwnoOMqEQW1ZHEiXgvxC6CDnA1hhAKFBlhMScCvjACE8WknYlGhXw6MlQOjVx39Q/bD/whrLz22ht+6KmwFYvQsW1BoTuGhXQkzN6JV1JUOGE4MWYyPOzEomRsrnbPLXcTkcdQkCzv/8FPriYLuUhUFS+582id0tclsRHKMZ4+bXTJoo0jbVQecNhhkEzR0VDaFCEDRiCwooeDPJzbQjJbnML/mt+1Y3Yda9s0PuCEulrNL1gwD1WZi2f/4Jc6POz6ppGJAZokHjbrfTW09uSvfqDHN0B25c9/T/0DsV4DBpk5QVGjkCmD1FjIocEUJs2SllcAzGLCqUsAYrFEq6oMCgwvrGpmoQqlE1gCY0Mg6GhMYsyJisCI2DGzqSqQHixdEJQRfsTUkTCRc048SBJ0EwdzwhLBGJ2YSi14ZLhc+mAtr6i5sVp2Pw2PBPNkuBQ151iw7yBiEXFkJMxMuL0AWMWhIJRkxaAhBGn0jDXTIT9ggqi7tXbpupF2xqxERYDmHNOuh076xOGk8AlEPTPOOev7BJ9C9JlPfiISCZgxPRw62U7ycBWBD4geKU/6nEx6DR8TCm4ys02vjkiiwCrRb3/9GxSrCnaqX/vSN3hgFiALCJnjUjXL67ZiI/dOufu2Cx25oz96VrF0ZQ3XYGpBQajYM4g4J8TsmOBkzElmmgAMYABNLAncMOwQA5GxoEdmFo000eMRh+qoEZsHR4w9gqb9MyFlA0N8OICgDv7DCH9Mws5l6AeeRAr6oFUqOk8ieEiInGSQitJGwEEIrO7IDo9IVUizDGXLYd/BFTNcEsjVCxwS4zEzFmFCg1o6IKAMGYJFzTK0txoZ1nlgOcVb/nxdEsDI+yyCg8NdIZH5ww7+NxsdyupdOEp8+huXEtE22207MHUaQ2kUoEVK08MpeVQZRagMHv9Yh+pJHPFzTWLtHpuqGZZLSOY61rbTrrt2d9UnfoYPfvkC0pK66wAk0Ah8xIDbL6bFi+fNmz+y7KqfXvAJa65ptTcAboCCKYBJwEqCpmMSI3GRAZtUAETFecEHNWVVFdxsbnAAABAASURBVGKT1AasGzEz2KNIqiQ+o9QZYDNKiTITETYFEZnU0SLBdZDv8JCEEecYriPGNJhgOANKNXa2CcwYz5JMzN45Qi82JSIGqFVyYTZEyBejqiEvAjoMjNUfAwGqnAa2tN+Hj2ESYeeCBW3PmDeDCGWgu7586fIkiYdXKVmpxjmxPH23uTRlPo8N8/S5tmF0dKwJjU543zEkFEMSImkIFoiGJ0VOSeKU3psKm16pZrI/+Dknu4qPBf1ss7klS+NNky7Jzpj4+utvAECTmEyXfPt7+bztHQEXPkTnnNYzwCTYihVdwV73ypc0uvvqWS2aixGIxlpNljGTxIDNeSQAD1sAVY3BcboIiAljxgCROELemJSFkUIkRLQQETufeU/kmDkTgUdwhH0IEYHUixOIDL4mDkcNg9dgAqqZvRMRDREDqqJV0AnOi5J7MEtXhxQlpg7OAX+aeXYgF1NGZ/LOCOA1XPMbQa5IDMHwaQCsvGSeMAyEjjGyi0Ru3PUMDqBSFQOMNOsMAevOkRjGHW0VZHr9VefS2Mqq7am776tfPwvEmJODDjyMibLcERkyGAsd/yGaPqoy0fxD66QuyKTW7jGjHCx7sywwQSKGwSESFjOiJz75ydMGB2GesNfD3vf1uHa1m72AtZCcjRsVpZZAVjWHaOPGWEQFWJWcz4xVxGF1M2CEM2YWIJaMhBgLMYZRA0jJo4WAExLGmR0wMDB2jsUxmzBZCCFWJTYcZkoBmwZSRT0oNVTAdsATIzEBKI4xpgAlRiaEkch5b2AvZBiZPWpNFATs2IidQDCiGBUwAx9GJzQmv8BoBDOfow7CCnsmRk+FGBhOVaOx8+hpCsfB0VsYGSMjCBbC+NwZc4lpvCoJ26oq1X735BOymQvixuG2LynYl065DMT1Wtbd3YUrBByECB0mHrBgNBLe6cXCjDxKUGsi1yluAYlsATr+q1WEcVoCzyNyWLLEjqE5VMIUFz+40ogc01io5uz+OiydPGNqXcQs5k6EATJhJ9GpWsmxAp4NgGNHMTA7SwYcjdhMMRK7DNBhU0uBCC3IBgMMEQ24R9FU0TkEFFnQk8DDMY4KBEQRo9UAT2ZGWUS8rzE5i6GsKnB2TEwWMBwB+eqwyJuySagKC5EDwK8YB74mAqIpR+KcgFhNHDwEMSoxCvCNoUg0YK0HTsk5kG2aFrSDuxHVatARBwOJPlInjC66/2VvePkR+72RFFzZUXba547Z79gDePmSanikd8acDQ8tWq8lE73r3QdWSkIRHxvIOp1TYmiCCqiAkEhTXXqYOL22nAfTt+Uo+6/RdMLWmHWz/Vmq+QdZuN7tXvXSl8K6u3K/Zv3IvN1fTlWvDg4aqaoLsdJYOYC2VGGWoEJiHGGrBohgwWSKBE+RIMPiSas0BprRHWCEpSuMHDeFDPgJAWSspujjvWcmFjEjTsdtAq0TR+wT4ypATLZEHGNlGpzDqcAFSv82CdsDDzHM1FJvPEaaZznjS6Tr9NM0IjhKciyKEA37BFApCyaDGSXnMJAIgYlzLnFCi0AKDGrqxDQ6jxGDkAvirc1gjXjtn28mc9/81idHb/3B8uvOa6/67dHHH8BLH6jGNuJ4oV19X/7814mDEb31LW/yMHNkHUEYejigjZgnokGK9CgR05YVMDdblsL/fG1hzsnYsLBy5/2IjQEQm8RhdT+/6tfAZDsEGOqKNaPTd3uh1Pv93B0iB4pSshRKFbMEH9pqoQSKiJ0Ss+DPYLhRCfAxwouYLabtO1sVLKiIIwacyMxYYowmJGZaBQQlduJcxxQs9TQDBomEUC0gI4rJgTGGUxVhz2jTTLJoZgR8IxoRgx8xs6qFSkRUsc1QI1ZsQ4ghHLMIioA7Rk+bE7zYwENJcC2ARnBi0qqMWuHtIJbDccIYtwjK7KmK49QJf715IZHqouXdswdmb7+9L5ph4aKAU4F6yrywP+OS31OAdPSCvV6GsSU5hk7PhxPGbKGQpCFQMBMzxkfVFhVli9L2X6QsjItgX4LEAEK8kiD28JsMFEZu4f33pMWdSCRu3DiW9T5p7fLl+S67ZwtmNGpa91rrqvGgz2b1ZfPnuq4+8BIiNkYi6ElASdCIowFqiLx53AQ4McIAkUEHIiVKqGRxsHbG1YD3WSYiDMdApgA1iJExNCe3AEIQcQfEqAIvQgCgMnbsMgxARoEcWBALLiAVkMp8FkLFwuzhXfBiBybk4EiUmCUTIiZGqDQQGTRgduiCrMOIDuQemsQYIihRQ8am8EbdjRohOH/T3Q8R5aFNumajblgXW22r51G4xuqnTrv/2j+MKYZyA1NmeueJUCD4QHTdpAEx8niM0vxM5JHa5mbkt5CI32IL0fSxoSYTM1HHztgIWUoJM36HGHbYcYczTvsKETkFXNIaNmOXVx34poNHNrRozhN19g4ye3vqnjfajDf84cblD67ws6aZBXZAh1kEP1y+S9TA6I1hFOurERGySFBiM8GHNhZgGUWHA7aJxliEKlZtyOBcTQSbcqz16MikFCKcggp7rNkWFUAGE/BV1AdcBWgVA1qxm2AScRCFGPv5NAB6QTTAFriOpiaOiBVoJyKIgEkQYzgp+AxQMIsTUYtgZSYizokX71lZiUhArlyFnsFZxEQa7rnttsrGrLtlLh1HiJ0EXJVwxG6i3vjcKd8lMm/xox9+v+vo4VI39Ewv8EvRwBPF5OxSzqAyMSea1LrFPDC9LUbXx4yiEzCgfzQ2xqG4qA597wmvec3rcC0WhASrl5MLrrx2cIeX90571uz5L+jq3y2b8pS+Hf/tOW9634IXHhzLtuQ9FoAUx46Z1QnnvoYVkxhQRYRZMwF/zM5LQmAE4mIAqoS1MgfManSOSMSwVDIR4yFRIWBITQikpFa5zEUOMWoEJi05BBFHqpnLSEiYI6UGDIlKDdi455oCMcjAHLCGiICrEnBOEEM1mrFgOIbABmJjR95h28IaQmAjVgOBiFAmUmPjqjGllxCMlm4YoWbhJUfHCg1qApW9ulqN8q6f/fZvUAQbjH3f8hqQa8wN6iC3KZoB9EyMIsbGO+VQhfIWF9MvvcUp/S9QGBa4edRHZR+pSkDzXGvADK+4/DLUWwRyqaGC5Q2b4db46LqhMVzGh9S9CQLOSFzNxKJFRS1yjL10MA9EGqm6jGHb4AIWaSXFSZ6wJgNqJEykGAAbbRLxZk4hAKKVpibEBjmcgAgIBlKZhJgde0JHUSagWM0wbADuVBXIZ+IS+wJQMETubEbAGZ2tErBUCxEjmhNxLJHVwSc5CiGyKYtHd3YQ08yIkfOOhZUhYRCmVisU6my8iFk3RCMipnx0dMRNmcFcUYQT4wCxSvMDs4YWPjDabk+Qzd9udyJyAvoUkafUwPxwiY3JoDUq2DrtW1giW5i+/yp1+ZGBGcb272wNtg78UVogOdTy/Kpf/hr0poS7v7T4CXHm6nWsw0SOXC1PrVW0Wh/wzykIwczVnHcWjCMTY1PNHY42YeMUg5mRAIMCmweFCQugJxwtincE5GNdJlURErOqAhP0MFbAhhk9SI0FI4k4x8ZGGAgCIcPsnBMRBeYJwI2Zr1moHMiVokZxgv7KCMYijh2RkLJj7D6YJhgrQSJQgFHyCxBIOZRFVQVcLtSzLPGp9xACU+Cw+P4V5Cpm8wo5ogRljN/d++2LfhIgN9m0GYOgRWQmuB9kDA9huPSaeFKNkUEFlCdSZLakKFuSsv9CXZOlPXr4ZKL0SCVMHyUGBMyh6aWvfMW2O+5IRFq5Iljd16f2DzbbkVQoSiwrNCFyvQt7c8YuACguyoTKBDmcpiuydCgGkgEnUJL3EQ4ASy5YiKnFaAGQR5Pz3rEHBkHMZKaKRlKs7Jrk4041cwzRognsRQMkJBYmBj129Ixq7N6JiIWcoD/0iApEQizQCphVGokDhRiD4foANQl1jFYl8CTkAGNJb7RpZWYhVGDo84ydOM9icG1KTJl3ZBiL737wfqrVK4iZiaKDY4ZvEf+dH/4BoCaiF73olUgRUcTeBSmjQKl350mFVMMpEMamVKItLMgWpu+/St1H2RbMl2BzeD2qEibJxEk6BopgjcccfQwzKeEq3rXK9oplf15zyyXj9/2ssvt7u9KtOH45w7LHKgBeFPbojToiSamRi0CzEsqmxmogA5zgAYzZuUzMM84OqqHEQpooUGTBVh+EBAph5AEshjCGlZsFKzlcRESBIZaCNyJ1hLCgMfmXtM/3zGxsalmGHQzGpcxjLLARMjKLkE9EGDKBjCFvZyOAIeDDiOCAmMmJU8wQxMXlopoWAVIKOyI3rb+PUohX/+FWzfo4F1MFQ4LEvsZa3H3vA8wYhJ77nGckCYmYME2GFAIQERsp5hbKGcZgQrDUwilBYcuKaaa2LI3/xdoa7LEjQsfyOjmD3RspRax/RJE1mtIRRxxpCSFC6ScSqRUD0+d0zZpu1jU63mbHLEwasXSyCSlQEjVEAi90YCfMWIIdA0gKczeG2bMhR1jVBWQK7pQqMZhGHNcZo6EePYlFA7DDZiQMjsKQEzg1sBHBCd/MMeFjG9ooYlAwQxNjEFPwYNVIhE6WRIN2SolFh5d1xCEs6xiFlEEBt5DoNZQFtkCgVSUE5zOz1GBmxJ7Bsmqh087bzWcHprRk+VpxmUFWEXSMbeWpUzcsfqhEB8hB9MpXvyZNnpnGgB6pD/ji1Rk1NUHiTg1B9pSBzOm1RT1pHrYohf8VytrDgxp1jMw6FUgRKVXBAoVYBDjDLleAp3rm8twTKan1N+pEU6g9FlYv5tV3o4NFc0ChwIS9sZIQGfozmsCEWcUL416AAQX1ThIJE6CgHBmIIiZSteiEvMN1IOoCkRnojAWt2HywMYkSw0cY2JgiKavCOWJOlXA5tVruMmxJOn2YaQLRDAKIYzEFY8dxwrslCclnGWPUWFlUA2s1kAqRc45dpkQQXIiDQh7wSTqIEEmARhQr1lbfQA+GQq+7H1xqRZFz3RGOOYHEqNF36aW/powmwi677WqkxCYObahjQ0LE+EMuvZAjBCaU8d4SI2Z3S1T7n6izEmyQOsE2GdymFwySO/UAH0zQDAVGpbCwjbQLQLJjuXbY219JobJWy0+dJd29JKkb4CBRpF5LX+mYxHv0B5QN3QxgAbzAEZ4CfgTNasAwYsI24wQgBhyJRlQHdCSC+wEQUlOMgRzDRWgMrOaZDOsyO4DQuSwAtAo/IkJSlSFqRewwaFJKWJAzJYwMRahK9wxGMDLvXOLGrALGxli2CYlI6oDBsYorwQElLgQeIg6zoriwQInZgThzhRKpmzowBeKQ0tIVa41NISLUUDgXprx28RW/oEAIeb2eETNyJERJmqQmypCNiFIGihHYUwoop9cW+GB2tkCt/5kqpxnu2Bols6PNIRniI2bHaONURchEIuI1K1eVVUhAIH/i+99N40OS53G0KUWgmHhiaTUdtwQobKY1ApYBwm9/AAAQAElEQVRAHjoYYI/VW40JkGQCfJKhK7HzTgBFDBSiCbMTYsHQqI+AErLgYKmXmpqk3s6zEqjgLLBrSEACPTknGdiCARMlCQRYJFOgPFSCahCgP2VGYKxKzJIp3hhFBVDUgDtFZQRiQpoi/B6joEyCoQkiRDHWAHI2gTeoGvVeCrrrNvOBfxIyI3bRuYwzYcld3VFo3XDng2SE8JRnPAspdejMWJQhPRNZelMiQWEigi6V8doSo2yJSv8zdbYJ44KtPXpUg913WuxRtVhuU0kFuKELzjsLBZzup01p9G2zoFi62MhFAMIlD4EmRG63hJzWsQ3OGcF7jVjl0UKMP2PHrLiCj0BfRAb2L+y0UhFWMwN3RoUzJZ/l6MrOU4jC4rA6R3PiYiR0FsfihSxmGQxGQ1WSmgVTrNIMxPuIZRZ0RuiavFI0EzZTDRYVoIvIZXmDMZygGoNEtWgazQz0IeALZ8RO3sg0aKyCmQh59uIyjEiVQiGvZubJ15kQjPq6cH/oAjvD8N5V2jW6YiTiFiNDMx1z6KGkMUbF8IweYsaJPZIUEwnmY+JFBALaQkOa3y1U9X+O2sn6/uNIaVvQaXnY9HSzPSbbd0qnnfo1Sj8Ov/Elz1FirUZh0PhKTh4b+00MN65e7mq421dHlTPB8dq5xFVViTShOOLrIPLCzE4Yax/2Ds5JChh5ogKpmQJeCX4R1BF0DCp0AurU+UxRbRg/MjHwI+KYyFjJ4BdMAUFSx3BdOCAQQJfEYCzV6rMaC2gcMVmMDL+gggrvBJ/5iNGTBRhVsGWKRMxOmL1nI8gP1BL6S3IOkctQlEbUbKX/pRCq4cpCMNxlOJdjMJk9cPsttxJChYfe8G9vIsjJBlFRNmImJnBiSm/qBDayTmYLTpKVbcHq/xNUf8TE7JEsJSt8dJHwQ8A2gYKUjrSao+NYaYnIjjj4LRLHJesRJe+Bj0DoDHKiRQ8soZ4+agJ4gm7eOA2R2CbLxtoOHFHnJsyImQXgNFUgVpHT1I5uWlWdVhCysjnnMChZNFz5kTKJBnyPA0RJvI8hOQMlwvItCImYSZWN2UlWy5CiawRdwG7CqUZxcAHEoDLD2ETYj1SMzwrEpCSGrYiZIyNi78CK2DGqKYnHqQtkYIpGeGulLnec/kuqBkG0ElGtokKAdtS8++vnXE4TQai3u5sIYnVmijAYIUBypBMRIxKqMXG0RYdNE7RFz8H/qPKA5Sb+MMdNuU0vpo4V2sRrohIXa8Dnn6+5tlPEIVeevudTYrOZO8GNoAZVYnaOlMjRvYtW4uJc8GHcGIhWYvRNzgR88cMCQGSJIbbrQEwI0gkYD8s3Z8k3mIGOSKNFgAxcMKwyCzHHYEwkHfyCX4xRQ2ARJ47QDeDDizoPsWH4oBFYNPWO1ciBvalj4agEucAeHoZI052FJBnYSJwaw215houBIzMnghxZ8kpEriOdQXZFPWFvBPL4y6s6k8OYADJIZJmaSW5ZUVx51TWUAr/yla82zJFBD8aQqQ4PyJgYmU7kR897p2bLTGTLVPufpzUnIKXhNr9TftNjlKzwYZvs1CZc8NdP+dpEob+vl3p7dLwJNmWG9dkBg3XnU2ukJQ+tspqoabprYwHaJSEORS9YSA3mzliuGTzZAxIKxDBxiowGAgiw1hIL/phVqYM/SdXWGSFCaGEmcZnzTsRrDEETHg3ANWKD/YC7sIcYqGIHcnYsrBEjA/1qhJO/gYLZK7FzufmcYmAWIQUtOOMKUchPUDOCCPyIMPwLEqhCLuK8YNzo8Vy7d/EyIiGj6VOnU10KGw/aounTi3UbYiTvHGb1oAMOImJKwQhdN2VSDSS3VMSTinht4RE/4RY+A//D6lvHzmB0MOiHh0IReWOeMFNGIUVTgm3D8H/72/RfFkfVvq99HtCio0XbgieJodI8b8DI0Ub0p1vuEt8NuAHaQsArFnDG20qsoom1OCHFMAxMCosYmYYJDHDyGCyEPyaPFsIBHPROhBhOI4oIW1QmguQWscKbKTOYMFIDW2MlJYDUgHAW1IKSMGAUSkzEOQBVHP6IMQK6w0tYdEToIEg7orGJjxhJnQgYGLgJNA1m0aMLkyq6UVUW3lMcHx0ZKYQgFm2/3RwXoQZzSTSl/4Jv/YBIQoxE9IY37M2gYaaU4rGUIaTECDQRUnEityWnsiUr/z+re7LbzgiwNJiiGZJNZUYV0eYybQ7c+TXuu3chKrAMEsmHj3wzja6pKPh0QWZOS/G1iFsBUFDnLgCrvWS4QlRj4CUqiRfOMmJUAA/BxJzzwBMDieKYWDj5BaAXb8CQDFm1oBHru+Kjm8YSKAVOmbFBT2xYk+NQEXYOYyWnRGYEXmSOGG9VeAfTqKYpsGMQEzRmhkgEIS0QCxMuO8gizvCecYFg6E7mlSM5rgxHfbidoKFdom8IIGY2NEEOMXWub9rahx4qYqloIT7kLS+l9gi5oBKCdX3u3B9S558ETB2o5Z3/JVVnkjoJJOm8U2Ip6TwQp/PespOO0W3ZU/A/pL1xsjBDgogxYMybjA9lRFQ9HDc1KGFVpY9/6jNoCGo+43l7PDNu2FDzzowNdl5VuAKbN302CBAfWLKG2i2PhdAiAZ8CPoiCLTgAIwTMCbPEGAzbhwRzNQOWCPgE5jWCGESOATgn4hyDgykLGdhB4KhRSI2ZQEKoVUuOAC0QB9sNZIgZ9EhUyYknduJEIxwBGYQWFoEHsahgCdeVeJkTtMEDkIgqO3NuxjTZfhe//W7Z3PnZDttl287NpvTWeupgBrRDZKkx8rF/2h033E4s0B1Hjze989+oLLiVdU+dFttjq1YMoZ6Yjjjm2CRwKmCcJDYqOyVOKRJL763PxAyk2ZzIbU3/p2eAYXwdg0wDPWKFyHUaiPBjIP74R1eQwxaa3/X6lysWy7ZnrL2RzGWBc4ut/d/6PHBwRKVZaK+znoEYjQE/nzkC4JUMQDUDRqMSFkwjFgT0YHQEgkBN0hFFDPtmBrxYzDioshIza8RRwlI/VTKQ4/bQRY2pfwSBMDF5ooRhAwEQzjyBcPT2Io6YjVktmsbMu8znFoMwW1SMBIeg8FqiVSwD0UMP3n/J2d//7jfOP+lT37jsnEvuvunupjmetQ3N2T7b4am27ZN526fkuzwNQu1/whfJFFo0Ml/rGdCRduWVBmb95OIrQmcLAD/1ifd/1kBBhpSRSQ9ej0T7DzWPtG15ORjClqf0P0VjmJnahLHBFB8ZEvWp0Hl1Gjo5TWs86lvtWJYlwEts7z96Hx4eMcGJGISVWOGznJutgw/bH5QRj9Diu9f4gTo20hrZqgrAwaoLGKBRo7KIUNpFp4yw8955p4YRlRSnB1KkcBLoSBBWAVGMm6IZKRPK4nCwMHMxRkY/+A1WAJlFLBqCy4D81AMPG7xEp9YUBOIY5oU6uBlDs+GUYN4J8hrgtJRxyaeUz5r348v+uN9xJ737hK9+5KsXvPW4k3d/2SFTFryyv/9Zu+32yhc9/01v2/vduz7hudMHd6l1P2n1xiZ15Djj80dRziWry3EhIO/72Kkd6airq5b15BN5QtiUM2TTA/nJGNqhvDV2ZgC/Uee9NflvnoFkb5Lsnsw2meE/jmAGW3y4ShKsUDr5Cx83rNtkvd357s/ak1atESyoRELOyDGpbBwZ3G5+dyMDMSn98qobo6s5h81ycICwGgDCAnYs2DuQqkYUhEQNfzGEEgIlfsIQkclASy4VBAWLqFSIncQxi5EMHCCpwbmwyyp4GmICN2w8iFUtVlFV0dUx2utkxhCSWMwsqIG9UARhjBgEXOEckIpDCforvjRYc80Rx+7nkj6bH6NKw0jZXrh0xTU33nH5r6+9//4VG0cjpXWegeIn7rjggKMPisserDvJp0wvRseXrR/CwOh/6IGHgA4ZImYlBIVMhF7IIgf8MzGnwtanMwPSSbcm/80zYMTADTHB2BDBvWONeKfYyTMRk9HDQbCvJvr4Z09yaCE78eh3UhxVI6ykxgIcU0KJhNhUpte/+Nnojb5nXXqFcBZzMqFKKhKRRGdKwsA1+pOYAqVAPvhiny+ERoN0gAxgKrivSw4ER3KwC4xaMWInTohJLSYEwQ8IZRpjagaFKTNIOBERScIaRyhjWNZZ4UaYUYsxIkaOwWcTp3oMRYAgqXM43IgEcuqYR4psSl976Jpq8e/O/+x7X/Xs3fvrNRYipoeDQhCyieLLX/S0O+76WWyOuTK0izHtm3X6F05jD70IyRe++FU3QYdU4CRJwAiiEF7EzMS0NTx6BuTRha35//cZALjABNbK8AJ4odCxXU6ZiQcrdsqgBmhKOUoU6PibX/8EWWRQ+f6PHkvj6xSBFEB2jj0Qmf51THStjccc+Q7qdL773oe4NV7rH9CgJA7wxvob0SFWirO3iAG+3psJw/bRhhfSNEbaDjucC5iBbEtgMZdljjOV5DawgpPzhFaN4oQBJw1CRugHJklQ4mhY4JnJOwyUGpgds0SwiybOOYCSfcTWQ40tgI3Cp8CRVEXnKKBMLpRl8eASXrFGcjrw+P1/ed3lQxtuaN3/+9t+fOpJx+z77je/dK+n7LLzttOfPH/W29/4or/87Bu/+c132mvW2Lp147Gqd3eJrz7zjUsM6hP5rKfRU6dHBenkISHehmdr/A8zMDFF/6F6a8X/3QwYTVgbFtLEgA1IIWKizkMTgR8uMCpAgpRIhP7tjW9HVomPfMsrXXdXtXYtedz/kWQJaFhhBedx52398B7P25M2c1mxcBnVBtELRwUALKo6IJyFmOEl1IiVci8QTClhE5XERPAOxIaFvcNI0A70kplFAgtDZyGs7BoJuwkjrOciGRlraiJwpdTFc+YVx38mxxY1GBkLgRt4JymMxAu8kBIZSChNTMTHP/Pek3Pg1jafSd1HpBtH4gMLw9232dLFrhaf9MI9PvTlj1zw/TN+d8MV9y78w20PXXXJhac++4VP14cW++ZI0W5hZOqZveLWu5qBJsKHP/pBVbWy8z8SmKiCEBOZrel/MgPyn9Rvrf4/nwGjBC3qBCaAKUGwU0K+8wYM8AYdUsROhpFBfVi6dOlYu50KZJ/89PG0dq30NYAeccrKDLBojJby1GxJd/2Vez65Q0wnff0c6vFAE9qBSlJzPmMW9EIx814V1+4Yiz3BEzis5ACpJ4YTAMPEhFPQlCNxuM8HGQcNagCw95ITKZsKsTg8xuJZkHLaW0QVgbbEKQgbPhwkRDpBnhj0kIcxsHCqMAeBslzhruCOjBw4xujh2iAkfEnWzc6H0qqNQ+WyVeW9d5f33VLcdVOx8P6w8O9x2QPNh5Zje8MBV4GZx6ak0ffuoz4OJ+M6wn/4QyeKY/YTJVQZxMILEdOMiMzW+O9mQP5deWvx/3IGjOgfTYyBi1TTeZCAIJHghQIh2KM6CPmXveDlVGPU7TwwbcZO80NzlZMuwpKrDGwDz4wlFJ5AKVSByg2n4KMQ8gAAEABJREFUfvk4AjXR+d+/Cv4hq9cEhCAw4BqoBzTNlFLOlD02ENgsK0BsJMogMiAcCEQNIgayqBrVFHA0ExZx8BGqgQyVqCG8FEMaPBu2B6whUFrPAWUygwhQGM1RyMFlRFWmVA9/wHAYhPkQYUdGwp4tHRaIMBiIGVeFBKm8M02ewFQ9O+YKlwbifZ51gQhOw5TAwrNUHCkGGeypRoevuu5OU5TpyU96oq+JRnBi2hQ6GSNC3FSz9fXvZ2CrC/j3M/J/We4Y2z/aGoz+Ydtj4sQ4dHCBHAy1U5F6mNGaFcvvf+heKgEt+d2vz7b2iDRD1cKHfyCJsakOUbEHcPi52MxztX5kl+e9YI+npf/K8HhZLrrjdnwbLyzDCu8kSwbP5LC1RplRK9jbWwVsk6oSEGPmXJJI1UKFz41gHhToYRBSciGhItB4QYB4JIA1smim9MJthsEhQDtmlxEZUwSmRYhJ2QspZUzYK+B7gRjB41AaOSgpmYYKd5MiTpSwf3CKyhjRU4RNAtcyRmcHR+NYPGHDkOXRLMK3sKSvHBY8phY0A7POO+e7RIRZQ3ret7/DUcUxYb4wKHWCETinSFvD/3oG5H9dvbX2/2gGlGBpnR6wvwSZzUXY3sPZlAE6qGOgjlJQS6aPlfvwE45PzUY7zZk+75m7xTXLImEDbwzGuD8jFiYG+IkJNWY6PEZDyy/96keJ0i940DEn0ZSp9XqjgyIQcwJYchsEaVSBQXNeWNCOQuKKenG5845Mk/hMDos+gT0WWKzUOIJohFuACOjGWTQMJQZ0pwMCeoCBgtoM539m59gDgKYEDCaRUBuUuCM3ymwkxKoYTJFhDGsIBJ08ehiBnZCJeKZEZpScJZMGU+TRBT4JjsAZUVCBNo0+Yv/ZL38LIiM2GrVnPuPpArcCciLMlVCSjjhxNkwailvj/2oG0kT9r+q31v3vz4ABGPwIOSOPmCpgr4gpBxvklE1PMstOHawzlZut9o8vu2yi5hff+xKND+t44evesSfAkgXcnHPMTAqkpNHS/0B43YZt93rBfq98Djpeff1dy/96E82aySSeCDf8rMYJj4xugBqGieiLK33n4AdUAe5UrqqKmSNW2EQdmMk5hws8IRb0ZIiqFivVKq3KZmmdZqbEmcTBTRCDUBLYQMQIBseR3AULYGiOFG0RcmswS+cBAN5QaWoE7sIiJKzIRw0BIpkpmqJDI5MGjEuKYGDFkjJMeVbFgqd233Htn1ZtGKZO+NCJH4+djAhbGqBTgAhEDFbEtDX8JzMg/0n91ur/cgbskVYj2Nimok28N7+wghID/KkWNoiIIiBhaDDgSI2SX9j/XftjDw6iXebN3PG5T9fVK13WqLBvBwnwgTThIopzxClggeXKQrsZF99/wWVfnT9rNjE96/VHSqvAGUE1sOIyTxVoYHLeo484lzqbi4BnVOdzAMU0Zs6LZFnmjQA6TyxmEFBInKQ9N8Ym8diNA59ViFGJK9xEkBJkFygEHlibTUmE0/GgU6UaNQbDqq74iABW2NGIM8FmhFJHE0wAKB1KE6RkZgH05Jg5eucruA0wdZlamqLOQ+bYBw3tytW7yddf966PGyGAE338wx9ynUIqM+aDMcHIb43/vzOw1QX8/07RfyQwZaKHDW5T++Yy3mhNlRMvxgt1gBZSYIeI0+KUCuzEFWX78svTf+smI7rwjE9QKIpWMIbnYI1MGkmYhYCeGCqYNcZ2xiFjL3VqjXJZ3HvrZdN6pqxdM7Jh3XojVhOMiHsAZwmICgyJEDgB3njDPTABVp1qMYohlhQJHoExqjhKvQ0bA1NFjUBWsHDYOjjnJHV1jji5DFESx8KOWYRVSAhZ7yGZAflp2yAEcUmZ1ZGRsma4y0fOiNDNKWEaGYGcE++d8xQsYrtg7NmwASLhDE0pZ6YG4doZRC39zBnDy1ctWbEGDMDiwIMOZPQl0sSRwJ3MmCAsng7J1uQ/nwH5z5u2tvyHGUjGlSwszVoysEcTpDKjIj14pfhwFhlm2K6R4PRPxECCsqCOXv7Szv/placdpw0+6zV7VatW5XlOgks2jlRSGgn0wiTCQiqU3k4Ul3hUuYxXrmn05GtXX9Nc9sveLGi7LUAb8BJTD2EHkQEtUxGhEIBmUUiiBsgRJeAT4QouGisRkopBQhbI1FBmiJrqmQgiqAp79GKoQaTooUijaURvDUQRnVIDrh2IiEmpKuBmCEJgaDEGWwDfohOIYQJyNiOGVswoKTNTljEqmbgT1CLe0VLfykyiy32D6t2v3fcEIupMD59zzpnIM5NwEpsp9SUE5JBujf/lDHTm8L+k2NqYLNg2T4MBN2woJaPEi1Jr500TBtdpm6j49ymMlNgRhWjYf483m9++4Pw//emaBJhIZ539US1LNzQeQ+AYStx7K8YCVyZjJlZDEpkUiHEkQJMgX6uFBxfbsvtdezyrYc8vlhZLQgeDJGxAboghKrBtmUdXctiTswefqAqYOw8/AewkpSIqiDAMmsnMNG0PnEBA8HMMXQ1LOcQihzohY/IZZHGKnMMSHhgY1UqohCNzPf2uUSOB1xB1aAlUlj6YqkatzMCcWVWILUEXw0FiEshk8CypCjKQkobgQP//sfMegJYVxbrwV9W99j5nzuTIRBhyzhKNICqiqKCSFROioBjICoqKIGLChJgwi8o1Z1EMIKgICJIZwuR05szJe6/uqv/rfWYQ7vV/716vqPe+6dOrQ3V3dXV1fdW91h6wHJDpxzB9xsDSFdf94U4AHPzMpz05hiZ9BKsQUUpZSpue/6wG9D/b8f/dfg5aFSM1wFSK3TMHQUEKOq2lsPHptG2sPCZ3YE1v77nnv2361CkiMr6n5+Uve0UMmsw3nzX9yc95mi99uD1hfMwOlaA8nBPt34lDcBpTojuzZjkTQsjuQXS45Vm72qyMtNLwaIiRGFJYQVU2nqrmxDwEloW1SC4crwKnBIwU0FXIGkL0KL2BgNUyvYpCzCkeGRGTmXJxFBQ5tylBdgMI1Ci8YahIVXVNnhrmbmU77a3b7OoLd8HsLXzuzrLNbrL9Hrr93rLTPnGXfauFW3fN2UxDRDbPNQUBgztUoMpUo5Iz6ZQc7FIWAQ0hi0qRMdiM6a981XkQehbA8IWvfd2AKIISqGNGlsZSFjbF/4sG9P/S/v9wM82ys/ox28IGm3LfUN9AGKttaOz0/+vJV7/6pe5x42bMmHbRO9+xvr98x1bQqAmn0v/7n74A7ZzTcOTXtkjgwTNUKyGg+QQQA0G0ajZBlLqFripqIAZjhNsIb9WIFc9Is6xCXCqpnXFBgUyQI4IpSRRb2MMEKPwJKoz993fiYLMoWz0b8edmwoAYgpAcOEPFumgVtAEzfkRUFdOU2R0WZ88fbeHScy8+cNenT5u409TuLSdU246fsE1PY4tJ3VtPG7fNE7Y76MI3vu2m39yA5vSw9Z7V9juFKdNy0myx4sxJnBeDnOpWTeklllcYUBp+U3CJVdUMjVG+VszdduDeJV/76W+V71IiCxduOX36dPpGbAgCMJZFYlP4z2mAFvKf6/j/Xi+hLflflr2h9ogH2GBqf+lQSoSN0f5KMbVLyueyD36QUDnmmOPbrRHwwCJJ9ISXHjNp8lR3dran7Lf99gcdmFeuVOEpbYJyKKPsDNt50DmM6OD7OTuD9BCb/J2OuHQSDCKEAEeJdfrBJXcGQegHcnYPJIlohyuE46T8QkfcWm3QOvM2zZs40Sag94CSJRyck2yEV/XCP3n2XPP2XiSR8v0QKQHONqGkdAeLb/l999bPPONDX/3dbQ/1DtXr6zwoNppkpMZQOw2kdOs9D573wS/s/czXysRdZ03e/guXfVZ6JjR22TVM7LFMR6MCEw2h8CNnRHQITqGAVPPrZ/f4iehuHnnC6ZBgBr4y/PyXvxB2KxGPDvLoyqby/1ED3L7/Y/v/i43eWXSBH5ExVulQOoZGhXVITBiLqbJtYz93FaG5Jg6ODdx/551dsTrtjW/EWFfDJz95BX/Tdsvvu+zj6/rWEkE01vee85owMmj8Mg+e7AKzLC4gJ7qOMtRSIgMVLQUnNluiRCEkBASCp9IY2J34gajnDOKVUZIIVByqFNDcyEuIfnMXEQ1KYd00CESSt0VIZmdnlQ9UjCNIADuUToH3AQjZGNtEgrtJZpsENW3M23qLKy8781XHPW+zmdPAkCXSFXFKRkPxNkJqiY1gq9YPn/jm9+qUfd547OvC5Mlhzvx2e4R3HJ7/EBPhnYXMgcBpKKVKbuZWDpO70trea373J/EMibNmTNpi/tzCUUqy6fnbNKB/27D/xaMcxaAcnYyJO20YGwPpXtrZUEgCcRgTkVJ1NXYIgYBM++2159Y77lgTkAC1vPOO27vnV7zyVVEqdn36k5/IFG4H77/1E57+FPStKzAFjHBlyYQ83cVo6jy+Q6UIBXwg7GCJf5nchF/hnTjNuabTgJlb+UzAd3ZAVBHJBSIUSgBPmaFt9AtSBV6zycoDMUb5cw5Vg6PJi+Dy7BI0qpKH0DFQKPciD5mohKDC9fAhU5NkDO6p5S289JUvvvxTb1/+0DU+dMto768H1v46LflJ7x+/tvymr9x9zRXffP/ZRx/6hKldofyvwlBxLgAf/MoP5855yvBgasyaM9LmLYNMOY2DWnbnVO50C+7jizjomfGCF7+OOuD8XM+Nv/8jwIWQjfNBJymFTc9/RQNFmf+V/v87+xbjKQ9XR9NjCuFfyZk9Uix1ASkYCyyzIIVAR0CUsFbs9d577lWtbvzjzQox0oD3vP/S2/58p5neftu9EGm30m23lw/agH78gxf4UG8e5Z2c1ux8M2YHAt+K7zDPuRSUKGaeDERFFNUgAaJsJBzdiNhg/B4vdB6uClUNQYTHOEwJEvWcEjEt8IY23b12M+LNsjlEyLy4D3GCyEUosgk7mAfhcjL759JUaJy7FM3YTZQjyhB2gHk92D96x52jt9+WlyxOqx6o+lZ3DQ/wm8WUedM323LLbffb6/mvOfor//apNetuWPPAt778gTfttnXnAAeW9Q9sv+/hGD+xa1xTyJKLE4ytgpcfeoAyR93WGRPWL1n/vV/9XlBuQPMXbj1384UAWH10gk3hv6gB/S/2/9/ZnYY3ZkobluclZ1LMqzyl+lce9uiYI3MBrdf4KevS979v+x22KwyVxyumT53c37/+za9/M4dPHt+z667bsnDRhZd4QTh23mrm1nvsJMP95KBePou5EH4cbVIgq1o1RHjsEYeEP4vKA1egnelEA6vgoUnAAMIJAxSI7sIAIECTJeI8BvZVVXoKE1WFaiOSJKKACNiTvThlJQgCIlo6ASiOhrd9jSGyB0Up4rggK1xVgqA4GKsRQ6gmTWh09yC3dSSllrX6hkeWr86r1qQVK0buv2fkrjtGH7xHlq6YOnHGMae+6JZ7r1l60zcP2383AIuXrrr3N7/U7gkQqEE2At8AABAASURBVIhA6IdcMlISXnA0S6zyuM2ec9TLgCIxPxPc+sff5aJgag6bwn9HA7SA/87w/x1jnZYHOM0OndKGxLExdErl+NtIGMsFNELhEdmpDg6PzJw146wzzmCtnF2GCy66YPXa3i6iImDFipUjo/VeT3hCX+/gxe99J/sA8cMXnoqRGiMthziytR0IEKlK4mYJYsKHmGYUFwFxW/FzYDnI6Rd4QKagHCEoSTAhBy/Hs/ClpPx2B8poSNnNsnkOXrBLGpFm4PnPa7wp4MLxxqkkCKCkmDkxL2YxCBm6u6omFY10E8qJOgi0AFRVJZrJq1xLqsj7DIUmqxhy4EpCgwJpo7vZ090Q/u7Rbi97ON19ny26Z87Wm33v11/683VfCKhWDI2i3YvsqW45bxmUSOl2gnNyyz519ppbF/3mj0sCPIsu3GGXKZOnVFBAwOB8NsW/UQNU4t848n/RsDEz4jH+qDXRqjrkDqlTkjFz6xAeSRQSdLRVv/PCiyaMHz84sF5FSqNVS5YsOf/s81iuYjDHoc95TqL51v7uS94+Wv7XIDqtp+upRxxmKxcNtUcJPGIcKua0f3oj1sgnek7CKdhA6MdIqLp79lqMd/4ijwidRMzGVwf18uueKSVwjlGZNL45ZUpj+rQqegg8qwEF+znRyVcIvv8jBKm8HPkg9kDOKVs7U2YROCDuxgLdQ5mYdfV224w+j2SDcVqe0czpHUJyTzWlQSOSJ0fTHwmFSZJgdcjJ69QOau7eaGpoqrXS8sXp4Qe222Gb4WU/etI+O3uuJETVKFGtSIhkphE6rlu7enZ71nGIHeHc/njT7+g13bAhyIZ8U/Y3aED/hjH/O4bQSGmNZS1ezJ14ot2Xanmc1ZI/9nFnnU8mklhKKX/8wx+evdnMcV2N899+LilGo5Rqz732zXl47ty55MshNHoV3HLTTfB0yy1/+OJnPqdRCK+rP3oaNA71E05d4EgBPUWsOoeu0hmIRIcEcxFxc0vJKHCu65R5EArAQzfxQyDhCb4/WAuu4jCVHIjoGim86byP/+rXf9AttiaoMt8CAlTUNcTIUmXsRXBqQzyIhhCi042YeeZ9gad9pJBlFrNs2T1Z3aYsxq957gKlyDFWQYzyWRAp9wGnTJm/3muDHMnCTXmdFwCiXEjIHr1Mk+FtXkf4ztJqy6qloX997h+xkXYyr/kKUdchVJrrqFVq17Jg+3ecd8nK3oHQ8U6HH3nkuO5GU5zOEWXxTDbFv10D+rcP/Z850ovYnQSgabJEc2YBjwl/IZQOHTsrhXLuiCMM5/aTnnpw1VO99vWvX7lyNYf2NLvILka5+aab//CHG1T5Qm6ki5RLOAsAGYDqHhrsteRwf8rRR+aH7u9pNkMoCBMpkyZiTZzW7YFdSHIHL91EEmjxDpGgEDZlwlhYKRM5wFKFEjy4hGyCSqZO+sWvbnrKEWf9/ifXxrnzmgFVrQgNMYiRPUQqPuaJLs0pZs3LPDheY0NKQwEc3Nys4ieJ0FAuT0SCQ5mpBiHCc8pG30Xw5sxbiLk7PVb2nBKdBscK5RZk/rGJ0HdjowDF23AoHRP9FziUCnJHDiGqaEq10V2g1Zy+2ci6obe/9zPFJxhiI3zr61+nCowzddYrJd30/O0a0L996P+skYRJR+COxQjNrdRYcWeCUmcPxkLmU2yV4KOdFSCUf5ZDokLvuf322bNmEre/+fXPUXvo6K/qagy32uTx0ENLd959RzKkKY+ZPiHU6HQiYiFodFXttgLy4bNPTNB6aDRFVkMZYmynMERvOTFhBhhIoBgIhI/zGCXSiSi2iLIKyVCXIrVzsDmYGUMIvCwQLpe/62Qg7/Oc00bW9MsWW2eOSW0xYl1TzrFg2HnhIJglC3kT246AYOZ1dmEmgqD0Rua5hriSBKFWrIinkATKI1oEFZXIi4MCSGSnAvo2sdisVKk5NdXizOgLOB7ugLJPKowAEyHF1bNQSKcgvClZDF02a/pBz+BXQPCLI4DLL/uoiLAg7IJN4e+ggbJhfwc2/7osaGmMgHSMDhuDkAA4rUkKydnMvFNmjg6YpGOjwWmbFXDbTTdUPd3b7brrylXl2I+G4Dxuq223numjOZqQ48zZs6lQJ+NyyhLF5KMGA5B41gKjo/UoT0vgNWe/RlY8GDVKztE5iEBmZ7dcu3QO0ExQanaPIYKsSx/yraFBg4gJ36yBAAs5Z47k2RoUkUJ5hjmPaqxesd+RzwJ5A5O2P8LWD2LzBRU/5glJZYTVI2bZOJq64fwg6AFxNRUVcedDAWC5tlRqEvipDw420/Uop3HCnG8fwv7gaOt4IXIzCEpgz9RuUyJkKghRorJFikeQcp0ABRURM1EJIGPG0HQp+jLJebMt7r72xhv+eDtVCtgWCzZ/xatPKnwBYR8wbMhY2hT/Ng3o3zbsX3xUx2I6CWgiQpssAjMvWecpuAbYhe0ksEmEsGDRSQQtkg2l6JBbb7ldJO629/6WRzusirE6cPAT5q/+5Vk3ffPcJF5LnrnZLJ5c5MCRSoagJTuUYCGB6JsH1qLsuu0Oa2/9rvCUHUymTgEtELBlcs4KaAeTMVRVdt7AgxDxyEo+qiI8/DPlliCBr+EiEIQYVIOUndTQCAJ1t6BhdM0aaOOEw58BoB5ZP2H+gWnF2rTFQgvNUPO+LaRr6Az0UnQGcdbpQpTORVxFlS8ayjyQvWcLVIkoRyoUhK+rU2+S2QNCX0e3xSPeA1vZSRDY6m7lp43gpcXZn98Ei38hG1a4yFxWBwbqgJLwAiLCvnHKxBD1oOefCuWSwZY77rmLPoYeNW/wNRyzKf53NaD/XQb/kuOF9kJwFLPpyEeoAMXsQPiANgQRmigNlYROdFYFwjIbcna+24IjgN1322PPPXelLXc1YucuGhvqp7xonyV/uOjHXz19+jxdfOd94OiM5x72bBposVaUQF4dsLCRBo2jjjmGVEG47IJTJ+20a3vNcr6YQwnfIJzXLPBergEiVYwEsTsCKq7DCS0gGxFkory7C0saiMnoxqOVUbI78QpHu5WywU0yLPLHyDW9V3z8bIAfBjA8mmfvccS6RavCggUWxdr8pliBbMyQEWJ0QTJPqUZOhJhKuV+ImYioFZ1RH0bgu5Eh+Tt4NUiW6QAlm/FOABHVKOV7n7uL1RSGwxVKsVkAlFcGdVPyt5Qg2UMk1dmRcnMSCYJG5R4bUWdu/q7zLl2xfohkzviRj3yiq9klXJlCVBhI3BT/+xrQ/z6LfyIHIoQ2f+W3b3SWNsqxsfhIXgo0SchGz/DoRZdGjhQ+G6NDvBn1jW8+LYjc/qdbSJecR9tpxqzxX7v4BUP3feQjHzphcsgr77knDcqfHxwgQtnnRUe8UMQcRCJrjOTJyLoJbP999yEpp/T9624O2tLyv9/i9y5L/BMTUQ40fgIjOOCi2VLbrM65YE2E1wRTcrFMjEgIiZcIM5Au7M3BfHsoZ7Q6P08Y27kEt5TXruyaOmvLzedoQDNo/8DwnN0OWfSHW8LcLUIzoh5FytnB8XCvEENAiAEOK+e2hkgfZAoBFcEIEMJBCNpc+nBgIdA/CDUrlEwV7GOCgmfwngJ6rsyKiUB52XEvKVxEnCIilESAqhKF8M/oOVIyD7Nnrrj9nre990p0wvRZ00855SQBewQApS+zTfHvoQH9ezD5p/BwziqgTahbxqOwR1CAJsmWEtmDvUCbA1BKKAOBjVmH1KkVenmAVj187NFHf/D9lwW+ugKVhukTJvzs8lOXXHvRi449oLVi5fI7FvUNjFizGXom3HDbnSA6gf322lNQQLCBJTYG0lwPfOKTpYAEH/rkF0cWPyzjeipvmAbhEHMoKIOoUXAjQEJTeTx6FiOG6L4saBRp5Jp1104gTkVdJaDjJgDh2dp2OgY+IhCotls5t/K/feptLZ643QX1qZW3fuJLvnv1T3Sr3aXznypKqKCxDcKWJ7mAulONoTL6ppxg9E/uGbCiMeonSUqd+76KchIJUdlSTvfSo8jKEdoRPLmGUNo5mhcVsgAvDfRiBcYinIvcc8f5iWqEInQJJWlOnYGunp0PPKZwBKpGY9XyVYUB+WBT+DtrQP/O/P7h7GJAaDSIAsBpU2X+km8ogscQeMIV8san0+Sd62yHRLMGbblE8HL61nPfPmn81K9cdRV4E04G4L1vPHzVHRc89eDZ/b0rF9+5fO3AMPhSXOfUUsn5jsWDnUlUo3o2OiTvcOTARyLBMmPGzBCDm6bWyJ9uubWaMcn4XuHg0RiaTSHwXNxFqyAgv3LM0gsQ4oS6qopwFXWotLS1W+XYpcDGGdwEQhixg6ERo2ikJrz8owJtdjXCuqW7PGmfAIwOJwlVs7s7As972TmvPeENmD6tsdns0KYPSeq1KiB8T7cgdCaUhq/oLLo7G0w80xGoSKUxViqUWz1IkRWkqri55cRQatCxBXFMtg6fWCE7WGSzGwK4LgDK2QqXTCEcCJ60ipg14zmHvLR3dIQdGD/9iU8yDeQI8mVxU/x7akD/nsz+wbxoMoCI7LDF7BBUIBgLnZyNjADpGGvpVGl5ABPxwLwTpZPC/dvf+vZmkyddeNE7UqobPVU3X5GB95126GnnHLXmvuUrHuxrD46igE34ulzzlq6eow4Oj+nQJkydQqgbZ+xw9DINWROhhK1lt7333QssAue952PemC5VdP7aaLyvt/gruJUmIeAAJ1pEVUMMMcLFcmYDuAw6CRFIOYg5Tgg8FwWxVwBVSoIxaTgmiJtYarUt6Itf/EyYq4unVowGCR//+veeuP9xtbXDdnMj+SS6NRQuiJ4T/Qn7cwkiQd0AcS0KsyyW+enThFKwt5t58pRhBgf7xsjhmU5D2EHIlwoTtY5UIWjs9MsuHVcp0ITSJMlN3A0j7s0ttv3c+z/3/d/8iQy1wgEHHHjCiS8REZQ/bAp/dw2MGczfne3fn6ED5rSKwpllp0WUYsn22H62dMr/LqEduxcaW4sVlyJoaO5OVp1aSbxuv/6NZ0nU57/g+b1D/YUEffpOs7/xwRNFG+tGhqD1wEiChMSBHEmmvGgkIqV2pP7+IQ4p+EBJikI3Tkq6QThCRQPkvRe/jxQO/en1i9q9q8PkiXW7hUZDTTRKUA08ABHIHsqPAblu1/wsyUU7SULGKkG9rFgDP0qKOqGUayBo5M+TtZCPZwKJ/U04FYoTSzmsX3PpWacCMsL3AWJQYrcqsl13y53jZjztV1dfI9vs0Jw6FS3CNXvlLipCVfMuYMxZZ0bFaWAtOzeCMXNZ5EEnRgKjShCOMzNqSXhLoRww5UQCAxm4pZTNeCmgiN5p8uRsLJQAhWgVumdvfsu1vzrxzPcq5XcErX5z3bXuFAabwuOkAX2c+P4d2dKgaWJkSFlpGCwwZUR5WPOwocDyv4uysQ8trJiRudG2SFUhBvKyJQ/vsduesdH88Acv4Us4Sm+dPannc5e86DtfP/0xIQmgAAAQAElEQVTZL3iyW/vz37yVH+YLjgOtn8YolnkUuijf12GIy9b0CsawZjRjQr6wKbOVXNgR8Gwuvt9++4aqu9NiF19yhc6YUUW+AoRaEHivJjraLcKap7q4BagITCwwJ6KEU1N8UG4wWFsg2ZJEJXBJAOhJKKbATUSFk5q4lLKtWTdnz10nNvnN3xAqXgZ4ajdCYJ8Ef+qxZ7/q+a/HzDk6f7rTrdR8IzBANSh5G4UQjuiw9EwHhTKDMZVOyAIRTgZ3Ta0aBl5dIDz/KYOWNlGGZPyASTE9BmEHT3QLHAGVEKAxVJZSnDl3zYplBzzzZGjHDwI3XX+dpQjhH8duio+LBvRx4fp3ZSoM4HGBxxqCwTEWRP/KKqTTJhv7pGSkqJSEYPryVV+aMn3O/Pmb3/Knm630FPdALpe88ZD7/nDJMc/ea2TtgBnfRauHV/ejf21PV4U2rTWoGMXwKBAhR16B25ZVVYBWi5cCzkcUkyMJhAOIF1CIwKoG1Ve9/Fhe7Vl514e+6P2tasYMGxkKZlyM5czj0STBeOyBI5UL05CzMXcj1Upgg5CjOLl4qbjxaqBSEVwCzhdVqsDxXKY5jI6inTHce9JrX0yNqafUpusgcnNDNQhU5DPfv2bWzH36Fvc3ttxOu7qcC6Ufoty8nBRZhDUxysVcObGogFW6QnKAiPC+kJmBA4Ow6jlzLnfi2uAc6lp1xUi5KZgWyaOqItB1ZL4DJaR2tXB+f//qubu9mEpXp7eVyy77yI57PiEUD4BN4fHTAM3+8WP+d+Ds5MHHCVGW/hIdCqEFkcKM6f9PLBYMh8fIDj40PHrWWWdFjccffXxf3yrh0KCATp088fMXHbvqxove+JpDRpYsXbJixbpVfTqha8bUyZzDBjx2VTUt2lxEeH66Iag6IO3E1/lsxrKjHLucTIRHIhjImgPgAsrqTvqHLv9oSmDnBL34/Avbk6cHrYSfyohjIUT4/s7XY+IdZgYl3KAQy9lFpSJiCwjJXYimbAoCDBREeQNwz/wzoVhCAcqURUglgypiaPiCN7wUKLeVyGFaCvQtUbQZQ8N91bqB6bs970sfvTLMW6jTp5tbmTxng7A/Z+MaAArlZKK8DChUSGbNHRJCEEgMmkufhI68XCf5Uy0UM7hrCVDnglyym8M5RtHsaoYFs+tVazbf6oVpmO81MPeDnvyk173ulODkvyk+vhrQx5f93859w+bTviDk4sJ0A43VDo25PIrEKuOjCKWoHMbOsvThZXvvtfv4nnGXvPeSghspC8+OCc3w0fOf9/CNbz/6yF0r6Vt0/8qhkVZDuokmMttqTo9G3Ldsec8UfhxMxIMZaktmmXhQCVWjGQo62RfDQ4MEJydjpczKDJ2aoCNmEaeB5rZb7YAS7C0f+X5jpOVTJ1lqwwOhoRoQQgBUBUzAC3GAKi/ibslb2YUjsxSMOMtKQIHuyBMvAgaIaAjMc20wM7dESSmx+XDvinHzNp86qaeunbKTxsWosqPRZzSijmsEWD7+TR/Yd8/DoTFsuwM6XyurWKDKx8rUysFGvpSIs3FZnBFB6aAtO4EOsczmLIGAhyq4KEghWqYobk6HaXCI8LdAAVdC1zx97sCqwZ5tDu9rDWlZOObM3uyaX/7SAXbApvA4a0AfZ/7/BfZly8e6O42EpUIQdMrMSJBCYV5ip+h4NKmQH200HFQnf8/F7xk/fvy8zeffdPOfApfrpZu7T5887kPnv3DNHR8++fg9R1YsXv7w8r7VdaVRqsotjfDy3F6/3x5zTONPf3pPY/z4EKsoXs5FSFBebq1VtyXXrZTGhFi5fKlz+vyIwF5m2ii/COcmwa/97W+YseJen3P6OzBtjnY1SiO7uwUQHPxNnjj37MQpEc3YOYmjinBNQkCqBpGIEAqf5EGyiHBi8xpOpHW6CJtJFSfKy3/FlM8/7XiABzU4qgHhWwxAfDqCpLZ1kwr/3R0PVNMO/NlXrtYtd4rzt6nbMDqZwlt5E6OLCaokkQ+BT7dBKRLPdPJJ2YzfEXjwB85YJzHjXFyVhCAiLMAtcwgSuBILOY4bX22+9eI77p651fPqZFVsJJPunvGLly33jGwwvlphU3h8NVC2/fGd4T/FvdhHx0iIGId0/pgAUsoABCUQeCXj41IOHVgaayCFVo/MnBxoon7jb2/ccettu7rj2eecPTTEj/ZKhNCq2GP7hbN+evkrl193/qnHPWFoycNL7u8bHlFNGhpBwLdYqWvrGhdaa4efsf+2aOdf/f5+E6jmRHRRIOPLu3gdumIjTO6aObVrbNqh4REz8NzbKJI4SthYLWVAZk2dOmez2QZA/OJPfmtk1doweY63a5EUorQsqZXZQAikdiIEhdcAcVExp4NQ5XW7ItpCqQSuKKjAVagbp/TqIlWIJImw6IaSRn6GXLHk1ae+BNRNRFUhBGcv/oRHFSaEqqleVQpTU3cccvx5B+357HUPLW5st7OMm1xrDaklREhldE3mySllGCV3smcVCVGKJNwpiZZNtQ40rowAenTWhXKrVEBOAa1QhwkNmTrzB1/53uYHHNciITbq1J4/f+7QwHqOk4Co0EqwKTzOGqC2H+cZ/lPsy05bSQBaLmiEQMH4GIhoaKyWyC5sYxQHRZfOD81sMDoAQTvQwPPpb35Vd4z7HbDfnYvuNbPI5hKtEj3sydvd8+O3/PkXbz/oqduu612/9KE1Q/3tyF/UQJsuHAlwRiMUaxvqH95/320B/+VND9AaFZEGWfFtPRRcacxRHc3Y1QjohN/86rdBCYhUBCfFUaRl4d9FwR9u+WOhcQGIBz/tKJk8pdGtXEv5jSw7Mn+dEwtRtYpV050nvClcgmRzL5d3g5fLhlsOqhA6B7Nyv08qFKCoT1XN3VyDKueiqPXocGPGlOmTJ3oCozmlQzIi29zqEILVzq4GgzgQrr357ql7PO+MV50Rp44fN2/3xuQpbRmNcBDhHJw9mDTJKbXbNeelEgIFUTGxxOkqRBYoioYqgE4T2T1rIvfo0j1nc50467gjX/Ocl51PQSLvJrk9rqfn/kUPUP8UeFP8h2lA/2Ez/R8mcifQoEw7nYQ2aKRQNqHJwRTSaUDJaSJCGxVkooUUgsNNVe697fYdttgmaHzfBz7VNuMI9Uh7TkBPs7rojOeuueWi73zx5C3ndD18192LH1w2PFADTrSTKXHNOXjoiiunVOEPhcFbacLsSRCs7h8aWj/cHB9TJlcPUSuVVHttNQYG50+dGKEAfvLzXzGle+AQFrgIbFxRqXbKXJYqZs7a7JCDnoEMVPmGe1fc8p3vkZRTorTNENFoBElcInjVhsXQ5FAXySYZSWJUfvtXntWeYU5kkSkoQRAlCLkm5yLMi1LZYmU9all5KZfR9iXnnkxheL/mhwUe5w0NdJHkOzDc5vFPXX3xc1cc9tznBgongOiln/1OmLj/Ry69DJPnjpu9g06bodKlEgK1EMRDVTXGdTX4e0nwnKyjTS7QjUuB02dS7FRDyc8kWdTQmD4rbrP1oruWbrPT87/8kxsavJCIJNh222zTP9hf8eiHYixw2WOFTenjqYGN6n485/i/8pZibfBi9eCtkcYrlEus2ACbWH40iw1U0K4K2fDWt75l4tRJ2++6y6IlDxN+ghgIBIFVeYvZE7/7wRP773j32Sc/sVH3Lb17ydJl62OmCUeCiMPFLaUykbmJczJz5ytsK1oYbedUj+yy9WzC4a57V3d3R4dZrSEbB2hUowSxMXPmhFQMHg8vfthVHJEyFBkpA1jEhkDe2GDdFO/HP/uRIIBYRH7ycadnxObUKZGM3ZC0nZyjhSIa3JO5EclUg5AKIS0QgQLJrsrLDVNhB66bw2BUJB9Oza9y7tnIUoUjzdYsf9kby/9+g92CIgRRp8jSjBIFljOA40541fe+/Z3zL7yAOyG1kWKQ173tikb3Tmed8RbKK9tuHhZsKRN62rmto20bGTEfQcwBvCRxJ4Oj8tAAVwd6CNGuquXt2BCZMyVssaC/b/jFLz5tq72PXvTwCjJv1y0q77Q3nXHX3fcE+j1KRupYlLFsU/r4aoB29fhO8H/iXvabeKexlSglKYYrUrD4qIGl34ZqKRoyUYC+3vX77LNXiHLRuy8e6O/n4VM1QcNzpAw8Y++Fi374jgduOP+wZ++wbum6xXeuWrmm7VAQ9KLCORTF/FW1TGwhKKsuwVxIA+FFZrW95Dl7GvCDa+9qTpioxFuESxkfnViLaOVtt+/8//AVDy66h5xUCTaXIi4nKdlffTLkox/+MJt47A0MpfNOucBmzPXuJt+xoRqqKIQuLPJlXRCUl2rKhVBuBK5G1BQdqEiyRCcBcFqXzHmV921KwCZRgSjXBTcuWkVttEaM++zCtxuYkYO0zLIZf4kzcnVcfvlH4WgDbz33fHqO7XfaEaBLc75gmYZLPvHd5uynPOfJx9x+w43eM6G5cGfffEGYUhm9ZpvTtlMeres6p9HEO5Ii08Opak9XY/7mYZst+tfWhz7lpEnbHPr1b/2iERtlJwERfPlLn//g+y4BQ2RNmG+K/0gN6D9ysn8/FxFTbKCQxWgSjwjTsQOnCdOY2cp+bIW7g91Eb7399vlbbDl12pTf//6P4ij9MgiLerjdCN0XvPnQ3ls/+OOvnzpnqq14YOWS+9aMDo7Q5KpK1bJYYc6v1wIhNzM3QNEwL2cpLFfGU9c5WTZPI/Vzn7MnoN/43h8QpKEiwhYiCjVRxTcHr5+w2/wA+g+0RkeIH4qbUpGW5U5GwmMj/RdMBa855TVdXeNLDbjoCz+6/cc/CbNncBXg67k3gzaEN21k5x+IVM5LPk7H5RAxDyo87j1TTBNj6gyclJzd2Q72EgrpUAlscjOpsw/3v/X1LwUiu0EsKLspQ1brGTfu1a9+LdXDExyJ3kTuuP3Pd99xb/f48ZmTl3+JDOY/+s2tezzz5PEzDjrxxNPv+v2tYeKWza12qHbcs9put+a2uzW23TpuvrDafGfbbs9q271t/lajqfHVK388b8YhU7c+9Mc33BwBbkQ7jTqw525PGB6tjzn2eIwFkmSstCn9x2lA/zFTOXd340yPKuIvO05sbewwltMGadClB/HYaaXJ3/CHP0yaOGX33Xdb8vADG7oBRlwAMydN/vq7jhu+6z3nv+7ZzdF1q+95qLd3Xd3KsWEaY1Yl1t1h8OQmIgZRogPixj8eYpKZECsBIlragw4NjmyxYCZn+NOile2RutnTiOwMz5opTLNRjQyO7LHtvAwTrkrQ3zdAqULoLEsgrDwmshMQqHMe2mDzovvvKyQB4E957ul8029Mn0Dga2pB+GJOBRAyIiYVmQos84TOohxkZhRXY2yKBgM0VGQi4kEIbyrPlQnncLC3BKHE8CSD/c988TMpQSaVJCcJwhdyw34H7kc5VMiG3CSXcdh6h637Bwa+/b1vbzZrNluBLALe+Gsf+fxV39/lGafIxS1XOwAAEABJREFUlN17Jux9wB6HvObIU85+9Vs+ev7ln/rg595x5ttffeQJB+z85EZz5+65Tz3u1LctXbOOfKUSEdTtzML3v//9P9zyu64YuX+FM+Xh1KW06fmHaoDG8I+YjxtPC+BMNFZuNLeb5RLHDJQlUpk+KgpNkER2Lal96Qtf6RrXvf+B+wwN9NGwJQStCA9wAfvusfBXV569/K6Ln3vkjgMrlqy5+551g+02oucCHHfCM5dvd3UBDQEWOwAsX8zZolDxGERVFKIinDeE0Dbt1ti/fqhq6jYLNqNc9969qhrX4M/ukYLRcQhB6CMD7alTQlXFXITEd3/6EwPIAo8KXAFjh0DenXxjMnv2rBNedRJce7qqvpxe86q3yqwFCN3QnInmtgl/HSicuQhzMfJxBCVsNKhG+gAKAtUQo5JnoPjIbvRxYIOCKwYMQm5G8KrEvG5dY3zXgbttCSDzckDmZqMjI6xe89Ofv+OiC40lKSv0UoIYeCk6/LDDl6xY9qvrfjZnxlT6W34RcAdn7IrFT40k++2tD37iOz+75Mpvvu6Sy09+28ff+fGvXvmtX/7uzodArUaMC+yLAHjtXjXeet6brb/9jGc9gwRTGNfFhQkn3hT/CRooe/OPmJZ73JlmbD5ut8OMFHGWmY/F0osNPJpoyOi0CM488yyN1fEvOTa3RpFJVVqo56we33fW8wfv/MBvf3Da3rt2rbzz7mUPrB0c4hW9OwQXjUklJ7Rqvi6zTsygig0NjeQMOXmOSuwEjU3VGKoQqighqPAibM0q1OYVeHlo77vLPIheeuU142dNabc9WShSEyceWgmNSZO3XzANXlZw9dVfLQvMZWWlzscpcImdIjaUUAJR5OKf/cTlnHNotGDp8qt+dt0Pvq9zZrUGhj2EwDuHBhEKx0TFhPLxbE9tLsnqzA/swgZkBxmVaORJ2UJQIeAgTa5KuQSHeRYkbdpIy7Jfcv5rIfwJJqQsIcgeu+8OBsHbzn3rD777bRYhHrXoXxQsGBmbP2n/g5euWrt86fI3n3Vmz4TxXGRHaowFUS3SBGk0VIIo5zSIuGUM5wyFBr30vZe0h0ff+Y5L0RWDRg6kukrvMhVrm+I/QQPcgsd9VkcHB3jsPrt25u4QabkdKdjTzBQSg9BSz3/L22lVtBt0fm5Knb4J1hX1Gx88ceS2d73+Zfug1b/opodWrxqoU6gaAWLZcl2nlNs0P9C+gopAg8RYPuHlVNP6QmiEEDLQHq0zXwB4vhp4tYYnhjrlzJiTSUhD9YnP3wNuV/3w7myt7iq1QeE4WkOkD2hbK7/0+KcB6G7oj77/g3bKCKyV6Ew6MnNdG4vMN0QREK4C3P7nP2twFjjLU59zRh5Y39h8Ntq5VYQPQrnc3QBFLiLy+m4aUBFkFDePCqhfGL8ZGNEuZGp0CuxalkAy3IsGKoXWA9WCOTo4cPMd96jAiU64qtzw619vtdnswgU4/PkvevChB8mlSFkWUMjSCS7GymYzZ1160XsG+wdWr+m9/BOfeMpTn9ZsdrGzG/2Ec+p2i97VbWxsxsKFCz942YdHR0ZH6/rNp5/BXw7YmVHw7wwCm8I/RQP6uM/q3Glu98Z5fGOhY7ilQnuFWLEfGrmo8hJsl7z7oirGC999AeVjhCJxoGPbhTNvuOq1I/d/8AWH7tS3YunSRWv71wwFnlNBIXyQ2C/w7CHjSlQ7k5i4eOY0QleTy/nkxuuBUjCNMcATS2TPzgaDsIeAY5WPDPatf/IBWwaVVmtkeGWaMrOnkiQRktWye7NZrx086hk7AxhpWxoeqQL5kienwiPLlr8UOQn7llj8gpTq9tttc/jzXyiKAH4N8EOefUqcOQeTG90SlLLQUYHji48QlRJ4IaCfA5sVpgQ7Fxjo2DTXVovxvm3JEASuvGoZ/QWLVqc4dSomTt92lxe89ryPc6EaFUCqrTF+/E+v/yXnUIFbfeCT9jUGtlE8poBIJ/LewI1iFwLcMH3a5FefdNK1v7hmdHSE4gyNDA4PD9z6x5u+etVV1//2+nX96weGR9z9/vvuPe3UU5uNpkqZjprDX4L8pbip9E/SQNmVx2Nqf4Tp2C4/Uu8U3K1Y1Vgfnqm0PBUptu6XvufSWIWz33JuUy12OnTI4568++Y3f/ecu687d69d5/Q+tGzxouUjdZdqo5VdVFLi+ynNVqOIO+3ULddO+xeJsUH0ZJh5zmZR0HENUIhbTfcAxLpu07AD25zwYgcisyCUo0aH29WE7u3nz4DgC1+8rmfa5Jw9c0C7TamDyWhreLNJ/DUSjagU4iMfvqxILSIl+2tPp4FqEHIEKDzL3/zG1zU2OivFL26++91vek9j4gyrak7EBQWBATxXhSvhLQMBIgIeyRKqSoJyxexJpYYYNQiDQpKyg4G+SoN5XU2egDlbHPKko+9bsZJDo6CrK0LjIc882GELF25z5AtfxCm6m9WyZasvee8lCvYyJmWikrMIMVEogyioUKOGIQ4XSHdXT3f3+F332POoF794//32nzxh4vjucjsQCZAydtPzr6mBstF/d8lo07QLWtBf4axwh9CCNjSzBqHpAZ/9/GdJP+OcMziqKWh5+YHaEA/cfcHyX571y++cvsPm49Y9sHrZQ739A4n3eK/bxLCDCIAoP9XDkZ2DC1488HuA1cpTlBNZVjY4LRUpJzWREIRgpwnXlr0NobcR2jOx5krjps2yt7FUt81GWy98/n7k/qGrf+vaCKVfw4Nmz2Y6MtyK45vbbjW9ncrcX/7ClymEd2Qo9f+fhxOwxUGRGDktFt97D90S5YDjLR/84o3X/CpMmRu7KtfIKwv1WZagquDJznHOK4ixa1EnckopZ7q8KNSDQ6gQMpNgAVSSedU1AXM2f/1xr//Z72+LwncWuo5qcKiGpeNf8nJhX+BLV36Ruhxp1VzYOWefMzTMXyU65kF+G3JABeKcG2CR0pQGgXQiaZvi/zwNlC38u0nthRMTYb7xIQBZQ6mWnBYrBR4EF02/mDKpV331y1UVXv6Kl7NbxTpQfjV2OeuEJw/cfslvvnX6tGlV770PrVk9PDTQEgnkkImFSglwLTfZAj4FDRFKq+dJSHg7YR5rgoNf8Mwz4ZD5RUwbvBQ4oWs5mVZV1YhdXeOq8o29iOTsWY5Zd0cjRAThXaI1NPr8Z+5Eue55aNVwfz1tyvhmg58M2UXaqR5pDaNKhz2F7wKCoDfc9DsxCBRMsDFQKWNFDuoUuHLmUvoIC+w+a8Hml1z4vlQqfPQZLz7HeKmYMU3E+FkPohJUxOnMjN834VWo4OKWSYVbLF86NSOzjCqW240l6keiSrf4FguveN/HP/zlH/L7R9SQ6kz9oSPV055aPmRwysa46uyz3gLwZsMa9thtJ2ohc7OkVPmU3Dt1HSt2xrNhU/yfrAFa6t9B/A22UAyDRs0aY2HbyTrUUus8rAkf2jydg3zz+z/q7hl/zPHHuxkRR6OsgZ4o577yye17PvCu9xyHenD5fQ+sWzFcWwypVYtztPLgN7Oci6ETDLHRrNQ8m5t5pJFqIFwAU3HEWBGZBIISGEiEp9GFpBwkep1bLZ7yHJXpK0BECTR2ogqtPwDkxJ8Gd99lYXcs19rf3nhP95Rmq90OgqBaCbHXNbpm6CUv2AeSg5eDee36/s7C8ZcgLHZoUkpwaqlTIBmsgTKzfsbZb3ryAU9gW3cV+lt5r12fj57Nwrguy9QKhVSnB5HiClhJuTYz6dxflK8DBZbimRwFCSpKvhICYtTZW9zwzR+8+szyjxE9YKSd99h5mwl8L2APYN6c2c5BJcrb3vFWUGtarOLe++5fuWplgJYWcGL2ovKgwNgiSlrIZckQMLAH003xf5YGxjb4b5V54553DGADEy/msIGwIfNHmlggjdH+cNMf47jqiOce1hoeIhUmPLSIqjNe/pT1d15+4TuPbvWtW3nrfQO9bfOeLImHcg5NipuElkssGEeJBaGxC7EApPKP9dzcLXsq7gDqUK1TspzLlNkrrQK9ggHskbNWGokQkZxTlOIvAmjYRAAdihNOyaFR1/eNoDsetM98AuqjX/yjjOOv4Qaom8QqhG7pX9O3/ZbzCBa+AlDCN7/+DWOTUMJHRflL+VFFH6NyGIUyXPOL30zsGjdS893Eblm64tyXnYWZW6iMs1xEUiI4SYBVoVJhAKzmeuFGyYlF5ZKjanFf7hoRELdYcO+1Nx9w5Dmcp9HVtIyeUH33W59ct34dQteMCRNIFz6d2IXGF770NctWNcrXjSOPeKF16NQ4VwSucKwKEtwhEEaFbKQydz6b4v8kDeh/S9ixvd+468w7dlEMBESiOS2l8Gc3Nnhizurw6Miuu+75hH33zqOpqrRIwJHwd5580Mjtl77ngucOrHzgwVvv7V03jGYE6mRtmNftum6NBql4/UWgcYcQYog0eSHGzVwazUYVefq7RIPEWCXzoKHZVTVipQGB12JIMjOHxIYFgjyHGHLKdCPQIFHJXkNItQVRiBe68UzNad261534NAh++OtbB3rDlPENeg/zdm0JSUZr6eqpTzv+2XAx4CtfvZKslUhyh3PFY5HTlgIJjKVU2nxMJ6UIcM7YaPz6978FQ2nxS6/8+nU/uS4sWOAySHiTxuWPgKKTh4tn0HG5aUKmJOZJ6RVrCUCoKIPNmXf/jffs8KyXAbnZ5C+grfHjqoHV102fOW5kxJFHdz/giYURp+OmmSHg2GOOZC216YPk+uuvu/YXv0w5QyR5btUZXB6bHQIRFh6JzhKlAx5Dxabwr68B/e+KyL3fuOvM/2IXIsqKOA2RUxTrKFdWvP3cs8aPG3fbbbcGBwk1L7OCd7/h0NY97z/nzGePru976PbVQ6PejF2G7DkXNnB2ExHCVZV5tMwXAoDM4SIairnDCW3PKfGqT1s2sxS0TDLaardqfhOA010oMR7oKoJGNcomuc4FmtIZbsly4khCjKZe6B0BuprNdWtXPvlJ2yCGVs5/un9p1/juFFKoOl8EnO8j1uobfNMr9iUbAMn8gQfvpWSUEFQKSU6E6ViRqbBKgpciG0tksWR8fNeddj39DH4TdY7lC8DTD39V/4qlzbk7ahoWz97QLnpE0J85QrBsqiHzI6CIMgaLlDIhCBrb7XrLD3+83VOPhzuX22qhGaq7fvM1nzL99a95B2diPO6Y4yjI2OQc7gamW261rcMrpSORw571rLo1mAxRY7MiBc5hYwM4slRYBwqlPPh34ZEO/46+qfovowH92yR57M52ap1kAzcaA6slFdpqhyiptmnTJ19w0SU8GkVgopr1/Nc9a+COD5xz2jMG1vc+fPfywcE6RFqsZc0hqIvUvK6LxkZwDjFvp5blHKvKrTOBINMfOC/shJt7dlqwCpDd+WaRM8wUQlZQuIHUdk1/kN0SRLPVpBtMVRFASoiRQ4RdAaiHBj+f8zeAas2K0e5G3Hn+LF5LLr7sR6WMLw4AABAASURBVOMmTQ2QmPJoy1Jy8u7vHdpszoQFs6dyHFFy9PEvEydTLVU+wucvkWsp0m8kdnISOh1MKOTF77l46ozprFdA233PJ56I7oZMnUexxS2rl6UGwpw3A+VIdYpNvaqGZh5oYdIkWTj72m9+7wlHvoX6yVxhsoZg2S1fm7v5TKD5la/9lMwR9JijXiTgexR5OERE4bDT33w6mxIy4K3cGtcz+b47bmIDq1SXlJHloRDySKUQOo+VXp1SJ/mPHTrkTcm/jgY22uh/WiLv9OTOjhXAUucZS0rjWMNYKhvIH3jvxVUj9K5dr7QyEFyNFx283cifL77gjENs/col9yztWz0aIi0q0cLJxDP41qoCUZEAERBqQoAGnneeiX8lVE1dVLVSVJVIEB7LQlA4PASO4AlpxiL5Ci3YWXEjK/JzcnCoRHewa64TO8ClgAUOiWRLL2V1ylabottQu178hkMS8JNf312PDk7qGZc8B4ns3lBtjeZYj1zw2mcLwPj7395Af4NHB1I3Vllk3Fgbw0whOItlQ1SyrFq5ipxrei/V+5cuP+qwk2TmLHRNyHW7EnpH49XceN3hyjw7jP7G8yivR3H2DGw248Pv/PTBL3wzOXQ3K7LuFvTe9e2pWy1ArNbcekNvu8XZJ43ric0GNaDKLuIgIwPkFa94iRQVe9Wtk5pdqthhl70/dvlH2WScCs5OAESkCIzHBHo3CNiB3P7SwDn+UtlU+tfSQLG4/5JEQrPqDKDVdPJOQlug+XaKY+2EDWtEcp3a226zzelnlc9RheI2Z+b427970lWfftVgX9/iO1as780SQxUT3zmJRIEIWbmriKB4gJzT6EgrE+80UR5ZbiraaQlCsLCZdlmgreDB5S4limgQ3mUjPQWbJeVUVQR24OiETISrigQXEdUYY4M2785Xe2tWPC/hboFAE7qLyFWgaqxbsuzAp5afBnk43nDj3V1TxxtCVAhAv1WrDfSNHP6MHQs8uU7g8k99nEw6xZK4l/SvP2SxsYFFkayBuf/m+l9X5omHOPC1n17/hfd8JMxbkBp0W/xlFCYGczFXqgtu1F1VNTabjalznrvP8add8HHzMuVIrnffet76Zd/rmT5r4I5bbcKUr37h38Zme/Fxr1CByFgNYqJ0zpAqNmfPmYmMSBbNZIaGyimvPfUd73o3QoG9+oYhzEqdWSeakxvhD4okkDFLKC1Skk3Pv6YGuFn/WcF8Q8e/tp8dWidBMcmOUdICPvf5LzSqrnvvvy9wsKKrG58+75jFvzpv4fyZSxctHRkWiZVHYhbQKjiPlUwzzICIEKXCj1udF4FmVzNEmpQ4q6qBUlvmPSC78yRUtbrdZhk8qxPPaWEH+oRKI5wBVQgNsi94MSKHJAlitG9Xg7TqthnPcwmNBuuWc/EZxulgQjo0WFNzaxATpvQctPd2WuG0D/wCcVyTEwSwRzuhEh0eGJkyvfuwp+6KTjj1NadwEZ1iSbg2wErpPzzUDagsQMDAWmBJIAfsf+C7LroQsfNVFHjpWz76o6u/27XlDhSPwkvgG0p0Lt4oYNKuRnPLbZY+/PDMyXt+70+3kVE5/YGTnnfo7677alVNr1fcN2Huljoy8qb3f4mtgFzxsQ9gYyB6y6RCH+B83njq6wHklk9thg+ef2K7NIe3nfeWZx50IAVjk/EBR4w9GAsqzLk3ncWwWKodP9TpSMKm+C+ogbJh/zmxXDbsLG10w4i/lDYQSsZji/TUzrvvtffLXv6SDgnE5ZO2n7Py2nedcPwOq5esWbeyz1sERNuRRJK6iYIxhJjqLM6p3JK50fSkcDO+/+YQRVTZzTLpziSnOsYoiE5mRrOUqAFEhXtu86cEI1lFcuGj5kkglYYgnNAhrpzIMsicQ8xSm3PztgGF15ze+BKhGlU81gEuo6m/751nHJZr3PynRb3L14yfPl5gAXQ4zJ13geG+9Zec8zxoWTSBuujeRaW04RGMNYzBfQOxZMKEkjgcKAsrOVSETM846+z99ti3hcCPAnRnzz727Aeu/2M1e2GA8HtHClyyhQDllX7htl+/4svzdn7BGn73o7qBzaZNuvHqSy6/8nytR4dXLNPUsGlTzj/zguyF2dRpM8mjzMzpHCIGYQlMBfKC5x8KQKvqgRWjL3rOgR8/89kARcTPfnH9Dttvz6VRRXCUYCX5y9MhCnt3mh1cxV8aN5X+BTWg/weZ/NFtTihyZ0nqpJ22TomUv0R3aAx9g30zZ0y59eabxhrGBVxx/vN+9csLLY88cF+/OdFIvAbj3VU0ZW8TrS3aVc6eQlCmNDdRyTkHzmE88IjlQJCSoYAdXNjdTFW4AA0iIShIywU6TsQ7TY/RIbGSDrCcHUDQu9E+HVANoiGqOqluCqJcyRwpB1UpAfQdbX4/zCZSZanWrx7Y70lbdWkA8OHPXzdhxsScE70N4ZPM2hmj/QNbLZy569bl/y/APoc+h8gxBqKX1UeiPFJ6pECSQOBlWpeN5GDZr73xFxO6JniQRoEddn32ycPDhnlzgRRy6R6mT5LZC85+7dtffOp7oIKMKT3Nb1zx9oce/sk+TzrAVyy3/v7QGg1bLlh6/S3v/OjVEkwgv/rJT3nb4kQsMwXV45BSEvqiBTvsxmKq63GN6oaff//kU198/OE7OUmQu+6+e8Kk8cO8+ZTeTk9ayJ3HmRYis8KKVQGTUu08/6786GqnfVPyz9CA/tVJvbM7G3ez00XKXpM8FssOE5WsgJAybNxpEZz/jndNnTarv38wSBk4f8rUZTee97IX7v3wTX/u7a+7mrxrE3CNcnZV6sQbbZsnrYjXCKSSV0alNO+CXHN1sXo0Fft30SAu7OrsivJp0Mw9JzNCOIZYDsvAA7zAOxA/JhJoqwhcpjhR75rNJfAV280ZS62ri1UILEamqrHK4CQUvvx/sgVShTKyilVf37C3h087dj+2ve8L16IVu7qbwh4N0Sp2VWFg1G10/WcuOgbkBNxzz939wyOqCnbCWHDnAseKj05JLVUuDRA80kWDNNHV17em0eiujXQMDg7P3uGgrD26YHMd15XpBZoTX//ys9/zyW+oQEPjxYc9fcWSa4888QhZutxWL3dLfEVqzpzG3xSe+MLXCT9w5LzZnDnb7blL8A5HAAIK6AIGKkUgiqAiARhu11//6SI0hr/w0de/5LCD2EGAkcGh+TOmoeyPQATecSZGCxlbhpeW0gB4548JR0JK0nm8TPaXaoe2KfnnaED/yrTOvTLumj+mzUkd2zSmqTQJKQDNhUwIMBoPnvnsQ9/5tvPQbrOJ5/QZJz7xgZvPGyfdy1auDyFUagyuknluCoMK1EJhltU8RDHREKuuWGde2hF5RqsDqpHQLW0qxBMkKNxDQFD+8S2A7by7J6JaFGKa69yoYuT7P7gQs5wTwV4s3sEemWML2AofcaegAVnc2Jd8s5lnCsYliAZRZw9KI7xkxKrd23/6aTzbMTzU/tUv75g2ezJHBShUOChEWb+qf6/9tpgxrRslyHHHHusslAeUBRDh42N1bAwOUscqGwvWqYq5ORBC/8CgdjqFiP71oxOm7tUaAXompZhs9aon773Tzd/6aHvVLXnVz75y9SXVUG/rjjvr4dFaUbe8qcCcOW85+W0Prxl23miAm26+gbQOv840ACXiFpZMOacT1pvNnd1SNIL+7p5laFl77eIrP/KcU457onRG9PYPdDV6BAlWwwMIejYUpVJcoTY6iwVAUmkA7QkbQulB2obapuyfrIFiCUUEbktnl2jv4PbQ8JmWhg61FDbUaRzczVh2eAOFjp6jHTJ7zryf/PhHpS8QvPruR199yYVHDy8fXNPbp6a0Ew0VD1qVcvwQpx2zMWkL54gSQJClnHlqlfOuCJazW6Y50jI1lH/LY612K2eeOaL8k8KAHRSuMZpyiKmIEZSaR0ZbxDJACoII21T50pFz4vCsUK1CQ/kdgatBgHYWJAyAC/+oCIro7CwIpdVcuiWuWzk4bcaksav+qe/5EXomNBv0aAq3TMFc2/ReI0MXveGwAA707337O5KMRQOYYiwIlzxWGktL1ceKG9KNPVS4IgW4rKHWMAsEXVdXo9a0215HYPzk7nGz3OoXHHPo7gfslusVefUqf2BRvXogROEeKgJ/3sgTJ6644+53f+q7kOJt993/abNnzvOyYB2blKmIQ4DOtJTGzU445jh2SeJrVg8P96/nzx59q1d95OIXvPQF+zQ63VpptGpM7F2zmspDCVwiN4uMWHGnrI4OT3SCgNVO6ZGkEMrzCGFT4Z+gAW4UZ3Vw4zoJKyWyDNKceOCugsEf2UFaCMmdlHSAmKu9njJ11qoVS2k0AKb3VMt+947DDtlmzaJVg612+Qe+5koL4ensXtejjUrH03jnTJs2axqv2Y5IUw+Uga5FePJIeUPP2dxzdg0aQjmLBRKUF4NgllLifb/AtECPmHeLAdn4eSEpO8VK2BGBIzgaStYd0RwaAhQ5k0U90moZx3IF9BQRBK+QpQoK1ZxE+oKSAxYVFipvO+q+dZ+65Fgu8/a7HvrTDffNmDleicssRBGnMZH+petOPObJ47oayCAGXve61xN5wjuIgIE6ZYpH1LmxwEY2MXZaOW4sB0vuEA2NUK1d0ysBrdH2OImLHl72plPPtKkTJUzM69cNPLQkrx3M9Jii0uS7DLz8M8KkE3pkzrxt9ykCN0QBXHfdNQB3VUG2ziLIv7e376qrr3Yu1lmVIOHQg5/KzkT+QPLVK0ckxvXrfWRF72c+cNxJRz0JMXB4qkc2X7jlXXf/AaCKrfQvD1mIkxeTUt34CEeU6aQkhcgCV1dKm55/nga0gwzuhXAzaBedjEZQdsmFm0bDppmArWVDS9FZBptQQoalVt2tPf3rVkkhYLst5yz6/bumNH31svXDw61UtzNvokZwOhkKrALf8+Wnv33o0Fdfed1ND87cYu6sBVPgyZwY0+CojSeqEz4K1chXgETbcSd3hyALTc1jiBpUOIzf+QWJox1RSJGyIqMfadASGbNwOWUgXEIMISjr5t45AZ0DIDRXiERhLy1ug60BUkUVQobQZS+1bPzFwEx19Zr1e+09f9qULgdefd43dOIkoqGARgJFFEuDwzk0Bs8/7blAWc7HL/+4p5bzlYfNDmFaYsl9Q6HkfEhiZAFgQtk35IJMgoQwceKk226/g22jcAM+8KkffOPyK3XeZiqha3yIZmJat5NbCiImqRoXsdncS868ZGCkzanaZj/7yc+17B2vCCiiCMx5Q8P11//2xGOPldLmpU2w8577A4h0xqn95zuXhHETg9nQQHt4Re+HP3DsG4/aF8p2DA63dt7lCSMjo64R8A0BUPIqE5Q+FJiRS2DFhcnGhlIs5NLaKW9K/vEaUHQ2suwDiIXOIxASmQJlr4TQQAlCEpEopUwDZObIdXvizJkG/mpWeOyy+axbfnBmt+d1a9bUySKd1/ncAAAQAElEQVR4KrGfoNiWmYsoT2Xnm8BhT9r8lS/e/9mnXDFz7/N+86t75+40f9rUCe02z0vChnw9cDqjNWdOmTwTgiJEQagkRm14QTIZQjVSIFXhPdzNCnsi0nM70+Bp3O4pgVYdeI9I2eBIMTaIbnCYKzk6lIYOEQ0hJ1qjq2rBnAkEAKeVQIdBOcS7JFiddbj+/EXHA7jhjqV/uvnh6TMnW+LclnJO5ghheHHf6ac+M3Zb7vxgefAzDleBECJCAThuQySlUyp5eTZWvPSVsaSkfK8SnsdGxW2/zXYDfX3SNqkIOXv5mR9a+qc7w4KFVpf/nNolRYWJZq+VmzhxWt/9K9/y3s82EMl7t112P/iQp7FQhJCSU4M5USv2kx//YLTdHh0dcReBGDBp0jhhl2DQvPjB1d6l1Fqr1egbGhxauvx9l770vac9k+2MucbUqdNGRocAFRHln5DsfBiZsVZsSCAoEY8NbCKdtJvuWk59sbAp/iM1QDPpTCfgrnf2p7Md3LdC3pBJMZlSB4RldzeOM8viW8xeMDI4ALBHY8vZjRt/cY7W/SuW9bW86TZqGuE5gPDgqUtIOS2snXkP96FW+0WHbLXyl2/bal7PISd95uAjL4vjx81fMIMQNYgGCMHrDoG6qKsGXjU10dALytxySpaFHR3ZjL2qGOk2SOdosHdxPuI0ZlWjqNkBxKC59hY/KHi2DKi5BPdMF0Pj5c3ChbKahhA00AuUKgjsVPNcbcRgbtKuoqx8cMlBz9yxKRV5nnTG16vp3TGSHSRA6S4UvcMty/2fPfsEdggB1/3q2tEWtQVBifiroQjIhpIJ1ckio/FhNAVBrNQBgo6fOOkLX/mM1UkB/j64/YHHikcdP7lC4D4k0QDqvSnd3ai6djvoSPJoIzUb8ZY/3cwOZPdIVEHFtzLVP99xF4nCSQTmXDftQShKu+aIuHxw1BGz5FReeULvmtH1D648/YwXnXrCkwDlkkZHh3u6J7frlnMMPOWy0ebcRDaSMTZmjrFAmVgYq8mG1VZV4GZuqLB1U/yHaEDLLGUnyq6X8mMeYa2zqcUaOgUSRMCIWmzC5GnL166mDZA6Y4r/6bcfsfUD/auGo1ZKhKIykSCV1VlpDKpQnk5O4/LsPKSXL1knjep33z37ine+8Oe/fWD6nm9ZsmJ49qyJjQBKQyNRjuaYECS6itAYaVl1zikndVWtYggu7M3+2a3M4VCE0OksUA4JUUSVN5liaGVgFA0apHLxnOkI2lHpXCSTQc5B2VXdPKcEMxXV0CiD3S0J0cXDN1scktDMrfeefziA39+z5K47V06dPsklmiczyh6aFkaXLz/qJU+aOF5ThuX20UedAIrDAf9/cUPrWDaWAkptcd3ixvuJuxvM4fmoo088/9yzrcNqsNW+4t0fls3mtr3NdXFEQEubEmbPveIjn3t45ZAGYcePXf6RTn/hW0VHEidrF/pINuL63/ymZFy9QERYbjQak7smsQDH3fctlWp8A5UGzk912cC6gfUPLvrwu198ygt2Z4fODGn6jM2cwSQq9wJKNoyFRXkeY2WKDebkHI2xXqSUPmOVMmLT84/QgIKGUABetr1sQNkRbNgTgDU2FKtziBEaxtPUiKaMeTO3GFm/bkITZDBn+rQlN38grVnRv3Zw2L0mEtS5yxVPcDFRofG5eCpocATiir4AonH98hWrHlz1yuP3//mVrxoaTVs/7V233rVy0tzZXvONQIyv5xSQaMxeJgYxGapYIAxyt5zqWjRLCKBzEWR3VbofNcCFUpbqaCuBdiY0MJABP9tb5oItaCAnS0aKZ1Nk2l62EhyIzYoD2omQawflbSFkTyiLkowcXftWDLzuZQeMb1TU1YtfcWWcMrWnIY3GOMkxZakl9Par9a38xadPJjcq8gff/uraoX4KxnInUiaAgKFwG+qdbGPCUYygctlJRTSWjhKhwgvGW99+8dsvfOfzXlD+235AT7n4E1oHmTHLEG38lDpH2Xzb1Xfc++rzPl74Za8azZe/7NXaYYdQaIBA+TABQ7tOAjQbkWVuNKfOwI577FR6IA2Peu5f3Up05aAILlRkGhhIg8t6P/Kh495w7FNoFdT3wPq+CZMnOfdWJKd2rssHCDJkJEPyL2t2FkkA+4MkgJuBEoouRLUUNz3/QA2o4y9K54742LZ4EaFsFjeb2y1QtgVhUKEB5IU777h2zdKGYqCF6RMmLL35wvb63vVrB8wQ+GrpPK0kgQglporj4BzigVdpHiOlrNpu86c/7eqa2Moji+9a9pQnbnn7v70mQ59w1MfJaPbm07I6r57etlpo/4GCmhRhLcOMc0DERIVVN/dyRiKqkPkoL6/GbwWqEgBaf4ixCnBlm3iMyrWQxPHCohDeCUGzubM1KAMXrZwqhEh+rik5h4AdGDkZVQEfHk02OnrFO4+C47aHVt/6hyWTp0z3Nl+AkkhHHEvr1w3vvu/WB+06A0ANP/HoYygCRYITC0LvAiEApFDAIsaCdzJSGWGqEBbMXDqF3/3h9xMmTLzwgnOG+9de/W/fACqF8YZy2DOPb06fFRq50R5obtaD1Fqw/wkhF2YG9PWuMe6NQzvMx5KyS51Su90273TtiFKrsxt1N2/2ZlwduwyM1hqjtako95zZSzRQLH4X6F/S974Ln/PMQ3bjTJEfQQYG5s+dxwVqaEACiQA3q5OTF1UjYhzPh3wZBVQBOiFTQrDOylh/FjbFx10DKkXbRe8lx4Yd6GTeSQHQHsqmOSxnEcgrX/Xqh++6k4bQNsyYMuG+X5w91Lti5bIhy97mh3zlxrOvZx6/JMFpPRCVIHQMIDcBjTYGtZRzHtXQ8KgrFq3aaZ+tv/r+4zjpjk9//3Dtm82YmD1rLKdxPcoLRIFMkUBNzItMHEaMiokXByDuJkSyeaYteTamlNFF1IMYSGExOE1dpHThi61bUDVyEwakbBrKMQiaqVnO5Z0jVjGwk0B415BAX1BUxg7Z167uP+aVT5k5ZSLRcugrLguTurq7m02lI8rOxSG0RnPd23/F+15FJTL++Ac/Gh1pGYXicArrXAT5Ehls3Ji6YyxupNVWXsdVJUs+4MD9933CPvVoa8bceeMmzuQV4ZJLLiaaBP6T393SWtOr43qc2piy1Zknnd4aaXEqzvH6N71uXM94VYWgwxxgTv5FXVQHfvbTH4nqvvvunzpXoQrqhYzIHxTYDQhVV6hAF2nGKyDcnC6SikZbBoZbI73DP7jilVvPmzQ2fNmyFfO32koCQgwUjAtViJDPmEEZhExKnSRwtcycD7yd3M1KERubO5VNyeOqAe7OBv4btN7ZjQ5JpFMum02LEfBDWgx+4YXv+synPt3pgKoRFv3irImTvG/xYFdDQiBeqswLsyEG1chbq3Lzc04Cc0ZPZOru9CQ50z5ZdM25odmlWnb38qOO2fstJz5p/WDr4OM+Nm7m1KkTq7pu820gNMp7PzI0iLsgkCvczZ2liBgD8Qmz8tEBjWaDNVI0iHVmrdstgbArh6ScKVNObadXcKctV7HBXDTEoJmuho4AmozioVgopxNwdGDgFAUHhDyouPZowsDIp9/+InbtXd/62tV/nDpnc9hwHhkJSRpVIJLWr+/fYqvJJz53HwDJbMbMaRq4BF5JVJS0EqVj8VKKkE5gNlZLFFAqQL521dcaIf72+hsATJw8afmSxW4WFKe96Q0cyDsPsfOdb/0YPd262eaDD97z3i/+gnR2Zvq+936QymIZTkkdJJVKeQKlAU597SmU5qRXv5rOMncW7mWJGN8zsXRC4BceZBk3LjhnVfNAxYrQUzDPeaB/JK1df+fPzp47YwL1AoTlDz2w1z77oBNEyzqduuQIh9CeuHLptJWEJeEDKPdFpZD4OJ9N8R+igbI9j5moswdERyF2yrQYdhIQ0eGTn/7sO9/+doA0CZAVN54/bpwtebAlXV2J1z1LnpOKiBqiVlUQ/ladPTMWU1aIujMBjBgIUmwIppJ45Tcej6H3vqXvuuiFCzef9cc7Vl74nh+Pnz+/pysILS6rKUIXHUhwFHvmYSRscScJoPkgRIaAEIhig6AT6cVUgkAEgHgVY6OrmXNdVc3QqGKIYqaFj6Saboi9nFUoGqFSDSGqWTZzyynnRBYQzkURtLgCl9UPrHjOc3fbeu4MA44687PDQ63uGVNj13hXrg10eK1c1QP1+992BLkpMDg4dO3P+eGNHPAfg28kW6fgRmgLR+2y825HHX30GJGjVq1aTaKosKwqhx32XMoI6Ec+82/omowJc/d65suA6Ijs8NMf/5BfLtBRAMrNXKg+J3+jCtluy1eseODhJVzd85//ArIMGkgt7ZS2xQsIa3nN6gErl58gEnj14PZxeaJKCTM0tdO69b2xqm7//rmACLIb/vj73z/7iGNZRScIwAgGl40lVljkVKXAJ3AjSGAJGzNsCo+7BvQxMzjGNmTDLo1VsIF4w403nnrqa+uO5bDjLV9/w9Sp45YvHdK6rlOiFYp7CPzBz2CSE10CQWdQrSKRhlSnDqPSXaUEAjAKTS5wbIgNWlXfEOrV63737TdRqrde9r1bfn/3+M2m855g0U21JjNhjoqj4WRSqZjDjL/zpXa7Xc6obKIYI0MkO609AZYdcDHmBiF30nMmtI0WzN+1ya1SMiqii1jiXzbjKwY4lXJhnCVZGZHIEqJOHuyQRlrt1vpvXH58pYKMZ77mY1MmTDYK6Z4tBYJPWmuW9U2aiDNOPCBzDPC0g58kolYO5E7dQcCUUmFZHpaLhOAscu2vrq2a1e13/gklyGabzXD3ZsV7AQRaZ37YlLe97a0owX5z422oJi659cZ7F62twFWnHXbc6YBnPAsBnAQlcRFBiS46tvW62247c/SkCT2TJkzk8llG8gBqETOmzSxVYNqkKSINjUrfDkQNAdCyRCBTBnoGVA/dv3LytK4/fPkUF0hn2A+/+ZWTTnplp/ioREB1UpaNJNlYdtLL+suzsXFT/vhrQB89xSObJ2PUDRm32ZevWr3//vu1U9uMtoVvvP+EHfaZtezBPhuBh7ZwHx0WaRZqhJnnnGomvJmL0yAkVJHMlceSWwjB4G5KRLFzJiazJzZb3S1h+bJ1Uyc1P3He8ynCE1/4sab6+CkNGofwDBdPmciPtF9ACf5kWQBaIO05aLRsRk4grxBDADmXsroJLd6hSi7kkdkx0eIgKkUBoZTd2Um8cxIFpq6hciFwLPI9xEXKvUYZ3M3LAgg/J8f1i9fttte2rzjiAAr8m9/e84vrF89aOFlDzg6XBrHiDRtY03vB+S/s1gJddnvruecpj1OWGAUUirmzwIwTghRQ+BNe8pKDnvq0XKdKI3Hz7EMPWb58Fbk6O1ACoApBFXs/YZ+JkyajjEC7XR/7qnNY5vHNyW64/oYmK0DhzQQcStFZEgDf/c63QiOuXrWW5W98+9ucRI107yTFX3V3d7OJJqhS1wAAEABJREFUcdLUplaakrXp2Swr+RiofxGEELL5UEpRdeW9S3bff97n3nO0QQHOgk9+8tM33fRHPDZwCR2Cd1KUfgBZwi3VG4mkbIr/EA2UrXpkIgJ5Q3lsI5x2WAjrB9bMmdU5EHJB4Euft/uRz9975b39aFmI4nzQClWW7AESI22PP8aL8i/yuDRaC3c4augA1sV4rNJ0hDZES7WULQqSucSso+qhb8nik15zyO7bzhmV/Ia3XT1x+ozUHuEdwJNIUBFp5/Jrk3vOGU4h3QKnjRIbvHBUnJfXkmzm7uRWlqKuZijgL+8pGgMcnsFXBieQja8ZrDp5c7UuhIGJ0M5d6WhEUkrOaR0GLpE94cJpBUrnh+EcBpYsvex9L5nZ0xOAg175seG+xoTpM9gJyO2sITQGe1uVp49dUP4dAYALL3rX4NAIBTNj4p0ZC6LcwTrg6/rXT5g0+Ytf+IJSFoCXrHe+7W3f/8GP2SQo8kG0DODwzoDN521ZNlLCzT+/9td/uLeiHMDzjnzBxEnj62SccUPkqAJOh9kl73v/C1/8YvpoNm2xYP7Tn3aQuEFYEytuu7BYtWKpdChDQ0OeUq5zVI1VhGpGVraVx7kLjYakdtvCuHUPj77kmCef/coNHwLIbu+993L6kyKnd/hDhMI6IGOrxVgQic0GgpI8RnhM6wbSpuzvrwF9DMuOadPSx7aBtbHmLRfsyELFx2Xu/ClXvu/EtSvW1FYnsTbtBm4SVCqviFOjqXCLq6pJBIprVJ5ggayElUAWNCKeHEr4qtJlqCq7SwhqNCWLEqr+IUkDo9+7/DUw/+jXfnf3bffOnj+vTbRrzJbMkrI7oKIxIntmgXN5dsuJ1stRQs/DqnjmdzkhtgMPMU7BGwcRISKQYmwhqqEOohoCxWu3s7sB0MBPjPRQ2ZxXHlc2IscqxsgRKjGYmYKjGCHufQMtDK6+9kv8URPSHj3qDZ8cP2/GuK7Ir2cN75JRfknrXvvwquOP3G+vrcv/F5hTzF84X6hofqaEC+sEt5kopcBVX/rirEnTBwfXN7oCMc7GG268/i1vO5+gAQT0E2BvQMVUWDTzpxz0JMotnp991JuoVSoyNOMXrvoyWyuukUOKz0SHg0PktDe98dzT39xu8fdWXuvjzb//NXuWWNRHiuRE1OKBe+7gUE7G3zpY0FjkoW4teRBQWVSIKANSi45DW62RoeGhNQ8uu+itR04Z3+VAkQ/YcaeFuZT4UEyUwC1gRkIRih0B96G6prAsFRpbN8V/iAaIyUfNI+DWEK4dko+Z2zZbbdk/uoZbVxsmd8W7fnhGqz06OtQK/LZEq4WnJDDw4itQCA0ouCjo+YVvx7QlYtdz21utmgbmBCiRmtzVRUIioi0599+hGmkLTughr1y+ds52PUc9q/x/+F5x9o/i+HHd1SjxUa7ELgQj0anmlsHRAo43cxdIzgRyW1wLxM1gEU6UCntSqiavCSG4kSTKWwkLIBuvc2JrqLRqFKSnuu2Ux0si7qPtNludzCiteEp1QMjK+4PDRKqc2r784XU77L3gDSc8iUJc+5u7P/Hxn0yeN60plYWWVPxd01sDrdZw/7c/exoaEJW+1Ws/8bEPazfoZBIhC8SgXMcRR77omONfYjFB0B7NIcbeNWv23WtfAVfhYBAWmTFykWA31p+w997gYKC3v59VEl927AlNaRYiF8IhCitfB8AtmTZl6mUfuowQDx2WGemkl53IhiQKSs8xQHFzALRwYD5tYsPoCGOz4yoRKm5xYLNnCaKhUYlbEJJVEEaGRlvDrbt/eGbpAIQG7rr7wQ+955KO9FwjHhtoFILSJpN7xgPsIGMdNsoyVtuUPl4aoMb/wrrYPCBS9sBpH8CrXvrS+xY9IDVQdlx+/Y2z+cK9vnfQhLaURVTEAw8ADqH9FJxll7G9U0VpNgLOc4yqUWnrZjY2g0JBBCphJixIyQ082bIp4COt0TUDHzrrhQBuuGPR/X++d9rmc9upzjzjhIEeh14lB5VmI0ooo8nXC/MQpAFO7rzP0pIFTvYmDI7UTok3BSFXoRPxbFG0LFRglrOZu+S6rFbMNVYUhCQe/RCDe+YDVCFUVXSKwluJwC0kI2Kl975ll7zlWZPGNTj+5PO/fustD4/ffFpsY8TqbN41vmttb3vuwskXnXSwG2fFyae8wessPPjIBGgNj4wfP/6b3/4GhcuJM+Oggw5uj9RTpk0zcVACZ1oeMHSWwBzUoWPLLReyrEAVYya4IZd/6gpRASBk7vCYFPGBRfdwut6+dZ3vidxB7yIV4es/uHb2/K0jUHqXmcWpCnKrqrF5dt1hSxtez/c+y2zgnhmX7VYnzzVybiUJdN+WnI49ccja5UPT5kz+2oeOJ0e0BYI3n33WsqUPcQFgcO4Vsw1RmPMRzJzQjMoK2B8YS7h72BQeVw2MqXzDFCLcimICY/X3X/q+T3/+82M9JOMbl5640w6Te1f1tkZNIEGEqUqggRlv2OagPxDVEEVBUxUNLAr5OfkJG4ilEENmG42AkPNcxYr8I1EVhCYJI8oQI1/rfXDV4KyF4046Zh9EnPyW7zWaPXGkhnjs2HTkoSm8l2aK4pmTcKBRoBDpD/hunymEBuUtwyWAl1fPlNODaRFGhSTxwLcPo7WbSqhCkcRybo1dAaIK/1RKT+KUQnBNuePfNCY3pUejuMVhhe5G9KBD7dE0lP/0wzOpB0Cf9orPKWI1vRFM8qjxp4OENLB4+cmvenZPd9AQABx/4ssI9oaGq7/9va6enqGhzv8UhA1Br/7mN6+55mcaYZapOkqtSlUJGxlZZcpIrbn4grnzWIZK7eSHt5x/rktBtFkBmwsE8cyz37rV1tshlI5NXj+AWbMnL7ruki2m85tfY8Xyh7bbfhe2ZWNnA3kBddkqwHWLeZNiV2ixKkIVUSSwl1DVDjNXuGXOHIJYURhybWuWrz3y2bseut/mGS4VNw3bbLcjfExwLgT/MUyZ0PiPxE2Ux1sDj9mMzgY5N5dwfnjxg6efcWZXECHkgHNfeejznrPzmofWljMyJ8u0BHZnTlAJDUZEIWBnwMTMnR0YQWuSELLxtLCUjRgHTVmJRFWh7dAZoK6tTXMTByTEkLKMDrdH2mlkYPjSN76IF9hrb3+gd/nqyXMnWTsZjygXg3C4SAVOlbOD7kBctS6gd8qRnKehUxjk5M5R6ka5KCJhHVQ5tVB6yqYhoEjLi72GqHwXEPHUasOoBgoqJu5KMLmwBnh286QuYmioKP2ISywHeli9ZmDB3MlXXngEgMH+9TsfdtHkGZMmTexpxKa5NhCH+luTx8VffeP1KedK8OUvf2H5A3dd8YmPHXXE81GWzzkxceLk3jX9Rzz3+ebIObt2UEuO4HIgpdBJrdRNRBQTppR/w2PumhGCvuPt74ydblymZeeQV738le99z4UhQr0KDR0u/3o/nn/qC2bvveM73/YsbTj976K7b7/i058Oyi3Tslxg2UMPd+bW0FV53VYuVimlm1GsFFQiJ1OtQoAYmXONTm/LVy310ZHhgXXD3/rKG7s0eLtcDfid4Ly3XABHEQhlLZSRNaZUKlNxYzoWO83OlMKPUTalj5MG9NF8O+oWWlJOacsttmYTgZkdhx648/lnP2N0bW//MHdarOyUizsLtAOoamCUwsvAfUz0E+7t9ijR1oiqYGcW1VOttBuAdqlVdPO6XO05WiSUyTm1uYl4o9FEM6xduqZrWuOAbWfDcO4Hfjxx6tQA47RAFrgqmDoNKrBcmFBgkmKDlwgeO9FoQYzKXlCAdl0k4TAtPCgpBbCcnJEicQ5yN1EJrDlC4lRcvEbhMPYu0VWE5i7Emhd/ppDk/NSWXTQkimFLH1z+kmMPOveVTwHknvtWvOS1X5k4e+K4GQ1BENGkYc3i5XvuvnD+1An8/Stq13Zb7fzqk0/RIisQ0BQMDQ288EXHXf2db0I8BAoDBn6NzygLYdmzO6GjLmAXglImT54EoAgOecXJp7II7gPP35Q1yDMOPfRTn/s0VxGkipq1NhGdO2PKa193+MCNPzvq2Kc/Y9fpEEnAq1918uBwomsTXoKAqhGUc8AnTIzegkCciwaH88pEn+tQpxTZsnNuccK/zOJagZe1uK53kIZ09YdeBkD5V34KuWDR4qUCA5mBe8NMUEIn5dZQbtKddAekQ8Wm8LhqQB/DvaNyFdlu2x28nNeg2c2ZMuGq9x/X7utb15fGdSUeTNzNEKtyeyc2yjlFcECg9AiZ90hAaLhBms0uGnZruEWzsTKPCxsCkZlFHLlNBCJCIAJk44RZQOOmVXmmu0h5aETzyOhl734BgKu+c4s344QJ3Tl7ysbuvDi0c3k1oIOxggn2QlDim2yMX7mcE4g5xer0KGMA2ijYqC5BlIYusVFVKpQo0JLr0ZoyB+UfijWquZp6cJeojUAUi4tqMehUbDQDUQpkOEqi0kHlVl6/ePG7zj18/50X0Ji/+KOb3veBayZMGU+ZNNejrVbf6LC3wukvObBMEHzUc7dUhN1m47u+etGJr3reHlzgz3/x7RceccTsGbO++OUvBs4DhBgD2QkHQYq4LJQKyy7ck9JJndjyj132IbZlcwmZ+n7m0591zY9+xAa1asbUSV1Vd80lZf/xZ16B4aE6daVla6++6uwurTQCnhZuu7UoGYDcH1i8qOOnwsK5s5BcLJOqnB8lCSDBnVIlkl3KRyFQt0YuznuXu+SVf170rMN3P2CfbRK8p3PN32HnnY3Dywxjj3cypp3IQQBXBEinjk3h8daAPnoCY3AcdfQJDzx4HzeATTS7m77yhqpH+la0eOtrJ96oeRJ4quu6nbPxUsCDJYJbnpN7FuHOEXrgtwMS4SZVaY2GTI5B3JODlkmiKhHlPJNydovKULmqW+ESPFTS6GqEvt5Vezxh66mxu2+0/aWv3jBpCn9q4+EkDeKNpkKbFHMOE3HpIJPcaYOlyci+qipwiSJC2HjJ2F4nN3OBOvhHo2MjO2WOy+XLJ4y2Dg1cMI/2dtsBUWSlGedUZwmBHTyQI489OiENOUuGtzK5NLsb/cPDI6PDv/nJ6VvOmMYZzvjQd3/+43tnL5zmXd4VqmAYXrPkkMP3BUJOiXKMej1t8qTrf3juUSc/4cOffu2PLn/5zMlTAaxat+aE408Q1Z133elb3/wa10nJCBBISZxiMXeeqKAs3V2NnDFl6pRAIYAQVBDefMabf3LNjwE0NZxw9BHrh0f6R0cB+9S7XrTTXrsPLb1LxjWWL+nrGhev+sDhltgRa5Y+9KYzzi4loNxvWIreM65tWVqwKnDjULOSqe8A0P1paFQdwbi5HMMvCJnaFYhobHZ3ja5e962PngrxkTY4oB7su/TSd3eEF5TQSakF6lgEjADdZVmVs0D9YVN4XDXQsRd08Amo6mUfet/Xrvpi4HmHsgFfvehFM7cct351H7q58W0JDSP6QoEdlA4CTA0AABAASURBVP0l0yHAOLDsvyCWQ15DCK7CYDQUh4pmNpECyeUnRJiYSDEb7jJPHxFetguPKiiZqps4QZq10tGRJHn0jSeX/93V2z/4fTQaOWWCtZUyER87/1V/yGSDQIbiIlLgaNAgzhWwyYtd8tEITmN1u9EIAS5EPCgc2rzI5prSVcFDrNySKDsKO+Q6aYgSABg/SbBZg4ISuOe6rpoNDwG099gQwqAr8oo90ma9uWbputE1q2/64Tmdfy6E573u09fftHjKlJ6hVis2u9asHt5qwfhJXU3EQBG2mtPzwDXnbDYBS2+8f+kf//y0AxasvOPtn3jbEeNEESPgf77tjiOOPKoR4l6773XtNdek0QJWFTCIMOeiyysGq6vXrmY6Flsj7Q9e9gFEsGPP5MZV37x6pH8Ing/ed+uXn7jvyrtvWb1ydGA9f2rFA39adPiLDr7o9YeNDbzs/e/hBCNA1dNDCt1eV6PbkSKXCkqk1K1RvUa3R+ai1E+oRFmmPjVyjJT9Q6Yq4/q+4Rkz05XvPtZIB5ohnnvuW+qa/rRT5/KYU0RuEwslZYXMIMyBToJN4fHTgI6xprqp/AfuvetNbzydlJyzQo9/wQEvPPoJ65YPtJMbQRKAnAXGXeELqAox5gwsiDs0ihADBZk0a8KEfELUoBEEpkvOZuZezIbwU4PwQqrgoSrGS0VK2dhDCrdAlyGRn9myeR0G1w0d//y9yW3Z8vUphfETGqquDkfgCHdzFYWwbLUpAh0IhGx4VhugApEgQrmdXoynbgCEy0ielA2gMatGCh9MorANap4sEf6ZAlMMJAuhwb5iXKjQfKNG4j9zNY6gHOM5JcsmihDAYHVe/tBA1/i86Pvnszqa66cc+9G+0Z7tdlwgGurQNby0/88/eeOia8750w9P+/M151XaWrm8n+Ir4qql69betfSVx+21/u5LrvvkSQfsNB8CXno43R9vu+VpTz+k2V1Nm9lz+OHPuee228FZUcJZbz5rde9AQCgVIPUPrV61eM6czVViV/eE3t6REXpN4OD9dvzZv72hf/laE5EgXSHESLcnvfcvOftNBx924DYcng277rKLJm5pBYoL7enpyu3U6OZljnpWMXDvlT4pSIjKnVWuXMSF3ttdIIJAkkDho+289v5lLz1q/y3nTMrAqLsnHPKsZ0DAQKtzY44N1Q4Rjw7s8ejqpvLfWwP6CENCactt93hE4VvPn/iZD718YFXfqBFtNUDQoewx+5WcVUd5zYbQCt2y8y/TIpGdb880gkQYZXOhhfAspj0Vq9BKQRoxDNoLQoghBI2EVgZtCAb3wl6co52DYhxZN7z5NtN7ms1Rw7d/8OeJ0ycjuwcNQgtD4ClNllY7BRMeTEZugGTKGmmy5iK0aTdyRlCtOIwz8fDJripCd5KymStNuU4hqAtgVENpLHwy2yTXbSMXMhFHxXOOvQw55ZzIgt0kCJcRYgXnCrxqNJvjmqsfWD1lVvPBn5xNjwH4nH3Puu22JbMXTO4KqW9kpCF59mTfYsq4ob6R5SsGGkHcfbh2Ux0caS9ZtGpw9dp9n7jldde8deX1F5xy1AGCDZtVCXrXDn//h9/fbrfdCMEgIqKXfuCipz/1QJGGdEI1ZeL8LbZevXaF1Wl0ZACd8IEzD/vZl142sGT1unUtflCporTbKYM/Eshoqx5Yue5bX3zNFptNZ987b7/9FccfPzI4BALULUdtt4dTSurIloyCuqVWamcuy63OqS63CRGqhVpVgZpAtKQxYrTWNLjue584AQw5hxh//atf3Pnn21gzaleNhf8QqccOTTrppuRx00CxKjMw22Le1lXki2KZamp38xdfOyOvW7Wmd7RO/BbMQwi8AXjmztIMOntdNg/KbQZECAFAJcYoKgLVUP6CKCSEoLQULQT15FDNyWhbpLTqdmto2LIoIkQE/HMCyyCmwuPG1MolRNuvOfZAHnDv/eyvYk9kC4c7Mm+TXlhxjoqGFauKhuMUNLCdooqToZGtZYOlXDJeANxBw6cdGyiDu1E+y5kLAzsXFyLmlnlacSblYuEiAnCBAqlEyRUU2IX9PdO9GH0ah6Q6mQlVYGSaaou+6v5l8xbMXvzzM6AIwG5Hfvjm3y+dNWdqs9lIo7r4wYGBfh0aHA4BOVtDqUbeQUQK47B+Xb3iwWXL/3zvhMo+eNHR7TsuvvZLp+y69TRXqhPGyzqPY0oFiuPSbt36pz8BdZkGnM0AtAbLhrK03y4LV9/47jecfMi6pet6e4e4UhJHR2XEOVVq0m8g9/a1fGjwlh+d1gxNjv3q179qaZhuwotDi3W7Bu8v7tkshMjIkayxZ1UFURV4qmvhOyC7UL/UGRA1euSAuHrl+h122/b5B5X/KtHp/DOe+4LDYQhlCVrW4+TEhZS088ijKx3KpuRx0QCNAVA/5fVnLl21KCXQTBH0u1e8cua0Zt+a9QpVD9zNOhXQQCWbe87ZXQIbG+zMI5O4diObIiKNv5yiTraiMSgtw2pRSSmZZ4kiwoEKoQF4lAASxEPkz8csRhcNDIRwzoQmzclTaK8feeGhu2To7257oL2+1egKSARCJRBmMLNsFImDPCUSc8pS/EcOZX2mhSddDCCaNWfwpqAauRbLtdGPmFCe0ksEXDBlD6yJVDGwDOdqtTSYZ7JOmROa1XA0GjGZiQghUIYAGpTOgSoDEKDSrFY89NCU6VMe+unZVbOL3J5w7Ee+/bM/z95pLrHRiJIs0VewkKXgJgD0cMLf7qsICovormt7hx66/f7R9f377T7v1p+eN3Dre3/4yZOPOHjH6eP5rl5GkO1IboDKhBYuoEoCq7OnTXrrK5+5+Bfn/fbrJ07olqX3L+kfqRGCBiDxc6tPndg9c9bkJatHqqprfBPLlg1MmtT9m6tOovCZa+WTeN8S+teUlasOblVVkbslQ6jUvd1qdTQQsoPbTd2oUAVBjOrN5BNyzJbaaI70rr/y0nIRSO22CO6/98F7H7gfQlEcEAPVWSI2BDrzDaVOyyPlTYW/swa4ifj8F7/8sY+8z6yYe1b56JlHHHDg1msWrxhu057VCEVkVeFmlVS4awo3/omY1xyhpMcYJQTas7g70S0cgJSzgUwij+POkCxBWfbazEVDcBFVZbmui1mYpdzOZC3ZybviVDFUzaoeau28wyzt2Mmtty2bNHW8echWixYuwu94EOkIRdQq+dKfJEIbliGiAmUSeElgT/Ny8RQOqkKQELS70QjKVVEk2qE4E8pKYGuwbJSWBC18wGWSVYwBGuAqwnWICGdxLtQMCZYSr/JGdqpV+YdMqlG1d9maGdPHrbjx3Ok9EbAXnfbFN77pq3O2nTd9zmQXbwRJyYl1z2bBKLMzz1BVJxMRkyCx6l1fr3x43fJ7loysXf30Jy64+ssnr779PYN3Xtx70zsX/eyiG752zlWXnvS+1x325QuP/8WnX/fgT84a/dO7lt3+7ne+83kzplXLl7eWPbRaAmXXCqjN4T5zWs+0+ZOe9/ov/fwPiyeN7x5qWzPK0geW7b33lttsPo1w5E5y7dstmIGaTl6Dc/XUT6LMGihTihX/uBGJuiPDsu0CaFG5BxHhWrPR7zvEU9/q9ZNm9xx98G5QlINA8LQnP60MRAkqnBAcUSqclcUNlULY9Dx+GtA163pfdsLxcB6VgiD7bDPnta85eN2qlXXNn5DFA7jVYlCRMcPnZrKsQblBxv1lhsyDK6fsOTs7EiGAO9HA3efZRoNxkDfHaFRozsmKNRHppgqIaICKOpwVUmgW/PVJGwSF0Fqj+mDv0LiJ1d67bsUOX/vhrUQtj3MXEQc/NgYAWmYUAUVt1/wZj5yVVRSuFCvxHksvw06cQ7XgLKXEHgSbZbIpA2OlKRPF7qoaIteSrHaB0lUpU5UoynuBu+ValaOc8BaKHhTiXH+l5BHJo208jA2qlnIrSxqtV6/or7S69/oL991hAaAf/OKvFx5wwSiqzbebM66rypbhEgIkw4gZKtBySu7kZXRDnE0bahoSZRhs5XX3D6764/J1dy9Nawcqa82bpXvuOOEFL9rlTW8+5Ojj9n7ivnNmbjZpeGT92nsfWnz7w6vWjZqlInkG14ZIfcuMBZPipFmbH3Dhr669+1Un7N8/3NeQQNW1RtLIunXXf+9MgJIwwXFH7uHZk8OMj5eUYnrOBjc192ZsUj7qE4IYgrtbpk4LppNnDaKBm163TQeWLfn4e4+BVbVTr7J02eKhEb6qCKfhmLJXnRK0ZM5kU3z8NaDz5s/jztGMzdL4UP3066cNrFg+2KfWcLFgyZ0/X9P1C3cR5iKezbjBatwiRjOBpmSZF2rVUIl5BsFXUlb5cm6Am5NTKjlhQTNhB5GUreZIpyl5jJWgjKUk9A/kSUg4Mo/sXBdry9kPf/qeDfg1f7iHTV2xMncCu1VTKl47KZlwLHkqJDMzZx2U39mkVcVZY04mZS3iDHBomdNgOaXRdiulRFM2ANlCQFAEqfiQoHwNbqfM9wsxLrpwFFh2IdKdBJTlMqcE7FoFKTDLWYup846hDfaT3lWrxzXzb396+muO25c8H3xo9czdz/nklddP3mbevDlTuyo1g3PSEIuynOxNkMTREBcNOUROaOYaBRNie1xjIDSH2rmvL69c3rfywRVrbr//wTuWLb9/9bJVQ2vXrB9a56N1+S4ZHBS06qpMk3ni32bzJ2tz/JzdTn94yfpbf3hes2oPD1or16HZbFbVutWDU2ZOveB1B1NI+vOTXnLIunXrNMQqcGdVAuU0z+UFwcqyxGCcIuccuIOZTfT74s4bXxRBG+BVs6JD17hi2fC4aRP33Xa2iDS7GuR/zhlvADVumb2ym5AkygS0IeqTEXAUMjaFx0cDWg+PBILduQ+46d/e0KXtoYFW1eCmckfaISi9erNRaYAGCbTsyN2sNCqjUybR2szcNAS4Ex/lCVLKllPdpiGHGAlTVU08OOgpjCbCEVIFNMrNtJynGsXIMgThhJLNMkTMaCoKwYi7Zttzh2lt6AP3r+KRJrGupNHVxZuow5OoCyQ77dJVhVxFkerkGsDo4k6GlM/Ad9rcNoFC26OtdnIJ/NNm1YwUQsnGq2YztXPmq0TgMW7uBTkxqptbbezRpJxCFtrOrhpBXgpiwzPbay5Zc2JdQCuX4i89eM6ew4oH+9Y+sOxjlxx99YePAwcCJ739a5ttc8rDS4an7bzZlEnjGgKATC2Ac6ghOEIrZbNs2YNLMkkZuW6HdivYSM5JQi3BRDQHqSK9YSukGimrSmqN5taIeq5E6uGcsk6c3Ji78xb3PrR++s7nruwf/PYHXrhw8+4VD6wDl6eVt2gHofbQd9/9Z5z45Pt/dvYXLz5hXBht8yUhpVRzD0FViopIUYrAxUHBsrW5ywnubiQxiqu7Q0JInqkCiump2ezC+t4PXPBcN6X75lIv//gV1B5cuICgWvBO6lhG1kUb6CTd/G59AAAADUlEQVQd6qbkcdDA/wcAAP//8aXl9QAAAAZJREFUAwCra8Sq8R+JFwAAAABJRU5ErkJggg==;" vertex="1" parent="1">
          <mxGeometry x="180" y="48" width="165.1" height="112" as="geometry" />
        </mxCell>
      </root>
    </mxGraphModel>
  </diagram>
</mxfile>
